<svg width="49" height="60" viewBox="0 0 49 60" fill="none" xmlns="http://www.w3.org/2000/svg">
<path d="M23.0712 53.0735L48.4529 27.686H29.9972L13.8462 43.8428L23.0712 53.0735Z" fill="#39CEFD"/>
<path d="M0 29.9971L29.9971 0H48.4529L9.23077 39.2279L0 29.9971Z" fill="#39CEFD"/>
<path d="M29.9973 59.9947H48.453L32.3021 43.8438L23.0713 53.0745L29.9973 59.9947Z" fill="#03569B"/>
<path d="M32.3021 43.8438L23.0713 53.0745L36.7615 48.3321L32.3021 43.8438Z" fill="url(#paint0_linear)"/>
<path d="M13.8452 43.8399L23.0762 34.6089L32.3078 43.8399L23.0762 53.071L13.8452 43.8399Z" fill="#16B9FD"/>
<path d="M48.4529 27.6865L32.3019 43.8433L48.4529 60H29.9971L13.8404 43.8433L29.9971 27.6865H48.4529ZM29.9971 0L0 29.9971L9.23077 39.2279L48.4529 0H29.9971Z" fill="url(#paint1_radial)"/>
<defs>
<linearGradient id="paint0_linear" x1="25.7651" y1="54.8559" x2="32.64" y2="47.9811" gradientUnits="userSpaceOnUse">
<stop stop-color="#1A237E" stop-opacity="0.4"/>
<stop offset="1" stop-color="#1A237E" stop-opacity="0"/>
</linearGradient>
<radialGradient id="paint1_radial" cx="0" cy="0" r="1" gradientUnits="userSpaceOnUse" gradientTransform="translate(1.36121 4.08942) scale(73.4027)">
<stop stop-color="white" stop-opacity="0.1"/>
<stop offset="1" stop-color="white" stop-opacity="0"/>
</radialGradient>
</defs>
</svg>
