<svg width="63" height="62" viewBox="0 0 63 62" fill="none" xmlns="http://www.w3.org/2000/svg">
<path d="M31.5343 0.001294C24.0748 -0.0665618 16.8371 2.53629 11.1293 7.33942C5.42146 12.1426 1.62015 18.8291 0.412369 26.1905C-0.79541 33.5519 0.670026 41.1025 4.54382 47.4777C8.41761 53.8529 14.4442 58.632 21.5343 60.9513C23.1143 61.2413 23.6743 60.2713 23.6743 59.4413C23.6743 58.6113 23.6743 56.2413 23.6743 53.6313C14.9243 55.5013 13.0343 49.9313 13.0343 49.9313C11.6043 46.3113 9.54433 45.3613 9.54433 45.3613C6.69433 43.4313 9.76433 43.4513 9.76433 43.4513C10.7605 43.5836 11.713 43.9427 12.5486 44.501C13.3843 45.0592 14.0807 45.8017 14.5843 46.6713C17.3943 51.4613 21.9443 50.0713 23.7343 49.2613C23.8765 47.6728 24.5866 46.1887 25.7343 45.0813C18.7343 44.3013 11.3843 41.6113 11.3843 29.6213C11.3432 26.5068 12.5077 23.4971 14.6343 21.2213C13.6773 18.5236 13.7846 15.5626 14.9343 12.9413C14.9343 12.9413 17.5643 12.1113 23.5943 16.1413C28.7578 14.7417 34.2008 14.7417 39.3643 16.1413C45.3643 12.0913 48.0243 12.9413 48.0243 12.9413C49.1876 15.5584 49.3022 18.5222 48.3443 21.2213C50.4709 23.4971 51.6354 26.5068 51.5943 29.6213C51.5943 41.6213 44.2343 44.2813 37.2243 45.0613C38.3543 46.0613 39.3643 47.9413 39.3643 50.8513C39.3643 55.0313 39.3643 58.4013 39.3643 59.4213C39.3643 60.2513 39.9343 61.2313 41.5343 60.9113C48.6067 58.5809 54.6141 53.8009 58.4738 47.4328C62.3334 41.0648 63.7914 33.5274 62.5851 26.1794C61.3787 18.8313 57.5872 12.1558 51.8941 7.35608C46.201 2.55633 38.9806 -0.0519637 31.5343 0.001294ZM11.8243 44.5313C11.7613 44.61 11.6721 44.6634 11.5729 44.6818C11.4738 44.7001 11.3713 44.6822 11.2843 44.6313C11.0643 44.5313 10.9443 44.3113 11.0143 44.1713C11.0843 44.0313 11.3343 43.9713 11.5543 44.0713C11.7743 44.1713 11.9243 44.3813 11.8243 44.5313ZM13.3743 45.9213C13.2243 46.0713 12.9343 45.9913 12.7343 45.7713C12.5343 45.5513 12.4843 45.2613 12.6343 45.1113C12.7843 44.9613 13.0743 45.0413 13.2743 45.2613C13.4743 45.4813 13.5443 45.7813 13.3743 45.9213ZM14.4543 47.6513C14.2543 47.7713 13.9343 47.6513 13.7443 47.3813C13.6465 47.279 13.5919 47.1428 13.5919 47.0013C13.5919 46.8597 13.6465 46.7236 13.7443 46.6213C13.8749 46.5688 14.0205 46.5675 14.1521 46.6175C14.2837 46.6675 14.3916 46.7653 14.4543 46.8913C14.6543 47.1913 14.6543 47.5413 14.4543 47.6613V47.6513ZM16.2543 49.7013C16.0843 49.9013 15.7143 49.8513 15.4443 49.5813C15.3193 49.4924 15.2324 49.3596 15.2009 49.2095C15.1694 49.0594 15.1956 48.903 15.2743 48.7713C15.4443 48.5713 15.8143 48.6213 16.0843 48.8913C16.212 48.9805 16.3007 49.1151 16.3323 49.2675C16.3639 49.42 16.336 49.5787 16.2543 49.7113V49.7013ZM18.5643 50.3813C18.4943 50.6213 18.1443 50.7513 17.7743 50.6213C17.4043 50.4913 17.1843 50.2313 17.2543 49.9813C17.3243 49.7313 17.6743 49.6113 18.0443 49.7413C18.4143 49.8713 18.6343 50.1513 18.5643 50.3913V50.3813ZM21.1943 50.6713C21.1943 50.9413 20.8943 51.1313 20.5343 51.1613C20.1743 51.1913 19.8443 50.9613 19.8443 50.7013C19.8443 50.4413 20.1443 50.2413 20.5043 50.2113C20.8643 50.1813 21.1943 50.4213 21.1943 50.6913V50.6713ZM23.8043 50.5713C23.8043 50.8113 23.5843 51.0813 23.2143 51.1613C22.8443 51.2413 22.5043 51.0613 22.4543 50.8213C22.4043 50.5813 22.6743 50.3113 23.0443 50.2313C23.4143 50.1513 23.7543 50.3213 23.8043 50.5913V50.5713Z" fill="#161614"/>
</svg>
