<svg width="59" height="62" viewBox="0 0 59 62" fill="none" xmlns="http://www.w3.org/2000/svg">
<path d="M43.3778 44.4037C43.7578 41.1737 43.6478 40.6937 46.0078 41.2237L46.6078 41.2737C48.5208 41.3395 50.4261 40.9987 52.1978 40.2737C55.1978 38.8537 56.9778 36.4837 54.0278 37.1137C47.2678 38.5337 46.7978 36.1937 46.7978 36.1937C53.9278 25.4537 56.9178 11.7537 54.3378 8.40369C47.3378 -0.746311 35.1578 3.58369 34.9578 3.69369H34.8878C33.4037 3.38684 31.8932 3.22607 30.3778 3.21369C27.8152 3.08869 25.2895 3.86337 23.2378 5.40369C23.2378 5.40369 1.56775 -3.70631 2.56775 16.8537C2.77775 21.2237 8.71776 49.9537 15.7978 41.2737C18.3878 38.0937 20.8878 35.4237 20.8878 35.4237C22.138 36.2888 23.6547 36.6821 25.1678 36.5337L25.2878 36.4237C25.2453 36.834 25.2622 37.2482 25.3378 37.6537C23.5078 39.7337 24.0478 40.0937 20.4078 40.8537C16.7678 41.6137 18.8878 43.0037 20.2978 43.3737C21.8057 43.8676 23.4323 43.8652 24.9388 43.3666C26.4452 42.8681 27.7522 41.8997 28.6678 40.6037L28.5578 41.0437C29.2678 41.6337 29.2278 45.2337 29.3278 47.8237C29.3104 49.9857 29.576 52.1406 30.1178 54.2337C30.6278 55.6537 31.2478 59.3037 36.0278 58.2337C40.0378 57.3737 43.0978 56.1337 43.3778 44.4037Z" fill="black"/>
<path d="M34.4777 61.0035C33.6621 61.0268 32.8499 60.8886 32.088 60.5968C31.326 60.3051 30.6292 59.8655 30.0377 59.3035C29.0191 58.2341 28.2895 56.9229 27.9177 55.4935C27.8677 55.3435 27.8277 55.2035 27.7977 55.1135C27.1445 52.7737 26.828 50.3527 26.8577 47.9235C26.8577 47.4735 26.8577 46.9835 26.8577 46.4735C26.8577 46.1735 26.8577 45.8035 26.8577 45.4735C24.6239 46.4113 22.137 46.5595 19.8077 45.8935C18.6168 45.6323 17.5368 45.0066 16.7177 44.1035C16.0505 44.7307 15.2262 45.166 14.3319 45.3631C13.4377 45.5603 12.5068 45.512 11.6377 45.2235C9.71768 44.5635 8.00768 42.7535 6.41768 39.6735C5.03704 36.9687 3.9057 34.1437 3.03768 31.2335C1.61594 26.589 0.61195 21.8267 0.0376761 17.0035C-0.282324 10.5235 1.43768 5.89354 5.13768 3.22354C8.23768 1.00354 12.4177 0.333538 17.6077 1.19354C19.4118 1.50154 21.1877 1.95639 22.9177 2.55354C25.187 1.22307 27.7888 0.567423 30.4177 0.663538C31.8624 0.68684 33.3033 0.820563 34.7277 1.06354C37.1171 0.341626 39.6017 -0.0157272 42.0977 0.00353785C44.8324 -0.0514864 47.5418 0.53601 50.008 1.71878C52.4743 2.90155 54.6286 4.64658 56.2977 6.81354C58.5977 9.81354 57.7477 15.7335 56.6177 20.1635C55.2495 25.3629 53.1876 30.3543 50.4877 35.0035C51.4971 34.954 52.5006 34.8202 53.4877 34.6035C56.7677 33.9235 57.6777 35.8735 57.8777 36.5035C58.8777 39.6435 54.5777 41.9635 53.2277 42.6135C51.0886 43.5001 48.7809 43.9064 46.4677 43.8035H46.3577H45.9577V44.1235C45.9577 44.2735 45.9577 44.4335 45.9077 44.6035C45.7577 50.6035 44.9077 54.3635 43.1777 56.8735C41.3477 59.5335 38.8077 60.2835 36.5877 60.7635C35.8962 60.9258 35.188 61.0063 34.4777 61.0035ZM30.1377 39.0035C31.5777 40.1635 31.6977 42.3035 31.8077 46.2935C31.8077 46.7735 31.8077 47.2335 31.8077 47.6735C31.8155 49.564 32.0267 51.4482 32.4377 53.2935C32.5077 53.4835 32.5677 53.6635 32.6277 53.8735C33.1477 55.5035 33.3677 56.1735 35.4777 55.7135C37.3277 55.3035 38.2877 54.9435 39.0277 53.8935C40.1177 52.3035 40.7377 49.0835 40.8377 44.3235L43.3477 44.3935L40.8477 44.0935C40.8477 43.8835 40.8477 43.6935 40.9177 43.5035C41.1277 41.6035 41.3077 40.0935 42.6377 39.1035C43.4013 38.5733 44.3374 38.3518 45.2577 38.4835C44.7576 38.0127 44.4094 37.4034 44.2577 36.7335L44.0477 35.6835L44.6377 34.7935C47.829 29.9116 50.2098 24.5457 51.6877 18.9035C53.0877 13.4135 52.6877 10.4935 52.2777 9.90354C46.7777 2.70354 37.0377 5.67354 36.0377 6.00354L35.8477 6.11354L34.9077 6.29354L34.4277 6.19354C33.1104 5.92863 31.7712 5.78801 30.4277 5.77354C28.4338 5.65691 26.4624 6.24445 24.8577 7.43354L23.7177 8.32354L22.3877 7.76354C19.6877 6.70354 12.0377 4.52354 8.03768 7.40354C5.86768 9.00354 4.85768 12.1235 5.03768 16.7435C5.62843 21.2606 6.61216 25.7175 7.97768 30.0635C10.3777 37.9635 12.5077 40.1535 13.1077 40.3335C13.4173 40.1661 13.6816 39.9259 13.8777 39.6335C16.4877 36.4335 18.9677 33.7535 19.0777 33.6335L20.5277 32.0735L22.2877 33.2635C22.8675 33.6607 23.5382 33.905 24.2377 33.9735L28.3977 30.3435L27.7977 36.6535C27.7736 36.8495 27.7736 37.0476 27.7977 37.2435L28.0377 38.4635L27.2477 39.3635L29.1977 40.2835L30.1377 39.0035Z" fill="black"/>
<path d="M54.0378 37.1536C47.2778 38.5736 46.8078 36.2336 46.8078 36.2336C53.9178 25.4436 56.8978 11.7436 54.3378 8.39363C47.3378 -0.736367 35.1578 3.58363 34.9578 3.69363H34.8878C33.4037 3.38678 31.8932 3.22601 30.3778 3.21363C27.8152 3.08864 25.2895 3.86331 23.2378 5.40363C23.2378 5.40363 1.56775 -3.70637 2.56775 16.8536C2.78775 21.2236 8.72776 50.0036 15.7978 41.2736C18.3878 38.0936 20.8878 35.4236 20.8878 35.4236C22.138 36.2887 23.6547 36.6821 25.1678 36.5336L25.2878 36.4236C25.2453 36.8339 25.2622 37.2482 25.3378 37.6536C23.5078 39.7336 24.0478 40.0936 20.4078 40.8536C16.7678 41.6136 18.8878 43.0036 20.2978 43.3736C21.8057 43.8676 23.4323 43.8651 24.9388 43.3666C26.4452 42.868 27.7522 41.8996 28.6678 40.6036L28.5578 41.0436C29.2678 41.6336 29.7778 44.8336 29.6878 47.7536C29.5978 50.6736 29.5578 52.6736 30.1078 54.2336C30.6578 55.7936 31.2378 59.3036 36.0178 58.2336C40.0178 57.3536 42.0978 55.0936 42.3878 51.3036C42.5878 48.6236 43.0578 49.0136 43.0878 46.6036L43.4678 45.4636C43.8978 41.8236 43.5378 40.6436 46.0078 41.1936L46.6078 41.2436C48.5208 41.3095 50.4261 40.9687 52.1978 40.2436C55.1978 38.9036 56.9678 36.5336 54.0378 37.1536Z" fill="#336791"/>
<path d="M34.7179 59.4233C30.7179 59.4233 29.4079 56.1633 28.8879 54.8333C28.1179 52.8333 27.9579 45.5933 28.1379 39.2233C28.1405 39.003 28.2284 38.7923 28.3832 38.6356C28.5381 38.4789 28.7477 38.3885 28.9679 38.3833C29.1925 38.3937 29.4041 38.4916 29.5574 38.6561C29.7106 38.8206 29.7934 39.0385 29.7879 39.2633C29.5979 46.3533 29.8679 52.7633 30.4179 54.1933C31.2779 56.3933 32.5979 58.3333 36.2979 57.5233C39.9979 56.7133 41.1479 55.4233 41.7379 51.9133C42.1979 49.2133 43.0979 41.5633 43.1979 40.0433C43.1995 39.928 43.2247 39.8143 43.2721 39.7092C43.3195 39.6041 43.388 39.5099 43.4734 39.4325C43.5588 39.355 43.6592 39.296 43.7683 39.259C43.8775 39.222 43.9931 39.2079 44.108 39.2175C44.2229 39.2271 44.3346 39.2603 44.4361 39.3149C44.5375 39.3696 44.6267 39.4445 44.698 39.5351C44.7693 39.6257 44.8212 39.73 44.8504 39.8415C44.8796 39.9531 44.8856 40.0694 44.8679 40.1833C44.7479 41.7533 43.8679 49.4133 43.3779 52.1833C42.6679 56.3633 40.8379 58.2633 36.6379 59.1833C36.0079 59.3291 35.3645 59.4096 34.7179 59.4233Z" fill="white"/>
<path d="M13.0375 43.6635C12.6965 43.6587 12.3587 43.5979 12.0375 43.4835C9.41749 42.5935 6.93749 38.2635 4.64749 30.6335C3.25151 26.1247 2.26419 21.4993 1.69749 16.8135C1.41749 11.0035 2.89749 6.81349 6.10749 4.49349C12.4475 -0.0765131 23.1075 4.27349 23.5375 4.49349C23.7433 4.57226 23.9104 4.72785 24.0037 4.92746C24.097 5.12708 24.1091 5.35511 24.0375 5.56349C23.9965 5.67002 23.9337 5.76682 23.8532 5.8477C23.7726 5.92858 23.6761 5.99175 23.5697 6.03316C23.4633 6.07458 23.3495 6.09333 23.2355 6.08822C23.1214 6.08311 23.0097 6.05425 22.9075 6.00349C22.7875 6.00349 12.6475 1.85349 7.03749 5.88349C4.32749 7.88349 3.08749 11.4835 3.34749 16.7135C3.91217 21.2635 4.87929 25.7544 6.23749 30.1335C8.23749 36.9135 10.5575 41.1835 12.5475 41.8535C12.8575 41.9635 13.7875 42.2735 15.1175 40.6335C17.6975 37.4735 20.0575 34.9535 20.1175 34.9235C20.194 34.8442 20.2856 34.7812 20.387 34.7382C20.4884 34.6951 20.5974 34.673 20.7075 34.673C20.8176 34.673 20.9266 34.6951 21.028 34.7382C21.1293 34.7812 21.221 34.8442 21.2975 34.9235C21.4569 35.0845 21.5463 35.3019 21.5463 35.5285C21.5463 35.7551 21.4569 35.9725 21.2975 36.1335C21.2975 36.1335 18.9475 38.6435 16.4075 41.7435C16.0326 42.3024 15.5331 42.7667 14.9483 43.0999C14.3636 43.433 13.7095 43.626 13.0375 43.6635Z" fill="white"/>
<path d="M46.7577 37.0036C46.5889 37.0065 46.4237 36.9538 46.2877 36.8536C46.1016 36.7274 45.9717 36.534 45.925 36.314C45.8784 36.094 45.9188 35.8645 46.0377 35.6736C53.2377 24.7836 55.7777 11.6736 53.6177 8.83364C52.285 7.08873 50.5606 5.68173 48.5837 4.72631C46.6069 3.77088 44.433 3.29382 42.2377 3.33364C39.8884 3.28187 37.5466 3.61978 35.3077 4.33364L35.1877 4.38364C34.9948 4.44087 34.7877 4.42692 34.6042 4.34433C34.4206 4.26174 34.2729 4.116 34.1877 3.93364C34.1041 3.74297 34.0924 3.52841 34.1549 3.32979C34.2175 3.13118 34.3499 2.96199 34.5277 2.85364C36.9359 1.99208 39.4806 1.57531 42.0377 1.62364C44.5206 1.56782 46.982 2.09514 49.2242 3.16323C51.4663 4.23132 53.4266 5.81042 54.9477 7.77364C56.9977 10.4436 55.6477 16.9636 54.9477 19.6436C53.3656 25.6757 50.8267 31.4152 47.4277 36.6436C47.3511 36.751 47.2509 36.8393 47.1347 36.9017C47.0185 36.9642 46.8895 36.999 46.7577 37.0036Z" fill="white"/>
<path d="M47.1177 42.0034C46.0841 42.0594 45.053 41.8566 44.1177 41.4134C43.876 41.2795 43.6711 41.088 43.5211 40.8561C43.3711 40.6241 43.2806 40.3587 43.2577 40.0834C43.0677 36.8134 44.7877 36.1634 45.7377 35.8834C45.6177 35.7034 45.4577 35.5034 45.2977 35.2934C44.5361 34.3922 43.9157 33.3807 43.4577 32.2934C43.2401 31.8512 42.9998 31.4206 42.7377 31.0034C40.9877 27.8134 37.3677 21.1834 39.7377 17.7734C40.8077 16.1934 42.9377 15.5734 46.0677 15.8934C45.3022 13.7416 44.1537 11.7461 42.6777 10.0034C41.1934 8.14938 39.3151 6.64906 37.179 5.61126C35.0428 4.57346 32.7025 4.02421 30.3277 4.00335C28.9234 3.92297 27.518 4.13971 26.2033 4.63942C24.8885 5.13913 23.694 5.91057 22.6977 6.90336C18.3777 11.3534 18.5177 19.4334 18.5177 19.5134C18.5177 19.7361 18.4292 19.9498 18.2716 20.1073C18.1141 20.2649 17.9004 20.3534 17.6777 20.3534C17.4549 20.3534 17.2412 20.2649 17.0837 20.1073C16.9262 19.9498 16.8377 19.7361 16.8377 19.5134C16.8377 19.1534 16.6677 10.6234 21.4877 5.65335C22.6399 4.4956 24.0243 3.59495 25.5496 3.01066C27.075 2.42637 28.7068 2.17168 30.3377 2.26335C32.9277 2.2914 35.4799 2.88917 37.813 4.01425C40.1461 5.13932 42.203 6.76413 43.8377 8.77336C45.8153 11.0119 47.216 13.6999 47.9177 16.6034C47.9624 16.8463 47.9156 17.0972 47.7863 17.3076C47.6571 17.5181 47.4545 17.6733 47.2177 17.7434H46.9177C44.8077 17.4034 42.0777 17.2934 41.0777 18.7434C39.3277 21.2734 42.7477 27.5034 44.1977 30.1634C44.5777 30.8434 44.8377 31.3434 44.9677 31.6434C45.3648 32.5868 45.9044 33.4637 46.5677 34.2434C47.0185 34.7091 47.3601 35.2693 47.5677 35.8834C47.6377 36.0034 48.5676 37.2934 53.8176 36.2034C55.1977 35.9134 56.0177 36.2034 56.2777 36.9534C56.7777 38.4834 54.0377 40.2534 52.5177 40.9534C50.8081 41.6681 48.9704 42.0254 47.1177 42.0034ZM44.8977 40.0034C45.7707 40.3742 46.7278 40.502 47.6677 40.3734C49.083 40.3326 50.4791 40.0344 51.7877 39.4934C52.6617 39.0998 53.4657 38.5661 54.1677 37.9134C50.7277 38.6434 48.2977 38.5434 46.9277 37.6134C46.8452 37.5611 46.7682 37.5008 46.6977 37.4334L46.3477 37.5434C45.5477 37.7634 44.8077 38.0034 44.8977 40.0034Z" fill="white"/>
<path d="M22.7179 44.4737C21.8132 44.4644 20.913 44.3435 20.0379 44.1137C19.7679 44.0437 17.4479 43.4037 17.4679 41.8937C17.4879 40.3837 19.4679 40.1037 20.1779 39.8937C22.7579 39.3637 22.9179 39.1437 23.7279 38.1037C23.9679 37.8037 24.2679 37.4237 24.6679 36.9537C25.0072 36.4643 25.5137 36.1159 26.0921 35.974C26.6704 35.8322 27.2807 35.9068 27.8079 36.1837C28.261 36.4006 28.6608 36.7146 28.9788 37.1035C29.2968 37.4924 29.5253 37.9466 29.6479 38.4337C29.787 38.8602 29.8287 39.3126 29.7698 39.7573C29.711 40.2021 29.5531 40.628 29.3079 41.0037C28.5892 42.089 27.6088 42.9758 26.4571 43.5822C25.3053 44.1887 24.0194 44.4953 22.7179 44.4737ZM19.3479 42.0037C19.6908 42.2225 20.0651 42.3878 20.4579 42.4937C22.6879 43.0737 25.8079 43.0937 27.9379 40.0537C28.0276 39.8956 28.0829 39.7203 28.1001 39.5394C28.1174 39.3584 28.0962 39.1759 28.0379 39.0037C27.9767 38.7638 27.8683 38.5384 27.7189 38.341C27.5695 38.1435 27.3822 37.9778 27.1679 37.8537C26.7079 37.6637 26.4679 37.5537 25.9179 38.1837C25.5579 38.6037 25.2879 38.9537 25.0479 39.2537C24.0479 40.5837 23.5579 41.0237 20.5179 41.6637C20.1157 41.7299 19.7229 41.844 19.3479 42.0037Z" fill="white"/>
<path d="M25.1775 38.3935C24.9748 38.3908 24.7798 38.3157 24.6276 38.1818C24.4754 38.048 24.3761 37.8642 24.3475 37.6635V37.3235C23.344 37.2888 22.3574 37.0542 21.4457 36.6335C20.5339 36.2128 19.7152 35.6145 19.0375 34.8735C18.1215 33.8848 17.4392 32.7029 17.0411 31.4151C16.6431 30.1274 16.5393 28.7667 16.7375 27.4335C17.021 25.1112 17.0779 22.7668 16.9075 20.4335C16.9075 20.0335 16.9075 19.7535 16.9075 19.5535C16.9075 19.3535 16.9075 18.6135 19.1275 17.4535C20.3779 16.7996 21.7306 16.3633 23.1275 16.1635C25.9575 15.8635 27.8375 17.1635 28.3975 19.7935C29.8875 26.8435 28.5175 29.9835 27.5075 32.2535C27.3175 32.6735 27.1475 33.0735 27.0075 33.4635L26.8875 33.8035C26.3491 34.9286 26.0592 36.1564 26.0375 37.4035C26.059 37.5153 26.0579 37.6303 26.0341 37.7416C26.0104 37.853 25.9645 37.9584 25.8992 38.0517C25.8339 38.145 25.7505 38.2242 25.654 38.2846C25.5576 38.345 25.4499 38.3855 25.3375 38.4035C25.3116 38.413 25.284 38.417 25.2564 38.4152C25.2289 38.4135 25.202 38.4061 25.1775 38.3935ZM18.5375 19.7835C18.5375 19.9235 18.5375 20.1135 18.5375 20.3135C18.7152 22.7705 18.6516 25.239 18.3475 27.6835C18.1886 28.7583 18.2723 29.855 18.5924 30.8932C18.9125 31.9314 19.461 32.8848 20.1975 33.6835C20.7385 34.2812 21.3969 34.761 22.1316 35.0931C22.8662 35.4251 23.6614 35.6023 24.4675 35.6135C24.678 34.7938 24.9419 33.9888 25.2575 33.2035L25.3775 32.8635C25.5375 32.4235 25.7275 32.0035 25.9275 31.5535C26.9275 29.3735 28.0875 26.6635 26.7075 20.1435C26.6491 19.6094 26.4247 19.107 26.066 18.707C25.7072 18.307 25.2321 18.0295 24.7075 17.9135C22.4675 17.3935 19.2275 19.1535 18.5375 19.7835Z" fill="white"/>
<path d="M23.1377 19.4138C23.1377 19.6838 23.6377 20.4138 24.3477 20.5338C24.624 20.5657 24.9033 20.5081 25.1445 20.3695C25.3857 20.2309 25.5761 20.0186 25.6877 19.7638C25.6877 19.4938 25.1877 19.1738 24.4777 19.0838C23.7677 18.9938 23.1777 19.1338 23.1377 19.4138Z" fill="white"/>
<path d="M24.4879 20.8337H24.2979C23.8166 20.7466 23.3871 20.4782 23.0979 20.0837C22.9372 19.8928 22.8456 19.6532 22.8379 19.4037C22.8431 19.3272 22.8635 19.2524 22.8978 19.1837C22.9321 19.115 22.9797 19.0539 23.0379 19.0037C23.4745 18.7554 23.9886 18.6804 24.4779 18.7937C25.2279 18.9037 25.9979 19.2637 25.9179 19.7937C25.8178 20.0946 25.6261 20.3566 25.3697 20.5431C25.1133 20.7296 24.8049 20.8312 24.4879 20.8337ZM23.4179 19.4637C23.5081 19.6666 23.6462 19.8445 23.8204 19.9821C23.9946 20.1197 24.1997 20.2129 24.4179 20.2537C24.6152 20.2674 24.8124 20.2272 24.9886 20.1374C25.1647 20.0475 25.3131 19.9115 25.4179 19.7437C25.1364 19.5089 24.7843 19.3751 24.4179 19.3637C24.0823 19.2923 23.7327 19.3272 23.4179 19.4637Z" fill="white"/>
<path d="M44.5376 18.8337C44.5376 19.1037 44.0376 19.8337 43.3276 19.9537C43.0593 19.9746 42.7912 19.9118 42.5601 19.7739C42.3291 19.636 42.1465 19.4298 42.0376 19.1837C42.0376 18.9137 42.5376 18.5937 43.2476 18.5037C43.9576 18.4137 44.5176 18.5537 44.5376 18.8337Z" fill="white"/>
<path d="M43.1876 20.1236C42.9028 20.1234 42.6243 20.0388 42.3876 19.8803C42.1509 19.7219 41.9664 19.4968 41.8576 19.2336C41.8076 18.8136 42.4776 18.4836 43.1876 18.3836C43.8976 18.2836 44.6276 18.3836 44.6876 18.8336C44.6664 19.12 44.5378 19.3879 44.3276 19.5836C44.0661 19.8713 43.7125 20.0587 43.3276 20.1136C43.2807 20.1125 43.2339 20.1158 43.1876 20.1236ZM43.6476 18.6336H43.2276C42.4876 18.7436 42.1276 19.0336 42.1376 19.1536C42.2471 19.3666 42.4182 19.5417 42.6288 19.6558C42.8393 19.77 43.0794 19.818 43.3176 19.7936C43.6291 19.7348 43.9132 19.577 44.1276 19.3436C44.2774 19.2113 44.3764 19.0309 44.4076 18.8336C44.3976 18.7636 44.1276 18.6336 43.6476 18.6336Z" fill="white"/>
<path d="M45.5678 34.9338C45.3989 34.9367 45.2338 34.8839 45.0978 34.7838C45.0052 34.7214 44.9258 34.6414 44.8641 34.5483C44.8024 34.4553 44.7597 34.351 44.7384 34.2414C44.717 34.1318 44.7174 34.0191 44.7396 33.9097C44.7618 33.8003 44.8054 33.6963 44.8678 33.6038C46.5078 31.1138 46.1978 28.6038 45.8678 26.1038C45.7179 25.0438 45.6477 23.9742 45.6578 22.9038C45.7066 21.9557 45.8067 21.011 45.9578 20.0738C46.1426 19.0479 46.223 18.0059 46.1978 16.9638C46.1912 16.8534 46.2064 16.7429 46.2426 16.6385C46.2787 16.5341 46.3351 16.4378 46.4085 16.3551C46.5566 16.1882 46.765 16.087 46.9878 16.0738C47.2106 16.0605 47.4295 16.1363 47.5964 16.2844C47.7633 16.4326 47.8645 16.641 47.8778 16.8638C47.9145 18.0231 47.8273 19.183 47.6178 20.3238C47.4685 21.1936 47.375 22.072 47.3378 22.9538C47.3321 23.9377 47.4024 24.9206 47.5478 25.8938C47.8578 28.5338 48.2078 31.5338 46.2278 34.5538C46.1533 34.6625 46.0553 34.7531 45.941 34.8188C45.8268 34.8846 45.6992 34.9239 45.5678 34.9338Z" fill="white"/>
</svg>
