<svg width="67" height="60" viewBox="0 0 67 60" fill="none" xmlns="http://www.w3.org/2000/svg">
<path d="M50.5052 55.8487C42.618 60.4049 31.7734 60.8731 20.8629 56.1969C12.0288 52.4383 4.69883 45.8592 0 38.3422C2.25545 40.2215 4.88676 41.7255 7.70599 43.0403C18.9735 48.3215 30.2385 47.9599 38.1663 43.0539C38.1612 43.0488 38.1578 43.0454 38.1544 43.0403C26.8772 34.3944 17.2916 23.1171 10.1497 13.9084C8.64545 12.4047 7.51773 10.5251 6.39 8.83355C15.0358 16.7275 28.7569 26.6882 33.6427 29.5088C23.3067 18.6067 14.0963 5.07502 14.4715 5.4502C30.8238 21.9901 46.0489 31.3881 46.0489 31.3881C46.5525 31.672 46.9412 31.9086 47.2538 32.1198C47.5834 31.2816 47.8723 30.4113 48.1157 29.5088C50.747 19.9232 47.7405 9.02113 41.1614 0C56.3848 9.20957 65.4076 26.5006 61.6474 40.9737C61.5494 41.3641 61.4429 41.7494 61.328 42.1279C61.3719 42.1803 61.4159 42.2344 61.4598 42.2902C68.9769 51.6882 66.91 61.6489 65.9704 59.7697C61.8925 51.7896 54.3433 54.2299 50.5053 55.8489L50.5052 55.8487Z" fill="url(#paint0_linear)"/>
<defs>
<linearGradient id="paint0_linear" x1="33.4786" y1="0" x2="33.4786" y2="60" gradientUnits="userSpaceOnUse">
<stop stop-color="#F88A36"/>
<stop offset="1" stop-color="#FD2020"/>
</linearGradient>
</defs>
</svg>
