<svg width="108" height="45" viewBox="0 0 108 45" fill="none" xmlns="http://www.w3.org/2000/svg">
<path d="M104.669 29.8757H103.939V31.7773H103.3V29.8757H102.568V29.3263H104.669V29.8757Z" fill="#961A1F"/>
<path d="M104.955 29.3263H105.895L106.317 30.9603H106.324L106.747 29.3263H107.687V31.7773H107.086V29.9169H107.079L106.565 31.7773H106.077L105.562 29.9169H105.555V31.7773H104.955V29.3263Z" fill="#961A1F"/>
<path d="M79.3857 31.6382C78.4946 32.014 77.5946 32.2021 76.6868 32.2021C75.2532 32.2021 73.9647 31.9523 72.82 31.4537C71.6752 30.9548 70.7099 30.2678 69.9236 29.3917C69.1369 28.5167 68.5344 27.4879 68.1151 26.3061C67.6957 25.1243 67.4858 23.8499 67.4858 22.4842C67.4858 21.0842 67.695 19.7839 68.1132 18.5843C68.5312 17.3852 69.1327 16.3392 69.9173 15.446C70.7019 14.553 71.6659 13.8528 72.8101 13.3446C73.9543 12.837 75.2426 12.5828 76.6762 12.5828C77.6371 12.5828 78.5672 12.7277 79.4672 13.017C80.3671 13.307 81.1794 13.7325 81.9048 14.2938C82.6301 14.8552 83.2285 15.5472 83.7003 16.3693C84.1722 17.1921 84.4608 18.1359 84.5658 19.2016H80.6343C80.3894 18.1537 79.9175 17.3674 79.2187 16.8431C78.519 16.3188 77.6717 16.0566 76.6762 16.0566C75.7497 16.0566 74.9634 16.2361 74.317 16.5951C73.6707 16.954 73.1463 17.4358 72.7442 18.0396C72.342 18.6441 72.0496 19.3312 71.8664 20.1017C71.6826 20.872 71.5914 21.6683 71.5914 22.4911C71.5914 23.2793 71.6832 24.0454 71.8669 24.7892C72.0509 25.5332 72.3438 26.2031 72.746 26.7981C73.1481 27.3934 73.6731 27.8701 74.3206 28.2291C74.9676 28.5881 75.7552 28.7676 76.6831 28.7676C78.0475 28.7676 79.1009 28.4234 79.8446 27.7352C80.5886 27.0467 81.0214 26.0488 81.1444 24.7413H77.0031V21.6621H84.8549V31.7819H82.2422L81.824 29.6589C81.0901 30.6026 80.277 31.2626 79.3857 31.6382Z" fill="#961A1F"/>
<path d="M91.5282 13.0577V28.2952H100.65V31.769H87.4229V13.0577H91.5282Z" fill="#961A1F"/>
<path d="M72.1126 34.0946C65.8311 37.9151 56.4231 40.0896 45.926 40.0896C27.014 40.0896 11.6827 32.2145 11.6827 22.4999C11.6827 12.7854 27.014 4.91017 45.926 4.91017C56.4615 4.91017 65.9079 7.12515 72.1895 10.9695C65.3329 4.52827 53.0393 0.00209008 38.9831 2.68221e-06C17.4553 -0.00358212 0.00186586 10.0674 1.43426e-07 22.4938C-0.00182671 34.9198 17.4484 44.9968 38.9763 45C52.9766 45.0023 65.2383 40.4908 72.1126 34.0946Z" fill="#961A1F"/>
<path d="M37.6127 11.6007L34.0027 27.2223L29.6435 11.6007H26.3334L21.9841 27.2225L18.3633 11.6007H14.9526L20.3092 31.9624H23.5092L28.0153 15.9695L32.4672 31.9624H35.6764L41.2212 11.6007H37.6127Z" fill="#961A1F"/>
<path d="M50.2413 20.1721C49.74 19.4666 49.113 18.9236 48.3773 18.5579C47.6208 18.1818 46.7436 17.9912 45.7705 17.9912C44.6751 17.9912 43.6882 18.1898 42.8372 18.5816C42.0303 18.9532 41.3414 19.4995 40.7897 20.2055C39.7687 21.512 39.229 23.3529 39.229 25.5288C39.229 26.4973 39.3664 27.406 39.6374 28.2299C39.9099 29.0581 40.3122 29.7852 40.8331 30.3905C41.9284 31.6632 43.4898 32.3359 45.3487 32.3359C46.3247 32.3359 47.1216 32.2338 47.7845 32.0239C48.364 31.8406 48.7489 31.6031 49.0643 31.3948C49.4706 31.1268 49.8439 30.7972 50.174 30.4158C50.4543 30.0919 50.7038 29.7301 50.916 29.3406C51.2958 28.643 51.4797 27.9914 51.5214 27.6453L51.5492 27.4164H48.89L48.8754 27.6049C48.8083 28.4688 47.6744 30.0122 45.6541 30.0122C42.7661 30.0122 42.078 27.9244 42.0324 26.0859H51.7011V25.8817C51.7011 24.6961 51.5799 23.6135 51.3405 22.664C51.0959 21.6926 50.7261 20.8542 50.2413 20.1721ZM45.465 20.3905C47.607 20.3905 48.7522 21.5434 48.9608 23.9134H42.0352C42.1367 21.9835 43.666 20.3905 45.465 20.3905Z" fill="#961A1F"/>
<path d="M65.0845 22.1293C64.827 21.3066 64.4474 20.5817 63.9567 19.9745C63.45 19.3477 62.8353 18.8602 62.13 18.5256C61.3937 18.1762 60.5683 17.9991 59.6769 17.9991H59.6736C58.8512 18.0125 58.1003 18.1918 57.4421 18.5323C56.8978 18.8136 56.41 19.2085 55.9871 19.7096V13.4629H53.3389V31.9659H55.8599V30.7066C56.0812 30.9962 56.3656 31.3016 56.7423 31.5716C57.4574 32.084 58.342 32.3438 59.3716 32.3438C60.4789 32.3438 61.4661 32.0968 62.3061 31.6094C63.0548 31.1752 63.6887 30.5495 64.1903 29.7501C64.6282 29.0521 64.9614 28.2301 65.1804 27.3067C65.3695 26.5085 65.4696 25.635 65.4696 24.7809C65.4696 23.8371 65.3401 22.945 65.0845 22.1293ZM62.705 25.1337C62.705 26.5864 62.4128 27.8038 61.8598 28.6545C61.271 29.5608 60.4166 30.0201 59.3206 30.0201C57.7359 30.0201 55.8854 28.9119 55.8854 25.7889C55.8854 24.293 56.0703 23.1421 56.4505 22.2699C56.9996 21.0105 57.9219 20.3984 59.2698 20.3984C60.7041 20.3984 61.6634 20.9606 62.2025 22.117C62.6478 23.0728 62.705 24.2312 62.705 25.1337Z" fill="#961A1F"/>
</svg>
