<svg width="93" height="70" viewBox="0 0 93 70" fill="none" xmlns="http://www.w3.org/2000/svg">
<path d="M46.7505 46.7034V37.7265C56.2523 37.7265 63.6281 28.3034 59.9796 18.3029C58.6409 14.6281 55.6749 11.6621 51.9739 10.3234C41.9733 6.70119 32.5502 14.0507 32.5502 23.5525H23.5996C23.5996 8.40732 38.2461 -3.40436 54.1262 1.55655C61.0557 3.73515 66.5941 9.24726 68.7464 16.1768C73.7073 32.0569 61.8957 46.7034 46.7505 46.7034Z" fill="#0080FF"/>
<path fill-rule="evenodd" clip-rule="evenodd" d="M46.7763 37.7787H37.8257V28.8281H46.7763V37.7787Z" fill="#0080FF"/>
<path fill-rule="evenodd" clip-rule="evenodd" d="M37.8254 44.6296H30.9746V37.7788H37.8254V44.6296Z" fill="#0080FF"/>
<path fill-rule="evenodd" clip-rule="evenodd" d="M30.9749 37.7786H25.2266V32.0303H30.9749V37.7786Z" fill="#0080FF"/>
<path d="M8.48091 55.7846C7.32599 54.9709 5.85609 54.5771 4.17621 54.5771H0.501465V66.2576H4.20246C5.88234 66.2576 7.35224 65.8376 8.50715 64.9714C9.13711 64.5252 9.63583 63.8952 10.0033 63.1078C10.3445 62.3204 10.5283 61.3754 10.5283 60.3517C10.5283 59.3281 10.3445 58.4094 10.0033 57.6219C9.63583 56.8345 9.13711 56.2045 8.48091 55.7846ZM2.65381 56.5458H3.80873C5.09489 56.5458 6.14482 56.8082 6.95851 57.307C7.85095 57.8582 8.29717 58.8818 8.29717 60.3517C8.29717 61.8741 7.85095 62.9503 6.95851 63.5278C6.19732 64.0265 5.14739 64.289 3.83498 64.289H2.65381V56.5458Z" fill="#0080FF"/>
<path d="M13.0742 54.4199C12.7068 54.4199 12.418 54.5512 12.1556 54.7874C11.9193 55.0236 11.7881 55.3124 11.7881 55.6798C11.7881 56.0473 11.9193 56.336 12.1556 56.5985C12.3918 56.8348 12.7068 56.966 13.0742 56.966C13.4155 56.966 13.7305 56.8348 13.9929 56.5985C14.2292 56.3623 14.3604 56.0473 14.3604 55.6798C14.3604 55.3124 14.2292 55.0236 13.9929 54.7874C13.7305 54.5512 13.4155 54.4199 13.0742 54.4199Z" fill="#0080FF"/>
<path d="M14.0975 58.0156H12.0239V66.2575H14.0975V58.0156Z" fill="#0080FF"/>
<path d="M21.6313 58.6981C21.0014 58.1469 20.3189 57.8057 19.5577 57.8057C18.4028 57.8057 17.4579 58.1994 16.7229 58.9868C15.988 59.748 15.5942 60.7455 15.5942 61.9529C15.5942 63.1078 15.9617 64.1052 16.6967 64.8927C17.4316 65.6539 18.4028 66.0476 19.5315 66.0476C20.3189 66.0476 21.0276 65.8376 21.5788 65.3914V65.5751C21.5788 66.2576 21.3951 66.7825 21.0276 67.15C20.6601 67.5175 20.1614 67.7012 19.5315 67.7012C18.5865 67.7012 17.9828 67.3337 17.2479 66.3363L15.8305 67.7012L15.8567 67.7537C16.1717 68.1737 16.6179 68.5937 17.2479 68.9874C17.8516 69.3811 18.639 69.5911 19.5577 69.5911C20.7914 69.5911 21.7888 69.2236 22.5238 68.4624C23.2587 67.7012 23.6262 66.7038 23.6262 65.4701V57.9894H21.5788V58.6981H21.6313ZM21.0801 63.5803C20.7126 64.0002 20.2402 64.184 19.6627 64.184C19.059 64.184 18.6128 63.974 18.2453 63.5803C17.8778 63.1603 17.7203 62.6353 17.7203 61.9791C17.7203 61.2967 17.9041 60.7717 18.2453 60.3517C18.5865 59.9318 19.0852 59.748 19.6627 59.748C20.2664 59.748 20.7126 59.958 21.0801 60.3517C21.4476 60.7717 21.6313 61.3229 21.6313 61.9791C21.6313 62.6353 21.4476 63.1603 21.0801 63.5803Z" fill="#0080FF"/>
<path d="M27.5106 58.0156H25.437V66.2575H27.5106V58.0156Z" fill="#0080FF"/>
<path d="M26.4868 54.4199C26.1194 54.4199 25.8306 54.5512 25.5682 54.7874C25.3319 55.0236 25.2007 55.3124 25.2007 55.6798C25.2007 56.0473 25.3319 56.336 25.5682 56.5985C25.8044 56.8348 26.1194 56.966 26.4868 56.966C26.8281 56.966 27.143 56.8348 27.4055 56.5985C27.6418 56.3623 27.773 56.0473 27.773 55.6798C27.773 55.3124 27.6418 55.0236 27.4055 54.7874C27.143 54.5512 26.8543 54.4199 26.4868 54.4199Z" fill="#0080FF"/>
<path d="M32.0513 55.7847H30.0039V58.0158H28.8228V59.9056H30.0039V63.3179C30.0039 64.3941 30.2139 65.1553 30.6339 65.6015C31.0538 66.0477 31.815 66.2577 32.865 66.2577C33.2062 66.2577 33.5474 66.2577 33.8624 66.2314H33.9674V64.3416L33.2587 64.3678C32.76 64.3678 32.445 64.2891 32.2875 64.1053C32.13 63.9216 32.0513 63.5541 32.0513 63.0029V59.8794H33.9936V57.9895H32.0513V55.7847Z" fill="#0080FF"/>
<path d="M45.7792 54.5508H43.7056V66.2575H45.7792V54.5508Z" fill="#0080FF"/>
<path d="M66.7257 63.318C66.3582 63.738 65.9645 64.1055 65.6758 64.2892C65.3871 64.4729 65.0196 64.5779 64.5996 64.5779C63.9959 64.5779 63.4972 64.3679 63.1035 63.8955C62.7097 63.4493 62.4998 62.8455 62.4998 62.1631C62.4998 61.4544 62.7097 60.8769 63.1035 60.4307C63.4972 59.9845 63.9959 59.7483 64.5996 59.7483C65.2558 59.7483 65.9645 60.1682 66.5682 60.8769L67.9331 59.5645C67.0407 58.4096 65.912 57.8584 64.5471 57.8584C63.4184 57.8584 62.421 58.2784 61.6073 59.0921C60.7936 59.9058 60.3999 60.9294 60.3999 62.1631C60.3999 63.3968 60.8199 64.4204 61.6073 65.2341C62.421 66.0478 63.3922 66.4678 64.5471 66.4678C66.0433 66.4678 67.2507 65.8116 68.0906 64.6304L66.7257 63.318Z" fill="#0080FF"/>
<path d="M75.2565 59.1707C74.9678 58.7507 74.5741 58.4357 74.0754 58.1995C73.5766 57.9633 72.9992 57.832 72.3692 57.832C71.2143 57.832 70.2694 58.252 69.5607 59.0919C68.8782 59.9319 68.5107 60.9556 68.5107 62.1892C68.5107 63.4491 68.9045 64.4728 69.6394 65.2603C70.4006 66.0477 71.398 66.4414 72.6317 66.4414C74.0229 66.4414 75.1778 65.864 76.044 64.7615L76.0965 64.7091L74.7316 63.3966C74.6003 63.5541 74.4166 63.7116 74.2591 63.8691C74.0491 64.0528 73.8654 64.2103 73.6554 64.3153C73.3404 64.4728 72.9992 64.5516 72.6055 64.5516C72.028 64.5516 71.5555 64.3941 71.1881 64.0528C70.8468 63.7379 70.6368 63.3179 70.5843 62.7929H76.0702L76.0965 62.0317C76.0965 61.5068 76.0177 60.9818 75.8865 60.5093C75.7552 60.0369 75.5453 59.5907 75.2565 59.1707ZM70.7156 61.1131C70.8206 60.7193 71.0043 60.3781 71.2668 60.1419C71.5555 59.8531 71.923 59.7219 72.343 59.7219C72.8417 59.7219 73.2354 59.8531 73.4979 60.1419C73.7341 60.4044 73.8916 60.7193 73.9179 61.1131H70.7156Z" fill="#0080FF"/>
<path d="M83.2094 58.6457C82.5795 58.1208 81.7133 57.832 80.6371 57.832C79.9547 57.832 79.2985 57.9895 78.721 58.2783C78.1698 58.5407 77.6448 59.0132 77.3036 59.5907L77.3299 59.6169L78.6685 60.8768C79.2197 60.0106 79.8234 59.6957 80.6371 59.6957C81.0833 59.6957 81.4246 59.8006 81.7133 60.0369C81.9758 60.2731 82.1333 60.5618 82.1333 60.9293V61.323C81.6083 61.1656 81.1096 61.0868 80.6109 61.0868C79.5872 61.0868 78.7473 61.323 78.1173 61.7955C77.4873 62.268 77.1724 62.9767 77.1724 63.8691C77.1724 64.6566 77.4348 65.2603 77.9861 65.7327C78.5373 66.1789 79.1935 66.4152 79.9809 66.4152C80.7684 66.4152 81.5033 66.1002 82.1858 65.549V66.2314H84.2331V60.9293C84.1544 59.9581 83.8394 59.1707 83.2094 58.6457ZM79.5347 63.1079C79.7709 62.9504 80.1122 62.8717 80.5321 62.8717C81.0308 62.8717 81.5558 62.9767 82.107 63.1604V63.9741C81.6608 64.3941 81.0571 64.6041 80.3221 64.6041C79.9547 64.6041 79.6922 64.5253 79.4822 64.3678C79.2985 64.2103 79.1935 64.0266 79.1935 63.7641C79.1935 63.4754 79.2985 63.2654 79.5347 63.1079Z" fill="#0080FF"/>
<path d="M92.1339 58.8032C91.5565 58.147 90.7428 57.832 89.7191 57.832C88.9054 57.832 88.223 58.0683 87.7242 58.5407V58.042H85.7031V66.2577H87.7767V61.7168C87.7767 61.0868 87.9342 60.5881 88.223 60.2469C88.5117 59.9056 88.9054 59.7219 89.4566 59.7219C89.9291 59.7219 90.2703 59.8794 90.5328 60.1944C90.7953 60.5093 90.9265 60.9556 90.9265 61.4805V66.2577H93.0001V61.4805C93.0001 60.3519 92.7114 59.4332 92.1339 58.8032Z" fill="#0080FF"/>
<path d="M41.1069 58.6457C40.4769 58.1208 39.6108 57.832 38.5346 57.832C37.8521 57.832 37.1959 57.9895 36.6185 58.2783C36.0673 58.5407 35.5423 59.0132 35.2011 59.5907L35.2273 59.6169L36.566 60.8768C37.1172 60.0106 37.7209 59.6957 38.5346 59.6957C38.9808 59.6957 39.322 59.8006 39.6108 60.0369C39.8732 60.2731 40.0307 60.5618 40.0307 60.9293V61.323C39.5058 61.1656 39.0071 61.0868 38.5083 61.0868C37.4847 61.0868 36.6447 61.323 36.0148 61.7955C35.3848 62.268 35.0698 62.9767 35.0698 63.8691C35.0698 64.6566 35.3323 65.2603 35.8835 65.7327C36.4347 66.1789 37.0909 66.4152 37.8784 66.4152C38.6658 66.4152 39.4008 66.1002 40.0832 65.549V66.2314H42.1306V60.9293C42.0518 59.9581 41.7369 59.1707 41.1069 58.6457ZM37.4322 63.1079C37.6684 62.9504 38.0096 62.8717 38.4296 62.8717C38.9283 62.8717 39.4533 62.9767 40.0045 63.1604V63.9741C39.5583 64.3941 38.9546 64.6041 38.2196 64.6041C37.8521 64.6041 37.5896 64.5253 37.3797 64.3678C37.1959 64.2103 37.0909 64.0266 37.0909 63.7641C37.0909 63.4754 37.1959 63.2654 37.4322 63.1079Z" fill="#0080FF"/>
<path d="M53.313 66.4413C49.9794 66.4413 47.2759 63.7378 47.2759 60.4043C47.2759 57.0708 49.9794 54.3672 53.313 54.3672C56.6465 54.3672 59.35 57.0708 59.35 60.4043C59.35 63.7378 56.6465 66.4413 53.313 66.4413ZM53.313 56.4933C51.1606 56.4933 49.402 58.2519 49.402 60.4043C49.402 62.5566 51.1606 64.3152 53.313 64.3152C55.4653 64.3152 57.2239 62.5566 57.2239 60.4043C57.2239 58.2519 55.4653 56.4933 53.313 56.4933Z" fill="#0080FF"/>
</svg>
