<svg width="66" height="24" viewBox="0 0 66 24" fill="none" xmlns="http://www.w3.org/2000/svg">
<path d="M7.84634 0H11.3663V16.64C7.99634 17.19 4.76634 17.54 2.45634 16.25C-0.543659 14.59 -0.753659 9.31 1.59634 6.95C2.43554 6.2348 3.43182 5.72796 4.50402 5.47078C5.57622 5.21359 6.69402 5.21332 7.76634 5.47V0.24C7.75634 0.12 7.75634 0 7.84634 0ZM3.61634 11.25C3.61634 13.43 5.20634 14.73 7.75634 14.14V8.37C5.17634 7.58 3.63634 9.17 3.61634 11.25Z" fill="black"/>
<path d="M17.0061 0V3.68H13.5361V0H17.0061Z" fill="black"/>
<path d="M59.4064 5.32022C62.3364 5.00022 64.5364 6.32022 65.4064 8.32022C66.9164 11.7102 65.3264 15.6102 62.9064 16.7602C61.7276 17.2738 60.4331 17.4636 59.1564 17.3102C55.4864 16.9902 53.1564 13.2602 54.4664 9.11022C54.5885 8.66136 54.7701 8.23087 55.0064 7.83022C55.4734 7.07906 56.1203 6.45618 56.8885 6.01792C57.6568 5.57966 58.5222 5.33986 59.4064 5.32022ZM59.2464 14.3202C63.0764 15.8102 63.5064 7.46022 59.6364 8.22022C57.2464 8.69022 57.3164 13.5502 59.2464 14.3002V14.3202Z" fill="black"/>
<path d="M28.0761 16.8002C25.1761 17.0002 20.7561 18.0002 19.1661 16.0002C18.7423 15.3503 18.5166 14.5911 18.5166 13.8152C18.5166 13.0393 18.7423 12.2801 19.1661 11.6302C20.2361 10.2502 22.5961 9.95022 24.7161 9.76022C24.7959 9.50282 24.8229 9.23195 24.7954 8.96388C24.7679 8.6958 24.6865 8.43605 24.5561 8.20022C22.7656 7.90982 20.9293 8.21178 19.3261 9.06022V6.33022C21.3861 5.38022 26.1761 4.38022 27.6061 6.56022C28.3561 7.71022 28.0761 9.70022 28.0761 11.4802V16.8002ZM21.9061 13.0002C20.9061 14.6402 23.3761 15.0002 24.9061 14.5602V12.1202C23.7361 12.2902 22.3661 12.2102 21.9061 13.0002Z" fill="black"/>
<path d="M40.4162 16.9998H36.9062V12.4298C36.9062 10.9398 37.1462 9.03979 36.3562 8.42979C35.7362 7.95979 34.2762 8.19979 33.3562 8.42979V16.9998H29.8662V6.09979C33.4562 5.16979 39.9462 4.15979 40.4162 8.67979C40.6562 10.8998 40.2562 14.2398 40.4162 16.9998Z" fill="black"/>
<path d="M54.4866 5.77998C54.1487 6.66267 53.758 7.52422 53.3166 8.35998C52.9466 8.43998 52.6466 8.21998 52.4566 8.35998C52.3766 12.17 53.2666 17.36 51.7466 20.08C50.8366 21.74 49.1566 22.8 46.5866 22.97C44.9895 23.0959 43.3848 22.853 41.8966 22.26V19C43.5066 19.94 47.5566 20.7 48.6866 18.77C48.9602 18.1363 49.1193 17.4592 49.1566 16.77C48.4266 16.77 47.7066 17.15 46.8066 17.16C43.1266 17.16 40.8066 14.27 41.7266 10.16C41.8767 9.42281 42.1758 8.72409 42.6057 8.10674C43.0357 7.48939 43.5872 6.96643 44.2266 6.56998C46.8166 4.99998 50.7566 5.11998 54.4866 5.77998ZM45.6666 13.21C46.084 13.7126 46.6608 14.0571 47.3013 14.1863C47.9417 14.3154 48.607 14.2215 49.1866 13.92C49.1132 12.0933 49.0899 10.22 49.1166 8.29998C46.0566 7.47998 44.2466 10.92 45.6566 13.21H45.6666Z" fill="black"/>
<path d="M17.0663 5.53002V13.12C16.9163 16.21 16.9463 18.68 15.8163 20.12C15.4884 20.4936 15.1194 20.829 14.7163 21.12C14.3308 21.4679 13.8782 21.7334 13.3863 21.9C12.7808 21.7506 12.201 21.5113 11.6663 21.19C11.1302 20.9094 10.5756 20.6655 10.0063 20.46C11.3463 19.63 12.6063 19.01 13.1363 17.33C13.5111 15.4817 13.6422 13.5923 13.5263 11.71C13.5263 9.71002 13.5263 7.32002 13.5263 5.52002L17.0663 5.53002Z" fill="black"/>
</svg>
