<svg width="80" height="45" viewBox="0 0 80 45" fill="none" xmlns="http://www.w3.org/2000/svg">
<path d="M45.8839 14.2118H53.0021V21.4691H56.6021C58.2716 21.4595 59.9288 21.1833 61.5112 20.6509C62.3427 20.3677 63.1454 20.0061 63.9084 19.5709C62.949 18.2217 62.3826 16.6328 62.2721 14.9809C62.0757 12.7636 62.5257 9.87545 64.023 8.14091L64.7757 7.27364L65.6594 7.98545C67.9094 9.78545 69.7912 12.2973 70.1266 15.1773C72.8696 14.3364 75.8337 14.6128 78.3739 15.9464L79.3557 16.5109L78.8403 17.5091C76.8275 21.4364 72.6057 22.6555 68.4903 22.4182C62.3294 37.7427 48.9357 45 32.6703 45C24.2757 45 16.5603 41.8745 12.2157 34.4127L12.1503 34.2982L11.4548 32.9973C10.0103 29.716 9.44625 26.1149 9.81845 22.5491L9.91663 21.4691H15.9957V14.2118H23.1139V7.11H37.3503V0H45.8839V14.2118Z" fill="#394D54"/>
<path d="M68.9317 16.8873C69.4145 13.1891 66.6326 10.2764 64.9145 8.90186C62.9345 11.2009 62.6317 17.19 65.7326 19.7182C63.9981 21.2646 60.3326 22.6473 56.6017 22.6473H10.9963C10.6006 26.2837 11.2536 29.9573 12.8781 33.2346L13.3935 34.1837C13.7219 34.7494 14.0825 35.2957 14.4735 35.82C16.339 35.9346 18.0735 35.9837 19.6526 35.9509C22.2163 35.9701 24.768 35.6004 27.2208 34.8546C27.2895 34.8257 27.3634 34.8111 27.4379 34.8117C27.5125 34.8123 27.5861 34.8281 27.6543 34.8581C27.7226 34.8881 27.784 34.9318 27.8347 34.9863C27.8855 35.0409 27.9247 35.1053 27.9497 35.1755C27.9748 35.2457 27.9853 35.3202 27.9806 35.3946C27.9758 35.469 27.956 35.5417 27.9222 35.6081C27.8884 35.6746 27.8415 35.7335 27.7842 35.7811C27.7269 35.8288 27.6605 35.8643 27.589 35.8855L26.7708 36.1391C25.0636 36.6036 23.3102 36.878 21.5426 36.9573C21.6572 36.9573 21.4117 36.9573 21.4117 36.9573H21.1745C20.3563 37.0064 19.4563 37.0064 18.5563 37.0064C17.6563 37.0064 16.5926 37.0064 15.4881 36.9409C19.2845 41.2037 25.2163 43.7646 32.6699 43.7646C48.4363 43.7646 61.7972 36.7937 67.7126 21.1337C71.9099 21.5673 75.9436 20.5037 77.7763 16.92C74.8635 15.2755 71.0999 15.8073 68.9317 16.8873Z" fill="#00AADA"/>
<path d="M68.9317 16.8878C69.4144 13.1896 66.6326 10.2769 64.9144 8.90234C62.9344 11.2014 62.6317 17.1905 65.7326 19.7187C63.998 21.2651 60.3326 22.6478 56.6017 22.6478H13.6962C13.5162 28.6369 15.7335 33.1696 19.6362 35.9105C22.1998 35.9297 24.7516 35.56 27.2044 34.8142C27.2731 34.7852 27.347 34.7706 27.4215 34.7712C27.4961 34.7719 27.5697 34.7877 27.6379 34.8177C27.7061 34.8477 27.7675 34.8914 27.8183 34.9459C27.8691 35.0005 27.9082 35.0648 27.9333 35.135C27.9584 35.2052 27.9689 35.2798 27.9641 35.3542C27.9594 35.4286 27.9395 35.5012 27.9058 35.5677C27.872 35.6342 27.8251 35.693 27.7678 35.7407C27.7105 35.7884 27.6441 35.8239 27.5726 35.8451L26.7544 36.0987C25.0039 36.5928 23.2036 36.8892 21.3871 36.9823L21.338 36.9333C26.7053 39.6823 34.4862 39.6823 43.4289 36.2542C53.4271 32.4251 62.7217 25.1023 69.2262 16.7487C69.1329 16.8048 69.0342 16.8513 68.9317 16.8878Z" fill="#24B8EB"/>
<path d="M11.0942 27.4102C11.3663 29.4437 11.9746 31.4179 12.8942 33.252L13.4097 34.2011C13.738 34.7668 14.0986 35.3131 14.4897 35.8374C16.3715 35.952 18.0897 36.0011 19.6688 35.9683C22.2324 35.9875 24.7841 35.6178 27.237 34.872C27.3057 34.8431 27.3796 34.8285 27.4541 34.8291C27.5286 34.8297 27.6023 34.8455 27.6705 34.8755C27.7387 34.9055 27.8001 34.9492 27.8509 35.0037C27.9017 35.0583 27.9408 35.1227 27.9659 35.1929C27.9909 35.2631 28.0014 35.3376 27.9967 35.412C27.992 35.4864 27.9721 35.5591 27.9384 35.6255C27.9046 35.692 27.8576 35.7509 27.8003 35.7985C27.743 35.8462 27.6766 35.8817 27.6051 35.9029L26.787 36.1565C25.0343 36.6378 23.2348 36.9285 21.4197 37.0238C21.3299 37.0153 21.2395 37.0153 21.1497 37.0238C20.3315 37.0729 19.4479 37.0892 18.5315 37.0892C17.6151 37.0892 16.5188 37.0892 15.4306 37.0238C19.227 41.2865 25.2488 43.8474 32.6615 43.8474C46.1615 43.8474 57.8861 38.742 64.7015 27.4347H11.0942V27.4102Z" fill="#008BB8"/>
<path d="M14.1133 27.4102C14.8 30.8605 16.7933 33.9121 19.6769 35.9274C22.2406 35.9466 24.7923 35.5769 27.2451 34.8311C27.3138 34.8021 27.3877 34.7875 27.4622 34.7882C27.5368 34.7888 27.6104 34.8046 27.6786 34.8346C27.7469 34.8646 27.8082 34.9083 27.859 34.9628C27.9098 35.0174 27.9489 35.0817 27.974 35.1519C27.9991 35.2221 28.0096 35.2967 28.0048 35.3711C28.0001 35.4455 27.9803 35.5182 27.9465 35.5846C27.9127 35.6511 27.8658 35.7099 27.8085 35.7576C27.7512 35.8053 27.6848 35.8408 27.6133 35.862L26.7951 36.1156C25.0312 36.5966 23.2209 36.8874 21.3951 36.9829C26.7624 39.732 34.486 39.6992 43.4206 36.2711C48.9313 34.1124 54.0798 31.1243 58.6878 27.4102H14.1133Z" fill="#039BC6"/>
<path d="M22.3612 15.9066H22.8439V21.0284H22.3612V15.9066ZM21.4285 15.9066H21.9276V21.0284H21.4285V15.9066ZM20.4958 15.9066H20.9949V21.0284H20.4958V15.9066ZM19.563 15.9066H20.0621V21.0284H19.563V15.9066ZM18.6303 15.9066H19.1294V21.0284H18.6303V15.9066ZM17.7139 15.9066H18.1967V21.0284H17.7139V15.9066ZM17.1821 15.3911H23.3512V21.552H17.1821V15.3911Z" fill="#00ACD3"/>
<path d="M29.4547 8.80501H29.9374V13.9105H29.4547V8.80501ZM28.522 8.80501H29.0211V13.9105H28.522V8.80501ZM27.5893 8.80501H28.0884V13.9105H27.5893V8.80501ZM26.6565 8.80501H27.1556V13.9105H26.6729L26.6565 8.80501ZM25.7238 8.80501H26.2229V13.9105H25.7238V8.80501ZM24.8074 8.80501H25.2902V13.9105H24.8074V8.80501ZM24.292 8.28955H30.4611V14.4505H24.3084L24.292 8.28955Z" fill="#00ACD3"/>
<path d="M29.4547 15.9066H29.9374V21.0284H29.4547V15.9066ZM28.522 15.9066H29.0211V21.0284H28.522V15.9066ZM27.5893 15.9066H28.0884V21.0284H27.5893V15.9066ZM26.6565 15.9066H27.1556V21.0284H26.6729L26.6565 15.9066ZM25.7238 15.9066H26.2229V21.0284H25.7238V15.9066ZM24.8074 15.9066H25.2902V21.0284H24.8074V15.9066ZM24.292 15.3911H30.4611V21.552H24.3084L24.292 15.3911Z" fill="#20C2EF"/>
<path d="M36.5895 15.9066H37.0722V21.0284H36.5895V15.9066ZM35.6568 15.9066H36.1558V21.0284H35.6568V15.9066ZM34.724 15.9066H35.2231V21.0284H34.724V15.9066ZM33.7913 15.9066H34.2904V21.0284H33.7913V15.9066ZM32.8422 15.9066H33.3413V21.0284H32.8422V15.9066ZM31.9422 15.9066H32.4249V21.0284H31.9095L31.9422 15.9066ZM31.4268 15.3911H37.5958V21.552H31.4268V15.3911Z" fill="#00ACD3"/>
<path d="M36.5895 8.80501H37.0722V13.9105H36.5895V8.80501ZM35.6568 8.80501H36.1558V13.9105H35.6568V8.80501ZM34.724 8.80501H35.2231V13.9105H34.724V8.80501ZM33.7913 8.80501H34.2904V13.9105H33.7913V8.80501ZM32.8422 8.80501H33.3413V13.9105H32.8422V8.80501ZM31.9422 8.80501H32.4249V13.9105H31.9095L31.9422 8.80501ZM31.4268 8.28955H37.5958V14.4505H31.4268V8.28955Z" fill="#20C2EF"/>
<path d="M43.6998 15.9066H44.1826V21.0284H43.6998V15.9066ZM42.7671 15.9066H43.2662V21.0284H42.7671V15.9066ZM41.8344 15.9066H42.3335V21.0284H41.8344V15.9066ZM40.8853 15.9066H41.3844V21.0284H40.9098L40.8853 15.9066ZM39.9526 15.9066H40.4517V21.0284H39.9526V15.9066ZM39.0526 15.9066H39.5353V21.0284H39.0526V15.9066ZM38.5371 15.3911H44.7062V21.552H38.5371V15.3911Z" fill="#20C2EF"/>
<path d="M43.6998 8.80501H44.1826V13.9105H43.6998V8.80501ZM42.7671 8.80501H43.2662V13.9105H42.7671V8.80501ZM41.8344 8.80501H42.3335V13.9105H41.8344V8.80501ZM40.8853 8.80501H41.3844V13.9105H40.9098L40.8853 8.80501ZM39.9526 8.80501H40.4517V13.9105H39.9526V8.80501ZM39.0526 8.80501H39.5353V13.9105H39.0526V8.80501ZM38.5371 8.28955H44.7062V14.4505H38.5371V8.28955Z" fill="#00ACD3"/>
<path d="M43.6998 1.69417H44.1826V6.82417H43.6998V1.69417ZM42.7671 1.69417H43.2662V6.82417H42.7671V1.69417ZM41.8344 1.69417H42.3335V6.82417H41.8344V1.69417ZM40.9098 1.69417H41.4089V6.82417H40.9098V1.69417ZM39.9771 1.69417H40.4762V6.82417H39.9771V1.69417ZM39.0771 1.69417H39.5598V6.82417H39.0771V1.69417ZM38.5617 1.17871H44.7307V7.36417H38.5371L38.5617 1.17871Z" fill="#20C2EF"/>
<path d="M50.8175 15.9066H51.3002V21.0284H50.8175V15.9066ZM49.8848 15.9066H50.3839V21.0284H49.9093L49.8848 15.9066ZM48.9357 15.9066H49.4348V21.0284H48.9357V15.9066ZM48.003 15.9066H48.5021V21.0284H48.003V15.9066ZM47.0702 15.9066H47.5693V21.0284H47.0702V15.9066ZM46.1539 15.9066H46.6366V21.0284H46.1539V15.9066ZM45.6548 15.3911H51.8239V21.552H45.6548V15.3911Z" fill="#00ACD3"/>
<path d="M30.0929 31.5332C30.4275 31.5348 30.7542 31.6355 31.0316 31.8226C31.3091 32.0097 31.5249 32.2748 31.6518 32.5844C31.7787 32.894 31.8111 33.2342 31.7448 33.5622C31.6786 33.8902 31.5166 34.1912 31.2794 34.4273C31.0423 34.6633 30.7405 34.8238 30.4122 34.8885C30.0839 34.9532 29.7437 34.9192 29.4347 34.7908C29.1258 34.6623 28.8617 34.4453 28.676 34.1669C28.4902 33.8886 28.3911 33.5615 28.3911 33.2268C28.3933 32.7769 28.5735 32.3461 28.8924 32.0288C29.2114 31.7114 29.643 31.5332 30.0929 31.5332Z" fill="#D4EDF1"/>
<path d="M30.0931 32.0156C30.2413 32.017 30.3882 32.0447 30.5267 32.0974C30.4305 32.1522 30.3553 32.2374 30.3128 32.3396C30.2704 32.4418 30.2631 32.5553 30.2921 32.6621C30.3212 32.7689 30.3849 32.863 30.4733 32.9296C30.5617 32.9963 30.6697 33.0316 30.7804 33.0302C30.8707 33.0302 30.9592 33.005 31.0358 32.9572C31.1125 32.9095 31.1742 32.8412 31.214 32.7602C31.28 32.9067 31.3135 33.0658 31.3122 33.2265C31.3138 33.468 31.2437 33.7045 31.1107 33.906C30.9777 34.1076 30.7879 34.2651 30.5653 34.3586C30.3427 34.4522 30.0973 34.4775 29.8603 34.4314C29.6233 34.3853 29.4053 34.2698 29.234 34.0996C29.0627 33.9295 28.9458 33.7123 28.8981 33.4756C28.8503 33.2389 28.874 32.9933 28.966 32.7701C29.0581 32.5469 29.2143 32.356 29.415 32.2217C29.6156 32.0873 29.8516 32.0156 30.0931 32.0156Z" fill="#394D54"/>
<path d="M0 28.0154H79.1264C77.4082 27.5818 73.6773 26.9845 74.2909 24.7427C71.1573 28.3672 63.6136 27.2872 61.6909 25.4954C59.5718 28.5718 47.2091 27.4099 46.3418 25.0127C43.6745 28.1218 35.4273 28.1218 32.76 25.0127C31.8927 27.4099 19.53 28.5718 17.4109 25.4954C15.5127 27.279 7.94455 28.359 4.81091 24.7427C5.44909 27.0009 1.71818 27.5818 0 28.0154Z" fill="#394D54"/>
<path d="M34.6009 43.7893C30.3872 41.7929 28.0554 39.0766 26.7872 36.1147C24.947 36.5955 23.059 36.8699 21.1581 36.9329C20.3399 36.982 19.4727 36.9984 18.5563 36.9984C17.509 36.9984 16.4045 36.9984 15.2427 36.9002C19.1045 40.762 23.8581 43.7238 32.6536 43.7729C33.3245 43.822 33.9545 43.8057 34.6009 43.7893Z" fill="#BFDBE0"/>
<path d="M28.3578 38.8475C27.7397 37.9957 27.2157 37.0795 26.7951 36.1147C24.9549 36.5955 23.0669 36.8699 21.166 36.9329C23.4037 38.0651 25.8534 38.7173 28.3578 38.8475Z" fill="#D4EDF1"/>
</svg>
