<svg width="60" height="60" viewBox="0 0 60 60" fill="none" xmlns="http://www.w3.org/2000/svg">
<path d="M60 0H0V60H60V0Z" fill="#F26522"/>
<path d="M24.73 37.5H33.92V35H27.57V31.13H33.43V28.62H27.57V25H33.92V22.5H24.73V37.5ZM46.18 33.42C46.18 30.42 45.97 29.79 41.96 28.8C39.38 28.17 39.33 28.12 39.33 26.41C39.33 25.1 39.66 24.7 41.58 24.7C42.9248 24.719 44.2646 24.8697 45.58 25.15L45.88 22.76C44.4477 22.4453 42.9864 22.2811 41.52 22.27C37.72 22.27 36.52 23.63 36.52 26.35C36.52 29.51 37.01 30.22 40.65 31.04C43.35 31.63 43.39 31.77 43.39 33.43C43.39 34.86 43.06 35.31 41 35.31C39.5661 35.291 38.1433 35.055 36.78 34.61L36.29 36.84C37.7831 37.43 39.3745 37.732 40.98 37.73C45.33 37.72 46.18 36.26 46.18 33.43V33.42ZM51.41 27.84C51.41 25.54 52.51 25.1 55.16 25.1C55.868 25.1092 56.574 25.1795 57.27 25.31L57.46 23.01C56.6119 22.8281 55.7473 22.7342 54.88 22.73C50.78 22.73 48.67 24 48.67 27.96V33.42C48.67 36 49.44 37.71 53.31 37.71C56.85 37.71 57.93 35.95 57.93 33.61V32.54C57.93 29.96 56.83 28.84 54.11 28.84C53.2045 28.8326 52.3035 28.9676 51.44 29.24V27.85L51.41 27.84ZM53.66 31.19C54.66 31.19 55.16 31.52 55.16 32.6V33.7C55.16 34.85 54.71 35.34 53.29 35.34C51.87 35.34 51.39 34.94 51.39 33.7V31.7C52.1062 31.3959 52.8723 31.2264 53.65 31.2L53.66 31.19Z" fill="white"/>
</svg>
