<svg width="62" height="61" viewBox="0 0 62 61" fill="none" xmlns="http://www.w3.org/2000/svg">
<path d="M30.79 0C15 0 16 6.75 16 6.75V13.75H31V15.86H10C10 15.86 0 14.72 0 30.42C0 46.12 8.79 45.56 8.79 45.56H14V38.26C14 38.26 13.71 29.57 22.65 29.57H37.59C37.59 29.57 45.97 29.71 45.97 21.57V8.14C45.97 8.14 47.23 0 30.79 0ZM22.51 4.71C23.0343 4.71789 23.5446 4.88057 23.9768 5.17761C24.4089 5.47464 24.7436 5.89278 24.9388 6.37947C25.134 6.86617 25.181 7.3997 25.0739 7.91303C24.9668 8.42635 24.7104 8.89657 24.3368 9.26459C23.9633 9.6326 23.4893 9.882 22.9744 9.98144C22.4595 10.0809 21.9268 10.0259 21.443 9.82346C20.9593 9.62101 20.5462 9.2801 20.2557 8.84358C19.9651 8.40705 19.8101 7.89438 19.81 7.37C19.8113 7.01767 19.8823 6.66909 20.019 6.34434C20.1556 6.01958 20.3552 5.72509 20.6061 5.47782C20.8571 5.23055 21.1546 5.0354 21.4813 4.90362C21.8081 4.77184 22.1577 4.70604 22.51 4.71Z" fill="url(#paint0_linear)"/>
<path d="M31.2299 60.9999C46.9999 60.9999 45.9999 54.2599 45.9999 54.2599V47.2599H30.9999V45.1799H51.9999C51.9999 45.1799 61.9999 46.3099 61.9999 30.6099C61.9999 14.9099 53.1999 15.4599 53.1999 15.4599H47.9999V22.7599C47.9999 22.7599 48.2899 31.4499 39.3499 31.4499H24.3999C24.3999 31.4499 16.0199 31.3099 16.0199 39.4499V52.8899C16.0199 52.8899 14.7899 60.9999 31.2299 60.9999ZM39.5099 56.2899C38.9855 56.282 38.4752 56.1193 38.0431 55.8223C37.611 55.5252 37.2763 55.1071 37.081 54.6204C36.8858 54.1337 36.8388 53.6002 36.9459 53.0869C37.053 52.5735 37.3095 52.1033 37.683 51.7353C38.0566 51.3673 38.5306 51.1179 39.0455 51.0184C39.5603 50.919 40.0931 50.974 40.5768 51.1764C41.0605 51.3789 41.4736 51.7198 41.7642 52.1563C42.0548 52.5928 42.2098 53.1055 42.2099 53.6299C42.2099 53.983 42.1398 54.3327 42.0038 54.6586C41.8677 54.9845 41.6684 55.2802 41.4173 55.5285C41.1661 55.7769 40.8683 55.9729 40.5408 56.1053C40.2134 56.2377 39.863 56.3038 39.5099 56.2999V56.2899Z" fill="url(#paint1_linear)"/>
<defs>
<linearGradient id="paint0_linear" x1="6.4254" y1="4.1032" x2="36.8152" y2="34.533" gradientUnits="userSpaceOnUse">
<stop stop-color="#387EB8"/>
<stop offset="1" stop-color="#366994"/>
</linearGradient>
<linearGradient id="paint1_linear" x1="22.6465" y1="19.4265" x2="55.2834" y2="50.6527" gradientUnits="userSpaceOnUse">
<stop stop-color="#FFE052"/>
<stop offset="1" stop-color="#FFC331"/>
</linearGradient>
</defs>
</svg>
