<svg width="65" height="59" viewBox="0 0 65 59" fill="none" xmlns="http://www.w3.org/2000/svg">
<path d="M53.44 18.8787C52.75 18.6387 52.05 18.4187 51.35 18.2187C51.47 17.7387 51.57 17.2187 51.67 16.7887C53.25 9.07866 52.22 2.86866 48.67 0.78866C45.12 -1.29134 39.73 0.868659 34.13 5.78866C33.58 6.26866 33.04 6.78866 32.51 7.27866C32.16 6.93866 31.8 6.60866 31.43 6.27866C25.58 1.07866 19.7 -1.15134 16.17 0.89866C12.64 2.94866 11.78 8.70866 13.17 16.0087C13.31 16.7287 13.47 17.4487 13.65 18.1687C12.82 18.4087 12.01 18.6587 11.24 18.9287C4.4 21.3387 0 25.0787 0 29.0187C0 32.9587 4.72 37.0787 11.89 39.5687C12.47 39.7687 13.0567 39.952 13.65 40.1187C13.4567 40.892 13.2867 41.6687 13.14 42.4487C11.78 49.6287 12.84 55.3287 16.22 57.2887C19.6 59.2487 25.57 57.2287 31.27 52.2387C31.72 51.8387 32.17 51.4187 32.63 50.9887C33.2033 51.542 33.79 52.0787 34.39 52.5987C39.91 57.3687 45.39 59.2887 48.75 57.3287C52.11 55.3687 53.37 49.1787 51.9 41.7287C51.79 41.1587 51.66 40.5787 51.51 39.9887L52.72 39.6087C60.15 37.0787 65 33.0787 65 29.0287C65 25.0787 60.46 21.2987 53.44 18.8787ZM36 7.88866C40.77 3.69866 45.26 2.07866 47.3 3.22866C49.34 4.37866 50.3 9.56866 48.96 16.2287C48.87 16.6587 48.77 17.0987 48.67 17.5287C45.8137 16.8751 42.9174 16.4107 40 16.1387C38.3257 13.7253 36.4916 11.4268 34.51 9.25866C34.9767 8.79199 35.4733 8.33533 36 7.88866ZM19.19 32.3587C19.7833 33.5053 20.3867 34.632 21 35.7387C21.6133 36.8453 22.28 37.962 23 39.0887C20.9842 38.8581 18.9816 38.5244 17 38.0887C17.66 36.2587 18.37 34.3287 19.19 32.3587ZM19.19 25.8087C18.38 23.8887 17.69 21.9987 17.13 20.1687C18.99 19.7487 20.96 19.4087 23.02 19.1687C22.3533 20.2487 21.6867 21.3453 21.02 22.4587C20.3533 23.572 19.7433 24.6887 19.19 25.8087ZM20.67 29.0787C21.5233 27.292 22.4467 25.5387 23.44 23.8187C24.4333 22.0987 25.4833 20.432 26.59 18.8187C28.52 18.6687 30.51 18.5987 32.51 18.5987C34.51 18.5987 36.51 18.6787 38.44 18.8187C39.54 20.452 40.5833 22.1187 41.57 23.8187C42.5567 25.5187 43.4867 27.272 44.36 29.0787C43.4933 30.872 42.5633 32.632 41.57 34.3587C40.5767 36.0853 39.5367 37.752 38.45 39.3587C36.52 39.4987 34.53 39.5687 32.45 39.5687C30.37 39.5687 28.45 39.5087 26.56 39.3787C25.44 37.7387 24.38 36.0553 23.38 34.3287C22.38 32.602 21.4767 30.852 20.67 29.0787ZM44 35.7187C44.6667 34.5787 45.2967 33.4287 45.89 32.2687C46.692 34.1409 47.3963 36.0534 48 37.9987C46.0201 38.4624 44.0174 38.8229 42 39.0787C42.6667 37.952 43.3333 36.832 44 35.7187ZM45.86 25.8187C45.24 24.6587 44.62 23.5287 44 22.4287C43.38 21.3287 42.7133 20.242 42 19.1687C44.07 19.4287 46.06 19.7787 47.93 20.1687C47.3254 22.0861 46.6245 23.9718 45.83 25.8187H45.86ZM32.53 11.2587C33.8812 12.7361 35.1562 14.2814 36.35 15.8887C33.79 15.7687 31.23 15.7687 28.67 15.8887C29.94 14.2187 31.23 12.6587 32.53 11.2587ZM17.53 3.31866C19.7 2.05866 24.53 3.85866 29.58 8.36866C29.9067 8.65533 30.24 8.95533 30.58 9.26866C28.5705 11.4331 26.7064 13.7281 25 16.1387C22.0838 16.4 19.1876 16.851 16.33 17.4887C16.1633 16.822 16.0133 16.1553 15.88 15.4887C14.71 9.21866 15.52 4.49866 17.56 3.30866L17.53 3.31866ZM14.39 37.4387C13.85 37.2853 13.3133 37.1153 12.78 36.9287C10.0302 36.0696 7.4611 34.7138 5.2 32.9287C3.59 31.5387 2.77 30.1687 2.77 29.0487C2.77 26.6787 6.3 23.6487 12.18 21.5887C12.92 21.3287 13.6667 21.092 14.42 20.8787C15.296 23.6784 16.355 26.4177 17.59 29.0787C16.3441 31.7934 15.2752 34.5859 14.39 37.4387ZM29.44 50.1287C27.3147 52.0862 24.8468 53.6354 22.16 54.6987C20.16 55.4087 18.57 55.4287 17.6 54.8687C15.55 53.6887 14.7 49.1087 15.86 42.9587C16 42.232 16.1567 41.5087 16.33 40.7887C19.2204 41.4186 22.1506 41.8496 25.1 42.0787C26.8064 44.5019 28.6704 46.8102 30.68 48.9887C30.2733 49.382 29.86 49.762 29.44 50.1287ZM32.61 46.9787C31.29 45.5587 29.98 43.9787 28.7 42.2887C29.94 42.342 31.2067 42.3653 32.5 42.3587C33.7933 42.352 35.1 42.322 36.42 42.2687C35.2319 43.9064 33.9602 45.4818 32.61 46.9887V46.9787ZM49.47 50.8487C49.08 52.9387 48.3 54.3387 47.34 54.8487C45.34 56.0387 40.91 54.4887 36.19 50.4187C35.65 49.952 35.1033 49.4553 34.55 48.9287C36.5173 46.7694 38.3381 44.4809 40 42.0787C42.9612 41.829 45.9016 41.3746 48.8 40.7187C48.9333 41.2587 49.05 41.7853 49.15 42.2987C49.7764 45.1088 49.8848 48.0096 49.47 50.8587V50.8487ZM51.83 36.9387L50.74 37.2787C49.8263 34.474 48.7238 31.7344 47.44 29.0787C48.6729 26.4385 49.7286 23.7192 50.6 20.9387C51.2667 21.132 51.91 21.3353 52.53 21.5487C58.53 23.6287 62.21 26.6987 62.21 29.0587C62.22 31.5387 58.26 34.8187 51.83 36.9487V36.9387Z" fill="#53C1DE"/>
<path d="M32.5002 23.1988C33.6521 23.1948 34.7793 23.5328 35.7391 24.1699C36.6988 24.807 37.4478 25.7145 37.8914 26.7777C38.335 27.8408 38.4531 29.0116 38.2308 30.1419C38.0085 31.2722 37.4558 32.3111 36.6426 33.127C35.8295 33.9429 34.7925 34.4992 33.663 34.7254C32.5335 34.9516 31.3623 34.8375 30.2976 34.3976C29.233 33.9577 28.3229 33.2118 27.6825 32.2543C27.0421 31.2967 26.7002 30.1707 26.7002 29.0188C26.6989 28.2558 26.8479 27.5 27.1386 26.7946C27.4294 26.0892 27.8563 25.448 28.3948 24.9075C28.9334 24.3671 29.5732 23.938 30.2776 23.6448C30.982 23.3517 31.7372 23.2001 32.5002 23.1988Z" fill="#53C1DE"/>
</svg>
