<svg width="45" height="60" viewBox="0 0 45 60" fill="none" xmlns="http://www.w3.org/2000/svg">
<path d="M9.69237 3.59277C7.53821 3.59277 5.79395 5.35068 5.79395 7.52981C5.79395 9.70352 7.53821 11.4676 9.69237 11.4676C11.8483 11.4676 13.5908 9.70352 13.5908 7.52981C13.5908 5.35068 11.8483 3.59277 9.69237 3.59277Z" fill="#264970"/>
<path d="M35.3051 3.59277C33.1498 3.59277 31.4077 5.35068 31.4077 7.52981C31.4077 9.70352 33.1498 11.4676 35.3051 11.4676C37.4542 11.4676 39.2028 9.70352 39.2028 7.52981C39.2028 5.35068 37.4542 3.59567 35.3051 3.59277Z" fill="#264970"/>
<path d="M22.4985 0C20.3444 0 18.6001 1.75755 18.6001 3.9374C18.6001 6.11111 20.3444 7.87553 22.4985 7.87553C24.6541 7.87553 26.3962 6.11111 26.3962 3.9374C26.3962 1.75755 24.6541 0 22.4985 0Z" fill="#264970"/>
<path d="M44.5208 14.5631C44.3037 14.3967 44.0432 14.3103 43.7787 14.3103C43.6318 14.3103 43.4835 14.3374 43.343 14.392C40.7034 15.4106 38.0228 16.1839 35.5763 16.7592C35.0772 16.8767 34.6741 17.2505 34.5071 17.6996C32.7245 22.6266 28.1729 27.3182 23.3973 32.2322C23.2056 32.4159 22.9372 32.6581 22.5001 32.6581C22.064 32.6581 21.7981 32.4235 21.6029 32.2322C16.828 27.3182 12.2764 22.6429 10.4931 17.7155C10.3257 17.2668 9.92263 16.893 9.42457 16.7751C6.97659 16.1998 4.28925 15.4026 1.6528 14.3841C1.51163 14.3299 1.36328 14.3027 1.21602 14.3027C0.951585 14.3027 0.695751 14.3866 0.479331 14.5533C0.141085 14.8136 -0.0344878 15.2359 0.00564309 15.6416C0.409818 19.7388 2.01434 23.7442 4.90985 27.9415C7.63158 31.8876 11.1817 35.5405 14.614 39.0726C20.9382 45.5818 26.9123 51.7294 27.4365 58.8583C27.4838 59.5011 28.0148 59.9997 28.6551 59.9997H36.0851C36.4197 59.9997 36.7394 59.8609 36.9705 59.6161C37.2005 59.3717 37.3223 59.0434 37.3055 58.7057C37.0719 53.9396 35.2943 49.1666 31.8713 44.1156C31.154 43.0566 30.3858 42.0262 29.5825 41.0178C29.256 40.607 29.3925 40.0969 29.6423 39.8394C29.8892 39.5845 30.1371 39.3304 30.3865 39.0726C33.8191 35.5401 37.3686 31.8876 40.091 27.9415C42.9862 23.7438 44.59 19.7619 44.9945 15.6655C45.035 15.2536 44.8497 14.8169 44.5208 14.5631Z" fill="#264970"/>
<path d="M14.5269 44.6181C14.3514 44.4326 14.093 44.2432 13.6595 44.2432C13.1048 44.2432 12.7759 44.63 12.6515 44.8217C9.52633 49.6207 7.91214 54.1499 7.68891 58.7016C7.67279 59.0372 7.79533 59.3705 8.02537 59.6157C8.25648 59.8594 8.58039 60 8.91434 60H16.3317C16.9699 60 17.5074 59.496 17.5543 58.8539C17.7159 56.6603 18.3927 54.4612 19.625 52.1505C20.0521 51.3511 19.7203 50.6001 19.4745 50.2791C18.2519 48.6748 16.7545 46.9636 14.5269 44.6181Z" fill="#264970"/>
<path d="M22.5067 18.2367C24.8354 18.2367 26.1859 18.0957 26.6603 18.0957C27.235 18.0957 27.7843 18.5708 27.7843 19.2361C27.7843 19.4302 27.7388 19.5691 27.6937 19.6916C27.3848 20.5247 25.9773 23.522 23.357 26.0931C23.0632 26.3816 22.73 26.4355 22.5007 26.4355H22.4978C22.2688 26.4355 21.936 26.3816 21.6421 26.0931C19.0218 23.522 17.614 20.5247 17.3059 19.6916C17.2603 19.5691 17.2148 19.4302 17.2148 19.2361C17.2148 18.5708 17.7649 18.0957 18.3396 18.0957C18.814 18.0957 20.1637 18.2367 22.4913 18.2367H22.5067Z" fill="#264970"/>
</svg>
