<svg width="125" height="41" viewBox="0 0 125 41" fill="none" xmlns="http://www.w3.org/2000/svg">
<path fill-rule="evenodd" clip-rule="evenodd" d="M54.488 10.2181H54.5836C54.5973 10.2317 54.6246 10.2454 54.6793 10.2454C55.0619 10.3547 55.3762 10.4777 55.6085 10.6417C55.8408 10.792 56.0322 10.956 56.1688 11.12C56.3055 11.284 56.3874 11.4616 56.4421 11.6393C56.4968 11.8169 56.5378 11.9672 56.5651 12.1175C56.5924 12.3362 56.6881 12.5002 56.8247 12.6368C56.975 12.7735 57.139 12.8281 57.344 12.8281H59.1478C59.3801 12.8281 59.5851 12.7461 59.7491 12.5685C59.8994 12.3908 59.9677 12.1859 59.9541 11.9672C59.8721 10.4914 59.2571 9.27518 58.1093 8.33228C57.262 7.62169 56.1688 7.17074 54.8159 6.9521C54.57 6.9111 54.3513 6.96577 54.1737 7.11608C53.9687 7.28006 53.8731 7.49871 53.8731 7.74468V9.4255C53.8731 9.63047 53.9277 9.79446 54.0507 9.94477C54.1464 10.0678 54.2967 10.1771 54.488 10.2181ZM58.3416 15.4245C57.8086 15.0692 57.1664 14.7686 56.4558 14.5226C56.2235 14.4406 55.9775 14.3723 55.7315 14.2903C55.4719 14.2083 55.1986 14.14 54.8843 14.058L54.7476 14.017C54.6656 14.0033 54.57 13.976 54.447 13.9487C54.1054 13.8667 53.7774 13.7847 53.4494 13.7027C53.1215 13.6207 52.8072 13.5387 52.4792 13.4567C52.3699 13.4294 52.2742 13.4021 52.1649 13.3747C52.0693 13.3474 51.9599 13.3201 51.8506 13.2927C51.6866 13.2381 51.509 13.1698 51.345 13.1151C51.181 13.0604 51.017 13.0058 50.8804 12.9374C50.4704 12.7735 50.1561 12.5822 49.9375 12.3635C49.8282 12.2542 49.7735 12.1722 49.7462 12.1039C49.7325 12.0492 49.7188 11.9945 49.7188 11.9672C49.7188 11.7486 49.7598 11.5026 49.8282 11.2566C49.8282 11.243 49.8418 11.2293 49.8418 11.202C49.9238 11.038 50.0331 10.8877 50.1971 10.7374C50.4021 10.5734 50.7164 10.3957 51.1674 10.2317C51.2493 10.2044 51.3313 10.1771 51.427 10.1634C51.5226 10.1497 51.632 10.1361 51.755 10.1224C51.9599 10.0951 52.1102 9.99943 52.2332 9.84912C52.3562 9.6988 52.4245 9.52115 52.4245 9.31617V7.66269C52.4245 7.43038 52.3426 7.23907 52.1649 7.06142C51.9736 6.89744 51.7686 6.82911 51.5226 6.85644C50.0741 7.03409 48.9536 7.47138 48.1473 8.14097C46.9721 9.09753 46.3982 10.3274 46.3982 11.8579C46.3982 12.9648 46.7398 13.853 47.4094 14.5363C47.997 15.1239 48.7349 15.6022 49.6505 15.9848C49.9102 16.0941 50.1971 16.1898 50.4978 16.2991C50.7984 16.3947 51.099 16.4904 51.4133 16.5587C51.5773 16.5997 51.7413 16.6407 51.8916 16.6817C52.0419 16.7227 52.1922 16.75 52.3289 16.791C52.6979 16.873 53.0531 16.955 53.4084 17.0507C53.7637 17.1463 54.1054 17.2283 54.447 17.324L54.5153 17.3513C54.5563 17.365 54.611 17.3786 54.652 17.3923C54.693 17.406 54.7476 17.4196 54.8159 17.4333C55.5265 17.6519 56.1005 17.9116 56.5514 18.2122C56.8247 18.3898 56.9614 18.6632 56.9614 18.9911C56.9614 19.1141 56.9477 19.2644 56.9204 19.4557C56.8931 19.6334 56.8111 19.8247 56.6607 20.0023C56.5104 20.18 56.2645 20.3576 55.9502 20.5216C55.6222 20.6856 55.1712 20.7949 54.57 20.8496C54.365 20.8769 54.201 20.9726 54.0644 21.1092C53.9277 21.2595 53.8594 21.4372 53.8594 21.6558V23.3093C53.8594 23.5553 53.955 23.7603 54.1327 23.9106C54.2693 24.0472 54.447 24.1156 54.6656 24.1156H54.7613C55.4992 24.0336 56.1688 23.8969 56.7837 23.7056C57.385 23.5006 57.9316 23.241 58.3826 22.8994C59.7081 21.9838 60.364 20.6446 60.364 18.9091C60.364 18.1712 60.1864 17.5016 59.8447 16.9003C59.5031 16.3401 58.9975 15.8345 58.3416 15.4245ZM51.7823 20.7949C51.5363 20.7403 51.304 20.6719 51.099 20.6036C50.8941 20.5353 50.6891 20.4396 50.5114 20.344C49.8008 19.934 49.4319 19.3327 49.3772 18.5675C49.3635 18.3489 49.2816 18.1712 49.1176 18.0209C48.9673 17.8706 48.7759 17.8022 48.5573 17.8022H46.7398C46.4939 17.8022 46.2889 17.8979 46.1386 18.0755C45.9746 18.2395 45.9063 18.4582 45.9336 18.7041C46.0839 20.4123 46.7672 21.7378 47.9697 22.6944C48.8853 23.4186 50.0605 23.8832 51.4817 24.1019C51.4953 24.1019 51.509 24.1019 51.5226 24.1019H51.7686C51.7959 24.1019 51.8369 24.1019 51.8643 24.0882C52.2332 23.9379 52.4245 23.6783 52.4245 23.2956V21.5875C52.4245 21.4099 52.3699 21.2322 52.2469 21.0819C52.1376 20.9179 51.9873 20.8223 51.7823 20.7949ZM74.6578 8.4416C73.5372 7.40305 72.0614 6.87011 70.2303 6.87011H63.2747C63.0561 6.87011 62.8784 6.9521 62.7144 7.11608C62.5504 7.28006 62.4684 7.47138 62.4684 7.69002V9.35717C62.4684 9.57581 62.5504 9.76712 62.7144 9.93111C62.8784 10.0951 63.0697 10.1771 63.2747 10.1771H70.1073C71.1048 10.1771 71.8428 10.3957 72.321 10.8467C72.772 11.2703 72.9906 11.8852 72.9906 12.6778C72.9906 13.4977 72.772 14.1126 72.321 14.5089C71.8701 14.9462 71.1322 15.1785 70.1073 15.1785H63.2747C63.0561 15.1785 62.8647 15.2605 62.7144 15.4245C62.5641 15.5885 62.4684 15.7798 62.4684 15.9848V23.1317C62.4684 23.3503 62.5504 23.5416 62.7144 23.6919C62.8784 23.8559 63.0561 23.9379 63.2747 23.9379H65.0102C65.2288 23.9379 65.4065 23.8559 65.5704 23.6919C65.7344 23.528 65.8164 23.3366 65.8164 23.1317V18.6632C65.8164 18.5402 65.9121 18.4308 66.0487 18.4308H70.2303C72.0887 18.4308 73.5646 17.9116 74.6578 16.8867C75.7783 15.8208 76.3386 14.4269 76.3386 12.6641C76.3386 10.9013 75.7783 9.50749 74.6578 8.4416ZM86.7378 7.37572C86.6011 7.03409 86.3552 6.87011 85.9999 6.87011H83.7861C83.6221 6.87011 83.4718 6.9111 83.3352 6.99309C83.1985 7.07509 83.1029 7.19807 83.0482 7.37572L78.525 17.9799C78.4157 18.2532 78.443 18.5128 78.5933 18.7451C78.7573 18.9911 78.9896 19.1141 79.2903 19.1141H81.2307C81.3947 19.1141 81.545 19.0731 81.6817 18.9911C81.8183 18.9091 81.914 18.7861 81.9686 18.6358L84.688 12.1449C84.77 11.9536 85.0296 11.9536 85.1116 12.1449L87.995 19.0321L88.5553 20.385C88.6236 20.5353 88.5143 20.6993 88.3503 20.6993H77.9374C77.7734 20.6993 77.6231 20.7403 77.4865 20.8359C77.3498 20.9316 77.2542 21.0546 77.1995 21.2049L76.4889 22.872C76.3659 23.1317 76.3933 23.3776 76.5572 23.6236C76.7076 23.8696 76.9399 23.9926 77.2268 23.9926H92.6002C92.8735 23.9926 93.1058 23.8696 93.2697 23.6236C93.4201 23.364 93.4474 23.1043 93.3381 22.8584L86.7378 7.37572ZM100.895 7.15708C100.676 6.99309 100.444 6.93843 100.198 6.99309C98.5582 7.32106 97.1643 8.11364 96.0164 9.37084C94.5543 11.0107 93.83 13.0604 93.83 15.5202C93.83 17.9799 94.5543 20.0297 96.0164 21.6695C97.1507 22.913 98.5445 23.7193 100.198 24.0609H100.362C100.581 24.0609 100.758 24.0062 100.895 23.8832C101.1 23.7329 101.196 23.528 101.196 23.2547V21.4372C101.196 21.2732 101.141 21.1092 101.018 20.9589C100.909 20.8086 100.758 20.7129 100.594 20.6719C99.747 20.426 99.0501 20.0023 98.5035 19.3874C97.6153 18.4035 97.178 17.119 97.178 15.5202C97.178 13.935 97.6153 12.6505 98.5035 11.6529C98.9408 11.1746 99.4601 10.8057 100.075 10.5187C100.198 10.464 100.376 10.4094 100.581 10.3547C100.745 10.3001 100.895 10.1907 101.004 10.0404C101.114 9.89011 101.182 9.73979 101.182 9.56215V7.75834C101.196 7.51237 101.086 7.30739 100.895 7.15708ZM107.072 8.27762C106.047 7.55337 104.858 7.08875 103.546 6.87011C103.3 6.84278 103.081 6.9111 102.904 7.07509C102.712 7.21174 102.63 7.41671 102.63 7.67635V9.35717C102.63 9.57581 102.685 9.75346 102.822 9.90378C102.945 10.0541 103.109 10.1361 103.327 10.1634C103.915 10.2591 104.475 10.4777 105.008 10.8057C105.705 11.284 106.211 11.9262 106.552 12.7188C106.703 13.0468 106.962 13.1971 107.318 13.1971H109.162C109.436 13.1971 109.668 13.0878 109.832 12.8555C109.982 12.6231 110.023 12.3772 109.928 12.1175C109.354 10.5324 108.411 9.24785 107.072 8.27762ZM109.149 17.8159H107.304C106.949 17.8159 106.703 17.9799 106.539 18.2942C106.197 19.0868 105.691 19.729 104.994 20.2073C104.503 20.5489 103.929 20.7539 103.286 20.8496C103.081 20.8769 102.931 20.9726 102.808 21.1092C102.685 21.2595 102.617 21.4372 102.617 21.6558V23.3366C102.617 23.5963 102.712 23.8013 102.89 23.9379C103.027 24.0746 103.204 24.1429 103.423 24.1429H103.532C104.858 23.9242 106.033 23.4596 107.058 22.7354C108.397 21.7651 109.34 20.4806 109.9 18.8818C109.996 18.6222 109.955 18.3762 109.805 18.1439C109.654 17.9389 109.422 17.8159 109.149 17.8159ZM112.797 17.078H123.347C123.388 17.078 123.429 17.0643 123.47 17.0507C123.825 16.8457 124.003 16.586 124.003 16.2717V14.5499C124.003 14.2356 123.825 13.976 123.47 13.771C123.429 13.7574 123.388 13.7437 123.347 13.7437H112.797C112.579 13.7437 112.387 13.8257 112.237 13.9897C112.087 14.1536 111.991 14.345 111.991 14.5499V16.2717C111.991 16.4904 112.073 16.6817 112.237 16.832C112.401 16.9823 112.579 17.078 112.797 17.078ZM124.768 7.11608C124.618 6.9521 124.426 6.87011 124.194 6.87011H112.797C112.579 6.87011 112.387 6.9521 112.237 7.11608C112.073 7.28006 111.991 7.45771 111.991 7.67635V9.53482C111.991 9.57581 112.005 9.61681 112.018 9.6578C112.223 9.99943 112.483 10.1771 112.797 10.1771H124.194C124.426 10.1771 124.618 10.0951 124.768 9.93111C124.918 9.76712 125 9.57581 125 9.3435V7.67635C125 7.45771 124.932 7.28006 124.768 7.11608ZM124.194 20.6856H112.797C112.483 20.6856 112.223 20.8632 112.018 21.2049C112.005 21.2459 111.991 21.2869 111.991 21.3279V23.1863C111.991 23.405 112.073 23.5826 112.237 23.7466C112.401 23.9106 112.592 23.9926 112.797 23.9926H124.194C124.426 23.9926 124.618 23.9106 124.768 23.7466C124.918 23.5826 125 23.405 125 23.1863V21.5192C125 21.2869 124.918 21.0956 124.768 20.9316C124.618 20.7539 124.426 20.6856 124.194 20.6856Z" fill="#656565"/>
<path fill-rule="evenodd" clip-rule="evenodd" d="M50.6893 32.8614C50.334 33.2577 49.7874 33.5174 49.1998 33.5174C47.9153 33.5174 46.9177 32.5335 46.9177 31.126C46.9177 29.7048 47.9153 28.7345 49.1998 28.7345C49.7874 28.7345 50.334 28.9942 50.6893 29.3905C50.7577 29.4725 50.8806 29.4861 50.9763 29.4178C51.0993 29.3358 51.1129 29.1718 51.0173 29.0625C50.5663 28.5979 49.9651 28.3109 49.2135 28.3109C47.6693 28.3109 46.4395 29.4588 46.4395 31.126C46.4395 32.7931 47.6557 33.941 49.2135 33.941C50.0881 33.941 50.7167 33.5584 51.2086 32.9708L50.99 32.8341C50.8806 32.7794 50.7577 32.7794 50.6893 32.8614ZM60.3779 28.8165C57.7406 27.4774 55.8138 28.9669 55.8138 31.126C55.8138 32.7248 56.866 33.941 58.4648 33.941C60.7606 33.941 61.9358 31.4129 60.4736 28.8985C60.4599 28.8712 60.4189 28.8302 60.3779 28.8165ZM58.4648 33.5174C57.1393 33.5174 56.3057 32.4925 56.3057 31.126C56.3057 29.7321 57.1393 28.7345 58.4648 28.7345C59.7767 28.7345 60.6239 29.7458 60.6239 31.126C60.6239 32.4925 59.7767 33.5174 58.4648 33.5174ZM72.1026 28.3929H72.048C71.9523 28.3929 71.8567 28.4612 71.8293 28.5569L70.7771 32.4105C70.7225 32.6291 70.4082 32.6291 70.3398 32.4105L69.274 28.5569C69.2466 28.4612 69.1646 28.3929 69.0553 28.3929H68.9733C68.8777 28.3929 68.782 28.4612 68.7547 28.5569L67.6751 32.4105C67.6068 32.6291 67.3062 32.6291 67.2378 32.4105L66.1856 28.5569C66.1583 28.4612 66.0763 28.3929 65.967 28.3929H65.9123C65.762 28.3929 65.6527 28.5432 65.6937 28.6799L67.1285 33.6813C67.1559 33.777 67.2515 33.8453 67.3472 33.8453H67.5248C67.6205 33.8453 67.7161 33.777 67.7435 33.6813L68.7957 29.9371C68.8503 29.7184 69.1646 29.7184 69.233 29.9371L70.2852 33.6813C70.3125 33.777 70.3945 33.8453 70.5038 33.8453H70.6815C70.7771 33.8453 70.8728 33.777 70.9001 33.6813L72.3213 28.6799C72.3623 28.5296 72.253 28.3929 72.1026 28.3929ZM81.477 28.8165C78.8396 27.4774 76.9128 28.9669 76.9128 31.126C76.9128 32.7248 77.965 33.941 79.5638 33.941C81.8596 33.941 83.0348 31.4129 81.5726 28.8985C81.5453 28.8712 81.518 28.8302 81.477 28.8165ZM79.5638 33.5174C78.2383 33.5174 77.4047 32.4925 77.4047 31.126C77.4047 29.7321 78.2383 28.7345 79.5638 28.7345C80.8757 28.7345 81.7229 29.7458 81.7229 31.126C81.7229 32.4925 80.8757 33.5174 79.5638 33.5174ZM89.758 31.5086C90.414 31.3583 90.9333 30.8253 90.9333 29.9781C90.9333 28.9805 90.209 28.3793 89.2661 28.3793H87.4623C87.3393 28.3793 87.23 28.4749 87.23 28.6116V33.613C87.23 33.736 87.3256 33.8453 87.4623 33.8453H87.476C87.5989 33.8453 87.7083 33.7497 87.7083 33.613V31.8092C87.7083 31.6862 87.8039 31.5769 87.9406 31.5769H88.8015C88.8698 31.5769 88.9518 31.6179 88.9928 31.6726L90.3867 33.736C90.4276 33.8043 90.496 33.8317 90.578 33.8317H91.0289L89.6624 31.8502C89.5394 31.7409 89.6077 31.5496 89.758 31.5086ZM87.9269 31.167C87.8039 31.167 87.6946 31.0713 87.6946 30.9346V29.0352C87.6946 28.9122 87.7903 28.8029 87.9269 28.8029H89.2388C89.963 28.8029 90.455 29.2812 90.455 29.9781C90.455 30.675 89.963 31.1533 89.2388 31.1533H87.9269V31.167ZM97.4789 30.839L99.6653 28.3929H99.1734C99.105 28.3929 99.0504 28.4202 99.0094 28.4749L96.8366 30.9346C96.7 31.085 96.4403 30.9893 96.4403 30.7843V28.6252C96.4403 28.5022 96.3447 28.3929 96.208 28.3929H96.1944C96.0714 28.3929 95.962 28.4886 95.962 28.6252V33.6267C95.962 33.7497 96.0577 33.859 96.1944 33.859H96.208C96.331 33.859 96.4403 33.7633 96.4403 33.6267V32.0279C96.4403 31.9732 96.4676 31.9185 96.495 31.8775L96.8776 31.4676C96.9733 31.3719 97.1236 31.3719 97.2192 31.4676L99.2417 33.7633C99.2827 33.818 99.351 33.8453 99.4057 33.8453H99.8976L97.4789 31.1396C97.4105 31.0576 97.4105 30.9346 97.4789 30.839ZM104.885 28.3929H104.872C104.749 28.3929 104.639 28.4886 104.639 28.6252V33.6267C104.639 33.7497 104.735 33.859 104.872 33.859H104.885C105.008 33.859 105.118 33.7633 105.118 33.6267V28.6252C105.104 28.4886 105.008 28.3929 104.885 28.3929ZM114.492 28.3929H114.478C114.355 28.3929 114.246 28.4886 114.246 28.6252V32.3422C114.246 32.5608 113.973 32.6565 113.836 32.4788L110.884 28.5022C110.843 28.4476 110.775 28.4066 110.707 28.4066H110.57C110.447 28.4066 110.338 28.5022 110.338 28.6389V33.6403C110.338 33.7633 110.433 33.8727 110.57 33.8727H110.584C110.707 33.8727 110.816 33.777 110.816 33.6403V29.8688C110.816 29.6501 111.089 29.5545 111.226 29.7321L114.191 33.777C114.232 33.8317 114.301 33.8727 114.369 33.8727H114.492C114.615 33.8727 114.724 33.777 114.724 33.6403V28.6389C114.711 28.4886 114.615 28.3929 114.492 28.3929ZM124.345 31.1396H122.035V31.5632H123.866C123.989 31.5632 124.099 31.6589 124.099 31.7955V32.7794C124.099 32.8478 124.071 32.9024 124.03 32.9434C123.716 33.2304 123.169 33.5447 122.5 33.5447C121.215 33.5447 120.218 32.5471 120.218 31.1396C120.218 29.7184 121.215 28.7482 122.5 28.7482C123.128 28.7482 123.689 28.9942 124.085 29.3768C124.167 29.4451 124.276 29.4588 124.372 29.3905L124.563 29.2538C124.058 28.6799 123.415 28.3246 122.513 28.3246C120.983 28.3246 119.739 29.4588 119.739 31.1396C119.739 32.8204 120.969 33.9683 122.513 33.9683C123.333 33.9683 124.044 33.6267 124.522 33.1211C124.563 33.0801 124.591 33.0254 124.591 32.9571V31.3719C124.577 31.2353 124.481 31.1396 124.345 31.1396Z" fill="#656565"/>
<path fill-rule="evenodd" clip-rule="evenodd" d="M0.196289 27.3816V13.4431C0.196289 11.1337 1.42616 9.00193 3.43494 7.84039L15.5013 0.871155C17.4964 -0.290385 19.9698 -0.290385 21.9649 0.871155L34.0313 7.84039C36.04 9.00193 37.2699 11.1337 37.2699 13.4431V27.3816C37.2699 29.691 36.0264 31.8228 34.0313 32.9843L21.9649 39.9535C19.9698 41.1151 17.4964 41.1151 15.5013 39.9535L3.43494 32.9843C1.42616 31.8228 0.196289 29.691 0.196289 27.3816ZM22.5252 14.6866C21.8556 14.2767 21.1723 14.017 20.4617 13.9077C20.1884 13.8804 19.9835 13.7711 19.8331 13.5524C19.6692 13.3748 19.6008 13.1561 19.6008 12.8965V10.8467C19.6008 10.5324 19.7102 10.2864 19.9425 10.1225C20.1748 9.91748 20.4344 9.83549 20.735 9.87648C22.3612 10.1361 23.796 10.7101 25.0532 11.5846C26.6931 12.7735 27.8409 14.3313 28.5242 16.2718C28.6472 16.5997 28.6062 16.8867 28.4149 17.1737C28.2099 17.4607 27.9366 17.5973 27.595 17.5973H25.3402C24.9029 17.5973 24.6023 17.406 24.411 17.0097C24.001 16.0395 23.3724 15.2606 22.5252 14.6866ZM16.6492 10.0541C16.9498 9.97214 17.2368 10.0405 17.4964 10.2454C17.7424 10.4231 17.8654 10.6827 17.8517 10.997V13.1835C17.8517 13.3884 17.7697 13.5797 17.633 13.7574C17.4964 13.935 17.3187 14.0717 17.1138 14.14C16.8405 14.1947 16.6355 14.263 16.4852 14.3313C15.7336 14.673 15.0913 15.1376 14.5584 15.7115C13.4788 16.9277 12.9459 18.4992 12.9459 20.426C12.9459 22.3801 13.4788 23.9379 14.5584 25.1405C15.228 25.8921 16.0752 26.4113 17.1138 26.712C17.3187 26.7666 17.4964 26.8896 17.633 27.0673C17.7834 27.2449 17.8517 27.4362 17.8517 27.6412V29.855C17.8517 30.1693 17.7287 30.4152 17.4827 30.6065C17.3187 30.7569 17.1001 30.8252 16.8405 30.8252H16.6492C14.6404 30.4016 12.9459 29.4313 11.552 27.9145C9.76191 25.9057 8.87367 23.4187 8.87367 20.426C8.87367 17.4333 9.76191 14.9326 11.552 12.9375C12.9322 11.407 14.6404 10.4504 16.6492 10.0541ZM25.3402 23.2137H27.595C27.9229 23.2137 28.1962 23.364 28.4149 23.61C28.5925 23.8969 28.6335 24.1976 28.5242 24.5119C27.8409 26.466 26.6931 28.0238 25.0532 29.199C23.7824 30.0736 22.3475 30.6475 20.735 30.9072H20.5984C20.3388 30.9072 20.1201 30.8252 19.9561 30.6612C19.7238 30.4972 19.6145 30.2513 19.6145 29.937V27.8872C19.6145 27.6275 19.6965 27.4089 19.8468 27.2312C19.9971 27.0536 20.1884 26.9443 20.4344 26.9033C21.227 26.794 21.9239 26.5343 22.5252 26.1244C23.3724 25.5504 24.001 24.7715 24.411 23.8013C24.6023 23.405 24.9029 23.2137 25.3402 23.2137Z" fill="#656565"/>
</svg>
