<svg width="138" height="56" viewBox="0 0 138 56" fill="none" xmlns="http://www.w3.org/2000/svg">
<path d="M35.2865 10.7067H26.0643C25.9921 10.7044 25.9202 10.7168 25.8529 10.743C25.7856 10.7692 25.7241 10.8087 25.6723 10.8592C25.6205 10.9098 25.5793 10.9702 25.5511 11.037C25.523 11.1038 25.5085 11.1757 25.5086 11.2482V19.0641L13.5078 0.144002C13.4837 0.100372 13.4485 0.0640047 13.4058 0.0386805C13.363 0.0133563 13.3143 0 13.2646 0C13.215 0 13.1663 0.0133563 13.1235 0.0386805C13.0808 0.0640047 13.0456 0.100372 13.0215 0.144002L0.253821 20.2533C0.223052 20.2955 0.204725 20.3456 0.200932 20.3978C0.19714 20.45 0.208035 20.5022 0.232374 20.5485C0.256712 20.5948 0.293514 20.6333 0.338577 20.6595C0.38364 20.6858 0.435149 20.6988 0.487224 20.6971H7.85053V33.2082C7.85127 39.2527 10.2418 45.0495 14.4963 49.3236C18.7509 53.5977 24.521 55.9993 30.5379 56C33.5172 56 36.4674 55.4105 39.2199 54.2651C41.9725 53.1197 44.4735 51.4408 46.5802 49.3244C48.6869 47.208 50.3581 44.6955 51.4982 41.9302C52.6384 39.165 53.2252 36.2012 53.2252 33.2082V11.2482C53.2252 11.1046 53.1684 10.9668 53.0673 10.8653C52.9662 10.7637 52.8291 10.7067 52.6861 10.7067H35.2865ZM43.2166 33.2724C43.2166 36.6505 41.8808 39.8902 39.5031 42.2789C37.1254 44.6676 33.9005 46.0096 30.5379 46.0096C27.1752 46.0096 23.9503 44.6676 21.5726 42.2789C19.1949 39.8902 17.8591 36.6505 17.8591 33.2724V20.7111H25.5225V31.4328C25.5225 32.7336 26.0368 33.9811 26.9524 34.9009C27.8679 35.8206 29.1097 36.3373 30.4045 36.3373C31.6993 36.3373 32.941 35.8206 33.8566 34.9009C34.7721 33.9811 35.2865 32.7336 35.2865 31.4328V20.6971H43.2166V33.2724Z" fill="#656565"/>
<path d="M67.9136 32.7108H59.6328V20.2583H62.7867V30.1566H67.9136V32.7108Z" fill="#656565"/>
<path d="M77.855 32.7108H69.3574V20.2583H77.855V22.8124H72.5113V25.2912H77.5354V27.6192H72.5113V30.1566H77.855V32.7108Z" fill="#656565"/>
<path d="M82.8977 32.7108L78.9463 20.2583H82.5282L84.9151 29.6151H84.9846L87.3632 20.2583H90.8173L86.8658 32.7108H82.8977Z" fill="#656565"/>
<path d="M100.5 32.7108H92.0029V20.2583H100.5V22.8124H95.1569V25.2912H100.181V27.6192H95.1569V30.1566H100.5V32.7108Z" fill="#656565"/>
<path d="M110.559 32.7108H102.278V20.2583H105.432V30.1566H110.559V32.7108Z" fill="#656565"/>
<path d="M118.578 27.957C118.578 29.4057 119.359 30.2683 120.767 30.2683C122.176 30.2683 122.951 29.4057 122.951 27.957V20.2583H126.08V28.2947C126.08 31.0862 123.969 32.9285 120.745 32.9285C117.522 32.9285 115.404 31.0889 115.404 28.2947V20.2583H118.578V27.957Z" fill="#656565"/>
<path d="M133.335 20.2583C135.997 20.2583 137.801 21.9946 137.801 24.6687C137.801 27.3429 135.903 29.0624 133.146 29.0624H131.118V32.7108H127.967V20.2583H133.335ZM131.112 26.6785H132.48C133.819 26.6785 134.608 25.9807 134.608 24.6771C134.608 23.3735 133.819 22.684 132.496 22.684H131.107L131.112 26.6785Z" fill="#656565"/>
<path d="M74.9542 38.9858C76.6214 38.9858 77.6968 39.9126 77.7329 41.2357H76.3435C76.263 40.5407 75.7544 40.1024 74.9319 40.1024C74.1094 40.1024 73.6092 40.4904 73.6092 41.0626C73.6092 41.5149 73.9343 41.8219 74.7207 41.9978L75.8795 42.2769C77.3384 42.6175 77.8941 43.1897 77.8941 44.2309C77.8941 45.5401 76.6798 46.4417 74.9986 46.4417C73.2146 46.4417 72.142 45.5624 72.0059 44.2086H73.4564C73.5925 44.9594 74.1011 45.3251 74.9986 45.3251C75.8962 45.3251 76.4214 44.9567 76.4214 44.3705C76.4214 43.9071 76.1574 43.6335 75.3765 43.4577L74.2178 43.1785C72.8617 42.8659 72.1893 42.2099 72.1893 41.1687C72.2031 39.8651 73.3147 38.9858 74.9542 38.9858Z" fill="#656565"/>
<path d="M78.7217 42.6984C78.7217 40.3955 80.0722 38.9858 82.109 38.9858C84.1459 38.9858 85.4936 40.3955 85.4936 42.6984C85.4936 45.0013 84.1514 46.4221 82.109 46.4221C80.0666 46.4221 78.7217 45.0097 78.7217 42.6984ZM84.0014 42.6984C84.0014 41.1129 83.2539 40.1861 82.109 40.1861C80.9642 40.1861 80.2167 41.1017 80.2167 42.6984C80.2167 44.2951 80.9614 45.2107 82.109 45.2107C83.2567 45.2107 84.0014 44.2951 84.0014 42.6984Z" fill="#656565"/>
<path d="M86.6816 36.4517H88.1461V46.2858H86.6816V36.4517Z" fill="#656565"/>
<path d="M95.7709 46.2858H94.3676V45.0715H94.3343C93.9397 45.9313 93.2228 46.4142 92.1113 46.4142C90.5579 46.4142 89.6104 45.3981 89.6104 43.7568V39.1147H91.0748V43.4693C91.0748 44.5607 91.5916 45.1441 92.6031 45.1441C93.6618 45.1441 94.2982 44.4072 94.2982 43.2906V39.1035H95.7626L95.7709 46.2858Z" fill="#656565"/>
<path d="M99.1274 37.4146V39.1117H100.486V40.2785H99.1274V44.2312C99.1274 44.8509 99.4053 45.13 99.9972 45.13C100.158 45.1306 100.319 45.1194 100.478 45.0965V46.2605C100.21 46.3122 99.9368 46.3356 99.6637 46.3303C98.2187 46.3303 97.6574 45.772 97.6574 44.3931V40.2813H96.6182V39.1145H97.6574V37.4146H99.1274Z" fill="#656565"/>
<path d="M101.608 37.1103C101.608 36.9452 101.657 36.7839 101.748 36.6465C101.839 36.5091 101.968 36.4018 102.12 36.338C102.271 36.2742 102.438 36.2569 102.6 36.288C102.761 36.3192 102.909 36.3976 103.027 36.5134C103.144 36.6291 103.224 36.777 103.258 36.9385C103.292 37.1 103.277 37.2679 103.216 37.4212C103.155 37.5744 103.05 37.7061 102.915 37.7998C102.78 37.8935 102.62 37.9449 102.456 37.9477C102.345 37.9495 102.235 37.9292 102.133 37.888C102.03 37.8467 101.936 37.7853 101.857 37.7074C101.779 37.6294 101.716 37.5365 101.673 37.434C101.63 37.3315 101.608 37.2214 101.608 37.1103ZM101.722 39.1145H103.19V46.2856H101.722V39.1145Z" fill="#656565"/>
<path d="M104.368 42.6984C104.368 40.3955 105.719 38.9858 107.756 38.9858C109.792 38.9858 111.14 40.3955 111.14 42.6984C111.14 45.0013 109.798 46.4221 107.756 46.4221C105.713 46.4221 104.368 45.0097 104.368 42.6984ZM109.648 42.6984C109.648 41.1129 108.9 40.1861 107.756 40.1861C106.611 40.1861 105.863 41.1017 105.863 42.6984C105.863 44.2951 106.608 45.2107 107.756 45.2107C108.903 45.2107 109.648 44.2951 109.648 42.6984Z" fill="#656565"/>
<path d="M112.273 39.114H113.662V40.3143H113.696C114.082 39.4965 114.843 38.9912 115.941 38.9912C117.517 38.9912 118.42 40.0017 118.42 41.643V46.2851H116.947V41.9306C116.947 40.8531 116.444 40.2557 115.427 40.2557C114.41 40.2557 113.732 40.9926 113.732 42.1036V46.2907H112.265L112.273 39.114Z" fill="#656565"/>
<path d="M122.468 38.9858C124.135 38.9858 125.208 39.9126 125.247 41.2357H123.858C123.777 40.5407 123.268 40.1024 122.449 40.1024C121.629 40.1024 121.126 40.4904 121.126 41.0626C121.126 41.5149 121.451 41.8219 122.224 41.9978L123.385 42.2769C124.841 42.6175 125.4 43.1897 125.4 44.2309C125.4 45.5401 124.185 46.4417 122.502 46.4417C120.718 46.4417 119.645 45.5624 119.509 44.2086H120.962C121.098 44.9594 121.607 45.3251 122.502 45.3251C123.396 45.3251 123.927 44.9567 123.927 44.3705C123.927 43.9071 123.663 43.6335 122.882 43.4577L121.721 43.1785C120.365 42.8659 119.692 42.2099 119.692 41.1687C119.709 39.8651 120.823 38.9858 122.468 38.9858Z" fill="#656565"/>
<path d="M69.4225 41.9673V43.4386H59.6328V41.9673H69.4225Z" fill="#656565"/>
<path d="M137.801 41.9673V43.4386H128.025V41.9673H137.801Z" fill="#656565"/>
</svg>
