<svg width="143" height="46" viewBox="0 0 143 46" fill="none" xmlns="http://www.w3.org/2000/svg">
<path d="M14.5915 39.684C14.4397 39.8423 14.3985 40.1884 14.3046 40.4328C13.9096 41.462 13.1634 42.6315 12.9756 43.1345L14.67 42.9609C14.6339 41.5688 16.1495 39.4229 16.3656 38.521L14.5915 39.684Z" fill="#656565"/>
<path d="M41.6912 43.1484C41.5381 42.7148 40.7469 41.4167 40.3828 40.4788C40.0187 39.5409 40.348 39.8561 39.5336 39.3209C39.1914 39.0945 38.6588 38.6892 38.3037 38.522C38.5237 39.4226 40.0302 41.5698 40.0019 42.9374L41.6912 43.1484Z" fill="#656565"/>
<path d="M28.5575 25.9141C28.1343 26.4158 27.9606 27.1208 28.1047 27.9275C28.2745 28.8783 27.976 29.407 28.0095 30.3076C28.0532 30.2635 28.0889 30.2122 28.115 30.1558C28.1211 30.1442 28.128 30.1331 28.1356 30.1223L28.1639 30.0554C28.9049 28.4035 28.3864 27.8362 28.4044 27.0218C28.4186 26.6281 28.5292 26.291 28.5575 25.9141Z" fill="#656565"/>
<path d="M29.9727 26.8504L30.0936 26.7346C30.1045 26.722 30.1161 26.7099 30.1283 26.6986C30.45 26.3782 30.4937 26.3126 30.9736 26.117L30.8822 26.0772C30.4873 25.9935 30.0537 26.3306 29.9727 26.8504Z" fill="#656565"/>
<path d="M26.3698 29.8662L26.5705 30.3461C26.6786 29.5072 26.3222 28.9116 26.4946 27.9235C26.6233 27.2172 26.4702 26.3153 26.0418 25.9165C26.0649 26.3153 26.1949 26.6498 26.1949 27.0873C26.191 28.1898 25.6906 27.9634 26.3698 29.8662Z" fill="#656565"/>
<path d="M28.6856 27.6069C28.7782 27.1604 28.8709 26.7642 29.0947 26.449C29.3186 26.1338 29.6737 25.9073 29.8551 25.7144C28.7062 25.9125 28.382 27.0884 28.6856 27.6069Z" fill="#656565"/>
<path d="M29.624 27.4255C29.8119 27.8552 29.9122 28.0688 30.5722 28.0971C31.6503 28.1524 32.0016 27.9685 33.2829 28.4638C33.6856 28.6182 33.9893 28.8227 34.3122 28.9488C33.7049 28.3711 33.2225 27.7909 32.439 27.4281C31.2875 26.8865 30.9607 27.5941 29.624 27.4255Z" fill="#656565"/>
<path d="M29.337 27.1094L29.4901 26.9049C29.8233 26.3632 29.934 26.3722 30.3135 26.0519L30.4615 25.8872C29.7577 25.9541 29.3293 26.38 29.337 27.1094Z" fill="#656565"/>
<path d="M29.4176 22.0479C28.2043 21.9605 27.6396 22.3516 27.2845 22.3245C26.8753 22.2937 26.2887 21.9 25.1797 22.0994C25.2993 22.174 27.179 22.7427 27.3334 22.7427C27.5817 22.7362 29.2735 22.1637 29.4176 22.0479Z" fill="#656565"/>
<path d="M15.7656 33.8415C15.8093 33.7991 15.7373 33.7682 15.7656 33.8415V33.8415Z" fill="#656565"/>
<path d="M30.1947 42.4302L29.8628 42.1189L29.693 42.4714C29.3855 43.2086 28.6715 43.6383 27.942 43.8866C27.8841 43.9059 27.803 43.929 27.7464 43.9509L27.6487 43.9921C27.4325 44.0911 27.5998 44.0049 27.5059 44.0706C28.84 44.0706 30.4443 43.1931 30.8406 41.9761C30.609 42.1029 30.3924 42.2552 30.1947 42.4302Z" fill="#656565"/>
<path d="M29.4578 39.4525C28.1867 40.0006 26.1591 40.1447 24.8777 39.5168C24.2164 39.1926 23.8626 38.6523 23.3789 38.2432C23.6491 39.0009 24.3953 39.8179 25.1801 40.1267C25.566 40.2785 25.8812 40.2695 26.0305 40.5667C25.8877 40.9269 25.1621 41.0813 24.9382 41.7438C26.4177 41.0041 28.1687 41.053 29.6585 41.7438C29.2854 40.7699 27.7287 40.7146 29.2056 40.0482C29.9197 39.7278 30.1191 39.4808 30.5745 39.0807C30.7969 38.8768 30.9762 38.6306 31.102 38.3564C30.8447 38.485 30.6196 38.7578 30.3185 38.9533C30.0467 39.1445 29.7587 39.3116 29.4578 39.4525Z" fill="#656565"/>
<path d="M28.1065 32.5937C28.3265 32.483 28.2687 32.4792 28.405 32.3685C28.7009 32.128 28.9055 32.3454 29.258 31.8809C28.3806 32.0945 28.6147 31.8192 28.1297 31.5645C28.1889 32.6696 27.4157 32.5937 26.5254 32.5615C27.094 32.703 27.4182 32.9411 28.1065 32.5937Z" fill="#656565"/>
<path d="M28.1407 30.1222C28.0506 30.328 28.2179 29.9935 28.1407 30.1222V30.1222Z" fill="#656565"/>
<path d="M35.0869 29.7014C34.9209 29.5342 35.0959 29.668 34.8965 29.5728C35.7649 31.6312 35.0148 32.3079 34.9544 33.3359C35.0071 33.103 36.1457 31.3855 35.2194 29.897C35.1795 29.829 35.1353 29.7636 35.0869 29.7014Z" fill="#656565"/>
<path d="M20.4236 7.79785C20.1045 8.26229 20.0376 8.39223 19.3545 8.5389C19.7881 8.96217 19.9978 8.83995 20.6488 9.72895C21.1634 10.4327 21.2689 10.7415 21.6175 11.2599C21.6471 10.874 21.6034 10.488 21.6059 10.102C21.6059 9.67363 21.6793 9.33012 21.6999 8.95445C20.8803 8.91328 20.7092 8.44241 20.4236 7.79785Z" fill="#656565"/>
<path d="M23.7195 8.08365C23.3567 7.95499 23.0762 7.77745 22.7803 7.65137C22.7482 8.59312 22.7726 8.40399 22.1113 8.83498C22.8369 9.2441 22.9707 9.50785 23.4107 10.0135L24.5468 11.4865C24.5133 10.6207 24.4464 9.13089 24.7114 8.37569C24.5197 8.28306 24 8.18528 23.7195 8.08365Z" fill="#656565"/>
<path d="M26.4369 12.0346C26.6016 12.6779 26.8049 12.9609 27.048 13.3777C27.1574 13.2028 27.0223 12.5582 27.0648 11.9201C27.1214 11.029 27.2895 10.1486 27.5652 9.29941C27.6939 8.94304 27.9743 8.52748 27.9435 8.19941C26.9284 8.00257 25.9249 10.0109 26.4369 12.0346Z" fill="#656565"/>
<path d="M19.1007 10.5759C18.5655 10.5451 18.2271 10.2543 17.8527 10.0986C17.9814 10.9426 17.3986 11.5138 17.1426 12.1095C18.7546 11.9371 20.319 12.4955 21.3714 13.2417C21.2364 12.6447 20.7282 11.2244 20.4387 10.8487C20.0965 10.4035 19.6899 10.612 19.1007 10.5759Z" fill="#656565"/>
<path d="M31.3493 8.29864C30.89 8.32823 30.5413 8.31665 30.1386 8.14426C29.5636 7.89853 29.7861 7.97057 29.2252 8.23689C28.5819 8.5418 28.3825 8.34882 28.3838 10.1667L28.4147 11.8907L28.7659 10.8203C29.1068 9.82705 29.7321 8.74893 31.0418 8.87887C31.099 8.66467 31.2042 8.46627 31.3493 8.29864Z" fill="#656565"/>
<path d="M39.9088 4.7168C39.8792 6.6955 38.5592 8.03993 36.5342 7.96789C36.8314 8.63689 38.2144 9.25443 39.4495 8.86846C39.9641 8.70893 40.0053 8.63817 40.2343 8.22519C40.4633 7.81221 41.0757 6.83702 41.1027 6.3507C41.1387 5.58779 40.4195 4.90592 39.9088 4.7168Z" fill="#656565"/>
<path d="M32.3538 2.8155C32.1852 2.68684 32.3859 2.80006 32.1737 2.69971C32.9675 4.35677 30.7906 5.47735 29.086 4.35806C28.965 4.46613 28.8943 4.58449 28.7901 4.69513C27.7814 5.77068 27.0468 5.97524 25.5312 6.08331C26.0459 6.68798 27.5524 6.78962 28.4903 6.72658C29.4513 6.65582 29.6482 6.41138 29.9055 6.35477C29.9479 6.34576 30.9347 6.75617 31.2036 6.82564C32.274 7.09968 34.2257 7.31453 35.3205 6.9543C36.0191 6.71114 35.8133 6.56705 36.1143 5.92378L36.5067 5.28051C35.812 5.25478 34.51 4.61665 34.0507 4.30016C33.4859 3.90777 32.8697 3.19117 32.3538 2.8155Z" fill="#656565"/>
<path d="M29.0053 29.0815C29.0531 28.9069 29.0579 28.7233 29.0191 28.5465C28.9803 28.3697 28.8992 28.2049 28.7827 28.0664C28.8985 29.1111 28.7827 29.0545 28.5254 29.9242C28.7518 29.7801 28.9435 29.38 29.0053 29.0815Z" fill="#656565"/>
<path d="M31.1585 14.7622C31.5252 14.0997 31.5187 11.5459 31.1585 10.8833C30.7635 11.4828 30.7558 14.1498 31.1585 14.7622Z" fill="#656565"/>
<path d="M34.1387 28.3302C34.2956 28.4742 34.2545 28.4099 34.4899 28.4884C34.9775 28.6531 34.9595 28.8744 35.2207 29.0841C35.2477 28.4035 34.7845 28.1462 34.1387 28.3302Z" fill="#656565"/>
<path d="M23.5235 27.2716C22.1971 27.0143 21.1383 28.0435 20.2969 28.9441C21.0958 28.6044 21.5345 28.2725 22.6126 28.1207C23.6522 27.9728 24.6711 28.4089 24.9837 27.4234C24.6917 27.4324 24.527 27.5431 24.1848 27.4543C23.9687 27.4092 23.7731 27.3192 23.5235 27.2716Z" fill="#656565"/>
<path d="M20.3532 28.4139C20.4472 28.3714 20.4099 28.3791 20.4626 28.3277C19.8502 28.1707 19.342 28.4306 19.3832 29.088C19.6238 28.8603 19.6675 28.6197 20.1628 28.4679C20.2275 28.4544 20.2911 28.4363 20.3532 28.4139Z" fill="#656565"/>
<path d="M27.3079 23.5557C26.8203 25.1523 27.344 24.1063 26.5 25.6437C27.2346 25.5241 27.371 25.5369 28.1005 25.6437C27.8946 25.3054 27.7595 25.1947 27.5948 24.6878C27.4732 24.3175 27.3773 23.9392 27.3079 23.5557Z" fill="#656565"/>
<path d="M29.4371 31.0537C29.4963 31.2184 30.2193 32.2232 29.0614 32.568C28.1608 32.8369 28.7797 32.685 28.2728 33.0157C27.7054 33.3849 26.8035 33.3322 26.3018 32.9784C25.6418 32.5126 26.3996 32.8652 25.4925 32.559C24.4209 32.1987 25.0641 31.2891 25.1645 31.055C24.7 31.1232 23.9037 31.8269 23.6875 32.0585C23.3363 32.4445 22.8513 32.9514 22.666 33.5869C23.0185 33.2009 23.7094 32.0431 24.5289 31.7124C24.5444 32.5976 24.9432 32.7314 25.6328 32.999C25.8746 33.0955 26.0368 33.3155 26.3906 33.4737C27.8662 34.1324 28.6742 33.098 29.0164 32.9822C29.6854 32.7545 30.0456 32.5204 30.0752 31.7098C30.3595 31.8385 30.9758 32.393 31.1546 32.5937C31.4572 32.9374 31.7329 33.3038 31.9793 33.6898C31.7348 32.8124 30.3003 31.2029 29.4371 31.0537Z" fill="#656565"/>
<path d="M33.0913 29.1699C32.0981 28.8483 30.7536 28.9371 29.6523 28.7544C29.781 28.883 29.8247 28.9525 30.3304 29.0825C30.5982 29.1483 30.8691 29.2007 31.1422 29.2394C32.686 29.4697 34.2414 29.5083 34.6325 31.4677C34.9014 30.3677 33.8671 29.4208 33.0913 29.1699Z" fill="#656565"/>
<path d="M34.8793 31.3101C34.8787 31.7089 34.8356 32.1066 34.7506 32.4962C34.676 32.823 34.5332 33.1279 34.4766 33.4419C34.8612 33.0263 35.2729 31.9366 34.8793 31.3101Z" fill="#656565"/>
<path d="M25.0078 28.7227C23.9477 29.0366 22.692 28.814 21.6114 29.1382C20.7108 29.4071 19.8887 30.2035 19.9208 31.3421C19.9332 31.3253 19.9444 31.3077 19.9543 31.2893L20.2553 30.6345C21.3283 28.7677 24.2398 29.6786 25.0078 28.7227Z" fill="#656565"/>
<path d="M33.7495 24.051L33.756 24.5052L32.71 23.9159L32.7936 24.289C32.3163 24.1501 31.7348 23.8194 31.3527 23.5969C31.2935 23.6663 31.2948 23.6856 31.2434 23.7423C31.1919 23.7989 31.2061 23.7963 31.2112 23.795C31.1848 23.8076 31.1594 23.8222 31.1353 23.8387C30.914 23.7011 30.6374 23.6278 30.4007 23.5004C30.1702 23.3667 29.9508 23.2149 29.7445 23.0462V23.602C29.1283 23.4271 29.0267 23.2251 28.7153 22.9395C28.175 23.2984 28.2007 24.7586 28.9791 25.3762L29.0807 25.079C29.3946 25.1922 29.6236 25.4649 29.8681 25.6039C29.9311 25.4122 29.9144 25.407 30.0533 25.2732C30.5564 25.4148 31.0414 25.6669 31.2356 25.9693L31.3489 25.721C31.8635 25.9538 32.1517 26.0619 32.4797 26.4015L32.5801 26.1249C32.8979 26.2922 33.2324 26.534 33.352 26.848C33.4717 26.6769 33.4536 26.5418 33.4678 26.3424C33.8435 26.5019 33.9593 26.7206 34.1715 26.6331C34.2604 26.2348 34.2682 25.8226 34.1947 25.4212C34.6656 25.7634 34.5601 26.2472 34.5485 26.8801C35.2304 25.793 35.1184 24.3006 33.7495 24.051ZM29.733 25.0108C29.6429 24.9044 29.5636 24.7893 29.4962 24.6673C29.2724 24.3199 28.8234 24.2157 28.9096 23.6059C29.4576 24.3508 29.7934 24.3019 29.733 25.0108ZM30.6091 24.7869C30.4316 24.5566 29.9941 24.3431 30.0803 23.8079C30.3775 24.289 30.8523 24.383 30.8252 25.0803C30.6863 24.9426 30.7313 24.9452 30.6155 24.7869H30.6091ZM31.2935 24.7483C31.1224 24.5862 31.0221 24.4717 31.0478 24.1887C31.3051 24.446 31.6718 24.6969 31.6563 25.1935C31.4762 25.0095 31.6126 25.0532 31.2935 24.7483Z" fill="#656565"/>
<path d="M25.9223 22.9346C25.6238 23.0825 25.4308 23.4633 24.8158 23.5946V23.0349L24.4659 23.3128C24.1321 23.5392 23.7654 23.7128 23.3788 23.8274C23.2411 23.7065 23.3942 23.8416 23.2643 23.6988C23.2501 23.6833 23.1974 23.637 23.1948 23.6229C23.1922 23.6087 23.1716 23.5959 23.1588 23.5843C22.9105 23.8969 22.1694 24.0487 21.8465 24.3034C21.6381 24.1928 21.8143 24.2263 21.7937 24.0963L21.7629 23.9278C21.4673 24.1694 21.1339 24.3607 20.7761 24.4939L20.8018 24.0551C20.1946 24.1516 19.7726 24.5093 19.6517 25.1114C19.5909 25.4468 19.6006 25.7911 19.68 26.1226L20.0093 26.8572C19.9591 26.3426 19.9231 25.6337 20.3734 25.4202C20.2448 25.9348 20.34 26.2204 20.3927 26.7324L21.045 26.3632C21.0758 26.4515 21.0987 26.5423 21.1132 26.6347L21.1685 26.7929C21.1685 26.7839 21.1814 26.8276 21.1916 26.8431C21.4322 26.4648 21.5712 26.4082 21.952 26.1329L22.1656 26.4185C22.2942 26.0905 22.7664 25.9039 23.1832 25.7315C23.2887 25.8447 23.2411 25.6955 23.2887 25.9618C23.932 25.4227 24.2703 25.4601 25.1516 26.3105L25.0629 25.7688C25.4488 26.0429 25.6675 26.8662 25.8142 27.148C25.8718 26.5572 25.798 25.961 25.5981 25.4022C26.2786 24.6868 26.397 24.0037 25.9223 22.9346ZM23.2527 24.755C23.0584 24.9377 23.106 24.9339 22.9272 25.1744C22.8423 24.9815 22.9529 24.8026 23.0829 24.6508C23.1703 24.5479 23.2115 24.5222 23.3041 24.4205L23.528 24.2044C23.4765 24.5569 23.456 24.562 23.2527 24.755ZM23.7673 25.0767C23.6001 24.6907 23.9667 24.3215 24.2124 24.0976L24.4234 23.9085C24.4312 23.9008 24.4556 23.8956 24.462 23.8725C24.4685 23.8493 24.4891 23.8467 24.5019 23.8339C24.4698 24.4977 24.1417 24.3922 23.7699 25.0767H23.7673ZM24.8158 25.0201C24.7837 24.342 25.1851 24.0989 25.6675 23.6267C25.6685 23.7764 25.6374 23.9246 25.5764 24.0613C25.5153 24.1979 25.4258 24.32 25.3137 24.4192C25.1324 24.6056 24.9667 24.8065 24.8184 25.0201H24.8158Z" fill="#656565"/>
<path d="M37.9698 28.374C37.5285 29.2321 38.9051 30.5393 39.2563 31.6418L37.3496 32.6955C37.0718 32.8448 37.221 32.7315 37.0653 32.9901C36.799 33.4417 36.7025 33.2474 36.3063 33.2783L36.1133 33.8418L39.7079 31.8232C39.8198 31.6032 38.1782 28.7574 37.9698 28.374Z" fill="#656565"/>
<path d="M38.2139 25.7364L39.6625 24.9644C40.0382 24.7419 40.0073 24.8589 40.024 24.6479C39.6946 24.7934 39.3756 24.9615 39.0694 25.151C38.5638 25.443 38.2808 25.4623 38.2139 25.7364Z" fill="#656565"/>
<path d="M54.1479 19.3256C53.08 17.7908 51.5297 17.6403 49.8727 18.389C48.9721 18.7969 48.096 19.3488 47.2327 19.83C47.1323 19.8866 39.8132 23.8079 39.727 23.9662C39.6756 24.0588 39.7347 23.9829 39.727 24.1347L39.7206 24.2055C39.7206 24.2132 39.709 24.2299 39.7051 24.2376C39.6665 24.2968 37.9657 25.2669 37.7547 25.3003C37.4704 25.3479 37.3096 25.2875 36.9365 25.3852C36.9815 24.6416 37.0883 24.1244 37.087 23.3268V16.4914C39.4749 16.5994 39.9444 14.047 40.3034 13.7896C40.818 13.4281 42.5355 14.0302 43.2933 11.3452C43.7372 9.77306 43.3731 7.92559 42.1213 7.44442C42.331 6.6815 42.5343 6.2518 42.2203 5.38596C41.478 3.32749 39.2201 2.93124 37.1501 3.25802C35.1405 3.57451 35.3386 3.72761 33.9762 2.54656C33.248 1.91487 33.3458 1.86598 32.2689 1.14552C31.7322 0.803793 31.1536 0.532672 30.5476 0.338858C27.281 -0.637627 24.3426 0.648914 21.947 2.25709C21.6112 2.48223 21.5842 2.63533 21.1867 2.4565C19.6801 1.77721 17.686 2.2275 16.7211 3.57579C16.5423 3.8241 16.4278 4.17018 16.2554 4.38117C14.0966 4.38117 13.0918 5.22385 12.5386 6.97226C12.271 7.82267 12.1873 8.80687 12.4794 9.674C12.7367 10.4331 13.3799 11.1844 13.8804 11.4456C13.6952 13.0756 13.6514 14.1177 14.5237 15.3464C14.8535 15.8105 15.2547 16.2196 15.7124 16.5583C15.9157 16.7114 17.1366 17.3688 17.165 17.5C17.2331 17.8127 17.165 22.6462 17.165 23.6574C17.165 24.4538 17.2936 24.8153 17.3669 25.5242C17.0749 25.4766 15.5658 24.5953 15.1914 24.3946C14.5481 24.0511 15.4165 24.1733 14.4761 23.6883L11.2597 21.9167C10.1018 21.2927 5.51404 18.7094 4.75626 18.3762C2.54084 17.3971 1.11664 18.1459 0.253372 19.7708C-0.427208 21.0419 0.374307 22.4082 1.34436 23.1441C1.70845 23.4207 2.11628 23.1145 2.84447 23.184C4.15288 23.3126 6.30912 24.7278 7.42455 25.2939C8.95425 26.0735 10.6628 26.417 12.132 27.2597C12.3687 27.3961 12.6157 27.6393 12.9039 27.6766C13.1715 27.7113 12.8743 27.5312 13.1201 27.6997C13.7801 28.1487 13.9293 29.5215 13.7955 30.2625C13.7067 30.7578 13.4752 31.1464 13.3967 31.5491C14.2123 31.8707 16.9681 33.4789 17.8777 34.0154C18.6046 34.4386 18.4785 34.3563 18.6779 35.5926C18.0745 35.5605 17.4789 35.4293 17.08 35.006L16.7455 34.566C16.6992 34.8645 16.6967 34.9056 16.8369 35.1642C16.7029 35.1105 16.5851 35.0231 16.4949 34.9104C16.4047 34.7976 16.3452 34.6635 16.3223 34.521C16.2232 33.9266 16.5899 34.0063 16.7919 33.758C16.2193 33.5985 16.164 33.7336 15.8398 34.0424L15.8205 33.9279C15.8001 33.9006 15.7832 33.8707 15.7703 33.8391C15.7525 33.8548 15.7314 33.8662 15.7086 33.8725C15.4294 34.5506 15.8527 35.3006 16.2065 35.684C16.5255 36.0288 16.9424 36.1253 17.6101 36.7904C14.6305 38.3266 11.1478 41.0244 8.48337 43.1511C8.08969 43.465 7.55706 43.8394 7.26631 44.1687C9.41998 44.4762 12.8396 44.0671 15.0267 43.7918C16.8279 43.5653 18.2714 43.1022 19.9156 42.4615C20.3839 42.2788 21.0117 41.9649 21.4671 41.8452C21.8531 42.5683 22.7048 42.9427 23.168 43.5666C24.7543 45.6984 28.7837 45.8605 30.7457 44.0903L31.8701 42.8809C32.332 42.549 32.6999 42.1604 33.1129 41.7899C35.6461 42.6519 36.5312 43.3968 39.5379 43.7763C41.7546 44.0568 45.2411 44.4814 47.418 44.1687C46.5264 43.1575 39.6987 38.2957 38.3723 37.5006C38.0751 37.3205 37.1308 36.8818 36.9455 36.6695C37.0721 36.6153 37.1806 36.526 37.2581 36.4122C37.6312 35.9464 37.8885 36.1806 38.3221 35.5952C38.7197 35.0587 38.9564 34.4849 38.6824 33.7452L38.5357 34.0398C38.3581 33.7169 38.1369 33.6114 37.6544 33.7709C37.8371 33.9973 38.1317 33.9484 38.133 34.4026C38.133 34.7242 37.8757 35.0201 37.6312 35.1346C37.72 34.8863 37.7882 34.831 37.6493 34.5917C37.3572 34.9507 37.3315 35.1591 36.8104 35.3778C36.3659 35.5612 35.8813 35.626 35.4042 35.5656C35.5226 34.7525 35.7812 34.5647 36.4734 34.2019C37.0394 33.9047 37.5026 33.623 38.0481 33.3142C38.5936 33.0054 39.0915 32.7288 39.6241 32.4278C40.0628 32.1795 40.8322 31.7253 41.2863 31.5491C41.1435 30.8144 40.2957 29.313 41.3506 27.9274L41.5912 27.6701C41.7006 27.6174 41.6015 27.6611 41.68 27.6586C41.7585 27.656 41.7366 27.7267 42.0557 27.5363C44.2595 26.2253 45.2823 26.2781 47.2121 25.3145C47.8464 24.9954 48.3571 24.6802 48.9734 24.3534C50.4696 23.5596 51.0846 23.0077 53.1328 23.2843C53.4415 23.2123 55.6081 21.4227 54.1479 19.3256ZM37.2221 15.4441C37.509 14.8781 38.4495 14.2965 38.9126 14.2013C38.7648 14.5387 38.5308 14.8312 38.234 15.0494C37.9372 15.2675 37.5882 15.4037 37.2221 15.4441ZM14.6446 24.6442C14.9238 24.7394 16.5243 25.5988 16.6555 25.8021C16.4226 25.8162 15.221 25.0752 14.8415 24.8693C14.4838 24.6738 14.7244 24.8693 14.6446 24.6442ZM10.2472 25.1858C7.33707 24.1373 7.52747 23.9314 5.10106 22.6886C4.12586 22.1895 3.22142 21.8781 1.93874 22.0454C1.81368 22.3287 1.71171 22.6217 1.63383 22.9215C1.55664 22.421 1.78822 22.138 1.54249 21.8472C0.594305 20.7177 0.968689 20.1156 1.59652 19.2034C1.29933 19.6588 0.946818 20.324 1.25301 21.0329C1.69944 22.0698 2.33628 21.7019 2.89335 21.7353C4.99942 21.864 7.01029 23.7513 9.5898 24.751C10.7927 25.2167 11.4566 25.3171 12.4318 26.1186C12.6582 26.3038 12.6621 26.2472 12.7817 26.4595C11.2855 25.6335 12.5862 26.0285 10.2472 25.1858ZM3.07604 19.6807C3.09959 19.623 3.13432 19.5706 3.17823 19.5264C3.22214 19.4822 3.27436 19.4471 3.33189 19.4232C3.38941 19.3993 3.4511 19.387 3.5134 19.387C3.57569 19.3871 3.63737 19.3994 3.69487 19.4234C4.05767 19.5752 4.22621 20.4243 3.26516 20.2854C3.15066 20.1091 2.97569 19.9612 3.07604 19.6807ZM8.20033 22.1071C8.25566 22.8019 7.32935 22.7774 7.27531 22.2268C7.21356 21.5848 8.15273 21.4999 8.20033 22.1071ZM12.4202 24.3804C12.5411 25.0469 11.6483 25.1048 11.5196 24.6236C11.3305 23.9353 12.3147 23.8067 12.4202 24.3804ZM5.60795 19.6498C5.06246 19.3501 3.84282 18.6065 2.96797 18.4752C3.94832 18.4932 4.79615 18.9538 5.73404 19.4633C7.86069 20.6212 10.9021 22.2062 12.9091 23.4348C13.2822 23.6638 13.9795 24.1283 14.2934 24.2685C12.6942 23.6227 7.43484 20.6533 5.60795 19.6498ZM13.5382 27.4694C13.3658 27.2816 13.259 27.2687 13.3259 26.987C13.6385 27.0925 13.8637 27.4939 14.0374 27.8104C14.6562 28.9425 14.6588 30.6305 14.0502 31.3432C13.9049 31.1052 15.0023 29.0712 13.5382 27.4694ZM14.4774 31.3291C14.3487 31.2158 14.2998 31.3921 14.525 30.808C14.5998 30.6133 14.6588 30.4128 14.7012 30.2085C14.9158 29.2899 14.7635 28.3238 14.2767 27.5157C14.0682 27.1504 13.744 26.8429 13.5974 26.5727L14.4195 25.0662L16.4779 25.878C16.137 26.7425 16.2206 26.5663 16.4779 27.4604C16.5886 27.8361 16.2644 28.2324 15.9222 28.8319C15.6816 29.2577 15.4603 29.6964 15.2133 30.1339C15.0859 30.3513 14.6626 31.2905 14.4774 31.3239V31.3291ZM14.9482 31.8437C14.9084 31.4577 15.6121 30.3989 15.8089 30.0129C16.1074 29.4288 16.541 28.7971 16.7584 28.2452C17.1186 28.563 16.9488 28.7894 16.8021 29.0635C16.6555 29.3375 16.4934 29.6282 16.3429 29.901C16.1023 30.3371 15.5413 31.2416 15.4153 31.6417C15.8012 31.8681 16.2695 32.1254 16.6941 32.3519C16.8922 32.4561 17.1637 32.5989 17.3219 32.6954C17.722 32.9411 17.3528 32.86 17.6899 33.3644L14.9482 31.8437ZM18.1646 29.3928C17.9395 29.1149 17.4609 28.1063 17.2949 27.7293C17.0376 27.1478 16.4419 26.161 17.5779 26.1726C17.8095 27.0397 18.3794 28.4163 18.1659 29.3915L18.1646 29.3928ZM15.4629 43.2784C13.2256 43.5628 10.7554 43.8381 8.47566 43.8021C8.68536 43.5448 10.5341 42.1707 10.8596 41.9121C12.563 40.5857 15.2802 38.6019 17.192 37.5521C17.4493 37.4144 17.6847 37.2947 17.9073 37.1661C18.3524 36.9088 18.346 36.874 18.6522 37.1995C17.9587 37.7142 18.2019 37.1365 17.7143 38.3356L15.9312 42.7883C17.1289 42.6403 18.9803 41.9327 20.0056 41.494C19.8965 41.0022 19.9359 40.489 20.1189 40.0196C20.2346 39.7533 20.1446 39.9399 20.2269 39.8344C20.4456 40.4429 20.8483 40.9434 21.1275 41.4927C19.958 41.7822 18.2032 42.9272 15.4603 43.2772L15.4629 43.2784ZM31.7402 42.1399L31.7016 41.485C31.4893 41.7204 31.2822 42.428 31.0815 42.7561C29.8309 44.7966 26.199 45.2353 24.3554 43.8728C23.3172 43.1009 23.2722 42.2801 22.8862 41.5416L22.7923 42.347C21.7489 41.6149 20.1832 38.652 19.9799 37.5572L21.0516 37.5868C21.4646 38.2185 22.0577 39.7405 22.9351 40.6925C22.8064 40.2319 22.0718 38.9235 21.7412 37.7579C22.3581 37.6948 22.9713 37.5999 23.5784 37.4736C24.2216 38.0319 24.2036 39.0856 27.2077 39.1203C28.8557 39.1384 30.2825 38.4076 30.9387 37.5057C31.6617 37.6215 32.0618 37.7823 32.8685 37.7309C32.7398 38.571 31.8122 40.183 31.6836 40.6899C32.0695 40.2757 32.3603 39.7302 32.6729 39.222C32.8389 38.9531 32.9855 38.7074 33.1232 38.4398C33.2545 38.1502 33.4022 37.8684 33.5658 37.5958L34.3133 37.5739C33.9942 39.5874 33.3085 40.9768 31.7376 42.1386L31.7402 42.1399ZM30.2697 37.2446C30.0883 37.5971 29.3845 37.9676 29.0397 38.1194C28.4835 38.3659 27.8788 38.4837 27.2707 38.4642C26.3071 38.4642 25.4567 38.4205 24.7491 37.8364L24.2667 37.2008C24.8173 37.1391 29.8219 37.1622 30.2671 37.2433L30.2697 37.2446ZM25.7114 36.5318C25.889 36.2655 26.0974 36.3903 26.4834 35.6454C27.2965 35.9027 27.1022 35.9169 28.0272 35.7972C28.3205 36.133 28.3759 36.2539 28.7464 36.5357L25.7114 36.5318ZM38.7428 42.787L37.5206 39.7173C37.3919 39.397 36.7731 37.6756 36.5467 37.5122L36.0501 37.2304C36.0089 37.2008 35.8906 37.0683 35.8687 37.0542C36.1697 36.9255 36.3203 36.8972 36.6406 37.0915L38.6991 38.2725C39.9637 39.038 42.5728 40.9524 43.7719 41.8838L45.5988 43.299C45.8149 43.4452 46.0143 43.6147 46.1932 43.8046C43.8993 43.8407 41.4008 43.5641 39.1481 43.2733C37.2672 43.0301 34.981 42.1283 33.432 41.4271C33.5606 41.1814 33.7896 40.9459 33.9788 40.6719C34.1679 40.3979 34.2862 40.0647 34.4586 39.7996C34.7159 40.2088 34.7893 41.018 34.6606 41.4953C35.7182 41.9327 37.518 42.6352 38.7402 42.7857L38.7428 42.787ZM36.2598 25.4444C36.1826 26.0041 36.1208 26.6023 36.0025 27.1439C35.8417 26.7798 35.8931 23.8298 34.9411 23.1441C35.5972 25.0199 35.2254 25.7056 35.3734 27.0873C35.4428 27.7486 35.8005 28.1166 35.888 28.7676C35.9656 29.4793 35.9991 30.1951 35.9883 30.9109C35.9883 31.7575 35.9472 32.0817 35.6191 32.7867L34.9347 34.0449C34.9175 34.0721 34.8972 34.0971 34.8742 34.1196C34.8425 34.1597 34.8062 34.1959 34.7661 34.2276C34.6889 34.0166 34.6375 33.9768 34.4316 33.879C34.4818 34.4939 34.402 34.8413 34.3403 35.4113C33.3291 35.2196 30.9953 34.5673 30.0947 33.9201C29.8644 33.7568 29.8786 33.7104 29.6779 33.5342L29.5492 33.8262C29.3189 33.6423 29.4205 33.6667 29.2855 33.4609C29.1401 33.668 29.1787 33.7735 29.0989 34.0025L28.8609 33.6474C28.8467 33.632 28.8313 33.6178 28.8184 33.6049L28.7721 33.5625C28.7561 33.5479 28.7394 33.5342 28.722 33.5213L28.4852 34.0449L28.3308 33.7182C28.2022 33.9034 28.188 34.0539 28.1083 34.2006L27.8715 33.8841C27.5641 34.3306 27.7146 34.8297 27.7339 35.3109C27.308 35.3636 27.0675 35.3624 26.7445 35.1282C26.7162 34.84 26.7947 34.3447 26.63 34.0154C26.6132 33.9719 26.5868 33.9328 26.5528 33.9008L26.3161 34.1582C26.3013 34.1718 26.2853 34.1843 26.2685 34.1955C26.2364 33.9292 26.2595 33.915 26.1 33.7439C26.0176 33.8404 25.9546 33.9523 25.8697 34.0501C25.8395 33.8572 25.7582 33.676 25.6343 33.5252C25.4683 33.713 25.5275 33.8159 25.31 33.9973C25.2624 33.7915 25.274 33.641 25.1274 33.4737C25.0605 33.5754 24.9781 33.731 24.9241 33.8314C24.9079 33.8178 24.8897 33.807 24.87 33.7992C24.8517 33.7456 24.8257 33.6949 24.7929 33.6487L24.7388 33.5496C23.8099 34.5325 21.1365 35.2582 19.8641 35.4679L19.7046 34.3962C19.6982 34.4077 19.6789 34.4103 19.6737 34.4373C19.6686 34.4644 19.6441 34.4682 19.6377 34.4785C19.5438 34.6149 19.6184 34.4785 19.5541 34.6072C19.4421 34.8375 19.4254 35.2388 19.3083 35.4563C19.2453 35.0909 19.1437 34.7474 19.078 34.3679C19.0163 34.0076 19.0536 33.2859 18.9867 33.0993C18.8748 32.7828 18.6895 32.5526 18.5814 32.1447C18.4749 31.7241 18.4574 31.2859 18.53 30.8582C18.8941 28.6273 19.033 28.4588 19.0317 25.9204L19.0201 24.9349C18.7487 25.3338 18.6651 26.4183 18.5223 26.9535C18.2868 26.5753 17.6989 24.4486 17.8957 23.9392C18.1749 23.2174 19.5129 22.6758 20.2115 22.4365C23.9322 21.1615 30.1178 21.1692 33.8488 22.376C36.822 23.3319 36.4438 24.0833 36.2572 25.4431L36.2598 25.4444ZM36.4283 16.7191C36.4283 18.7776 36.409 20.8463 36.4283 22.9048C32.9392 20.4732 25.9752 20.4488 21.8788 21.3018C20.6553 21.5591 19.7316 21.8087 18.6625 22.367C18.3765 22.5294 18.1015 22.7104 17.8391 22.9086C17.7812 22.3258 17.8249 21.5372 17.8249 20.9312C17.8249 19.3411 17.4969 18.5318 20.196 17.2955C23.7482 15.668 28.9574 15.7233 32.7578 16.8053C33.2969 16.9597 33.4307 17.0099 33.4719 17.6313C33.48 18.1299 33.4416 18.6282 33.3574 19.1198C33.2068 20.2288 33.1965 20.2777 31.5099 20.4681C31.7222 20.5967 32.3256 20.6598 32.6523 20.7331C34.5603 21.159 35.3013 21.6337 35.8082 21.7623L35.8018 17.4537C34.9141 16.7693 33.7909 16.4965 33.3419 16.1968C34.4844 16.1968 35.2524 16.5068 35.8095 16.539V15.9382C35.8211 14.1473 37.7136 13.1258 39.3642 12.6716C40.5607 12.3423 41.2709 12.6137 41.7958 11.6669C42.1264 11.0712 42.4674 9.47973 41.9167 8.90207C41.5693 9.12336 41.0097 9.93131 39.5456 10.2028C39.7425 10.0432 40.0744 9.66242 40.149 9.2816C39.1571 9.33178 38.4508 9.44757 37.491 9.15295C36.2945 8.79014 36.135 8.27939 35.7619 7.9822C35.0453 8.24594 34.586 8.4698 33.7382 8.27682C33.6095 9.01272 32.974 9.49517 32.4851 9.81037C32.0464 10.0934 32.0322 10.0008 31.8843 10.5733C31.7852 10.9593 31.7556 11.4584 31.9383 11.7826C32.2664 11.4469 32.341 10.9721 32.7643 10.7367C34.2541 9.90815 33.7112 14.366 33.6648 15.1418C33.6275 15.7954 33.2583 15.9034 32.588 15.951C31.4777 16.0321 29.1761 15.5342 26.9478 15.5381C25.1658 15.5279 23.3909 15.763 21.673 16.2366C20.6515 16.53 19.4357 17.0086 18.602 17.6351C18.2868 17.8718 18.0617 18.1497 17.8301 18.3234C17.8069 17.2672 17.7722 16.3627 17.7889 15.2923C17.7966 14.7636 17.8468 14.2978 17.65 13.8321C17.4943 13.4616 17.1894 13.0872 16.9179 12.9714C17.0183 13.6597 17.3039 14.4998 16.7069 14.9012C16.0701 14.9951 15.4346 14.2927 15.23 13.8553C14.844 13.0422 15.1168 12.507 15.3406 11.7968C15.6944 11.9949 16.0392 12.498 16.6799 12.5559C15.441 11.3671 15.0229 10.1912 14.5649 8.49681C14.1956 9.08991 14.5558 10.1693 14.7128 10.765C12.6466 10.3327 12.7225 8.2395 13.313 6.77799C14.2728 4.41076 16.4239 5.25087 17.7297 5.05532L16.9578 4.59731C17.1405 3.92059 17.7439 3.3365 18.3589 3.07662C19.3958 2.63919 19.8654 2.80516 20.8831 3.02258C20.8007 3.21299 20.8766 3.09334 20.739 3.25287C20.676 3.31919 20.609 3.38149 20.5383 3.43942C20.398 3.56808 20.3041 3.65299 20.1665 3.78035C19.9426 3.98491 19.6132 4.23064 19.4254 4.51497C20.4714 4.03123 21.444 3.35708 22.3844 2.76527C24.9061 1.19183 27.8728 -0.151314 30.9309 1.19569C32.3371 1.81581 33.1 2.64691 34.1151 3.58351C34.2927 3.74819 34.3197 3.84082 34.5358 4.00679C35.0723 4.41205 35.87 5.05918 36.8696 4.92795C36.4605 4.63719 36.0192 4.59988 35.6332 4.21006L36.2932 4.09556C36.5158 4.06211 36.7255 4.01836 36.952 3.9772C37.4352 3.88291 37.9244 3.8223 38.416 3.79579C40.3677 3.70831 42.0904 5.15181 41.6401 6.78571C41.505 7.27846 40.6868 8.63962 40.4629 8.78371C41.2091 8.71553 41.6131 7.5229 42.3361 8.38875C43.1647 9.37809 42.8983 11.91 41.6028 12.7746C41.0367 13.1515 38.5537 13.1091 37.19 14.4471C36.9327 14.6967 36.6972 14.8613 36.5261 15.2769C36.3653 15.6783 36.4258 16.2637 36.4258 16.7178L36.4283 16.7191ZM36.6123 32.7211C36.3949 32.4998 36.6123 32.2348 36.6419 31.4281C36.6599 30.8826 36.557 30.359 36.8529 29.9537C37.0369 30.7887 36.8503 31.9646 36.6097 32.7198L36.6123 32.7211ZM37.0497 27.9364C37.0407 27.5003 37.1642 27.198 37.0382 26.9947C36.9235 27.1887 36.7862 27.3684 36.629 27.5299C36.7127 26.7889 36.6689 26.2524 37.0626 26.0555C38.335 25.4213 37.3405 27.5865 37.0484 27.9352L37.0497 27.9364ZM40.1953 31.3252C40.0062 31.2917 39.5868 30.3539 39.4607 30.13C39.2163 29.6951 38.9937 29.2539 38.7518 28.8293C38.6399 28.6312 38.0725 27.6483 38.0571 27.5235C38.0211 27.2404 38.4328 26.74 38.3234 25.851L40.2262 25.0482L41.0779 26.5624C40.7164 27.2173 39.534 28.1269 39.9586 30.1467C40.0808 30.7282 40.1516 30.7308 40.2442 31.0357C40.3368 31.3406 40.3407 31.194 40.1927 31.3239L40.1953 31.3252ZM40.4243 28.9104C40.1323 30.332 40.8039 31.0434 40.6225 31.3445C40.0126 30.6318 40.0165 28.9451 40.6353 27.8117C40.809 27.4926 41.0444 27.0912 41.3455 26.9883C41.4536 27.5029 40.7215 27.4514 40.4218 28.9091L40.4243 28.9104ZM40.3793 24.2685L43.1158 22.6488C44.0549 22.12 45.0263 21.5848 45.9899 21.0496C46.9767 20.5015 47.9004 20.0204 48.8923 19.4826C49.717 19.0362 50.5648 18.537 51.6211 18.4868C50.7295 18.6515 49.5369 19.3874 49.102 19.6241L43.319 22.7839C42.4403 23.2612 41.2541 23.9121 40.3767 24.2672L40.3793 24.2685ZM51.4075 20.2802C50.4465 20.4192 50.6124 19.5701 50.9765 19.4183C51.0852 19.3733 51.2066 19.3702 51.3174 19.4097C51.4281 19.4492 51.5203 19.5283 51.5761 19.6318C51.715 19.9149 51.5259 20.095 51.4049 20.2841L51.4075 20.2802ZM47.3601 22.3516C47.1529 22.8662 46.2433 22.6089 46.5045 21.9502C46.6975 21.4613 47.6097 21.7263 47.3575 22.3554L47.3601 22.3516ZM42.2628 24.6197C42.093 23.9456 43.0592 23.7835 43.1634 24.3714C43.2676 25.0237 42.3786 25.0932 42.2602 24.6236L42.2628 24.6197ZM53.1341 21.8408C52.8909 22.1303 53.1186 22.4146 53.044 22.9138C52.9632 22.6153 52.8613 22.323 52.7391 22.0389C50.5365 21.7585 49.0622 23.0206 47.1568 24.0254C46.2914 24.4706 45.3944 24.8516 44.4731 25.1652C42.0621 26.0362 43.4284 25.6078 41.9 26.4518C42.0055 26.2665 42.0183 26.2961 42.2152 26.1392C43.3268 25.2489 43.7076 25.2797 45.0919 24.7433C46.3707 24.2479 47.2263 23.7295 48.3082 23.0952C51.7999 21.0457 52.1589 21.9682 52.8292 21.716C53.4184 21.496 53.7104 20.4539 53.3978 19.673C53.7735 20.3176 53.9394 20.8823 53.1302 21.8447L53.1341 21.8408Z" fill="#656565"/>
<path d="M67.9681 16.8292H66.1913V31.3633H64.0068V14.6774H70.1125V31.3743H67.9498V16.8292H67.9681ZM76.189 27.0235H74.4596L73.9572 31.3524H71.8856L74.0482 14.6774H76.6696L78.8541 31.3743H76.7352L76.189 27.0235ZM74.7109 24.9263H75.9415L75.3262 19.7746L74.7109 24.9263ZM82.7717 23.9725V31.3524H80.609V14.6774H84.8906C85.4209 14.6812 85.9284 14.8933 86.3037 15.2679C86.6789 15.6425 86.8919 16.1496 86.8967 16.6799V21.9882C86.891 22.5185 86.6778 23.0255 86.3029 23.4004C85.9279 23.7754 85.4209 23.9886 84.8906 23.9943L82.7717 23.9725ZM82.7717 16.7491V21.8863H84.2098C84.2773 21.8865 84.3442 21.8735 84.4067 21.8479C84.4692 21.8223 84.526 21.7846 84.5739 21.737C84.6211 21.689 84.6584 21.6321 84.6834 21.5696C84.7084 21.5071 84.7207 21.4402 84.7195 21.3729V17.2952C84.722 17.226 84.7103 17.157 84.6851 17.0925C84.6599 17.0279 84.6217 16.9693 84.5728 16.9202C84.524 16.871 84.4657 16.8324 84.4013 16.8067C84.337 16.7811 84.2681 16.7689 84.1989 16.7709L82.7717 16.7491ZM88.0363 14.6774H93.7524V16.8401H91.9757V31.3743H89.7912V16.8292H88.0363V14.6774ZM99.8581 14.6774H101.908V31.3743H99.7233V24.9628L99.818 21.5222H99.7925L97.5388 31.3524H95.4891V14.6774H97.6517V21.078L97.5753 24.5077H97.5971L99.8581 14.6774ZM105.505 24.3329C105.114 24.1977 104.775 23.943 104.537 23.6047C104.292 23.2633 104.165 22.8522 104.172 22.4324V16.669C104.177 16.1387 104.39 15.6316 104.765 15.257C105.141 14.8824 105.648 14.6703 106.179 14.6665H110.46V31.3597H108.297V24.4421H107.544L105.243 31.3597H103.102L105.505 24.3329ZM106.324 21.828C106.324 21.9643 106.378 22.0952 106.473 22.1921C106.521 22.2394 106.578 22.2766 106.641 22.3016C106.703 22.3266 106.77 22.3389 106.838 22.3377H108.272V16.76H106.838C106.768 16.758 106.699 16.7702 106.635 16.7958C106.57 16.8214 106.511 16.86 106.462 16.9091C106.413 16.9581 106.375 17.0167 106.349 17.0813C106.323 17.1458 106.311 17.2149 106.313 17.2843L106.324 21.828ZM116.915 14.6774H121.929V16.8401H119.082V21.9591H121.929V24.0526H119.082V29.2007H121.929V31.3633H116.915V14.6774ZM123.593 29.208C123.699 28.4046 123.787 27.464 123.855 26.3863C123.924 25.2941 123.979 24.1363 124.026 22.8766C124.073 21.6168 124.106 20.2879 124.128 18.8899C124.15 17.4918 124.161 16.0864 124.161 14.6774H129.811V29.208H130.707V31.3743H122.843V29.208H123.593ZM127.645 29.208V16.8292H126.258C126.258 17.5573 126.218 18.4457 126.189 19.5379C126.159 20.6302 126.119 21.7661 126.076 22.9457C126.032 24.1254 125.974 25.2686 125.905 26.3827C125.835 27.4968 125.748 28.4398 125.642 29.197L127.645 29.208ZM132.163 31.3633V14.6774H134.348V21.6678H136.397C136.928 21.6726 137.435 21.8856 137.809 22.2609C138.184 22.6362 138.396 23.1437 138.4 23.6739V29.3682C138.396 29.8984 138.184 30.4059 137.809 30.7812C137.435 31.1565 136.928 31.3695 136.397 31.3743L132.163 31.3633ZM142.325 31.3633H140.173V14.6774H142.357L142.325 31.3633ZM134.315 23.754V29.2662H135.68C135.747 29.2674 135.814 29.2551 135.877 29.2301C135.939 29.2051 135.996 29.1679 136.044 29.1206C136.14 29.0234 136.193 28.8927 136.193 28.7565V24.2783C136.196 24.2089 136.183 24.1398 136.158 24.0753C136.132 24.0108 136.094 23.9522 136.044 23.9031C135.995 23.854 135.937 23.8154 135.872 23.7898C135.808 23.7642 135.739 23.752 135.669 23.754H134.315Z" fill="#656565"/>
<path d="M64.6186 35.6778C65.0885 35.2296 65.713 34.9795 66.3625 34.9795C67.012 34.9795 67.6365 35.2296 68.1065 35.6778C68.5405 36.1214 68.7836 36.7174 68.7836 37.3381C68.7836 37.9587 68.5405 38.5547 68.1065 38.9983C67.634 39.4416 67.0104 39.6884 66.3625 39.6884C65.7146 39.6884 65.091 39.4416 64.6186 38.9983C64.1845 38.5547 63.9414 37.9587 63.9414 37.3381C63.9414 36.7174 64.1845 36.1214 64.6186 35.6778ZM68.0992 37.3381C68.1042 37.1068 68.063 36.877 67.978 36.6619C67.8929 36.4468 67.7658 36.2509 67.604 36.0856C67.2712 35.7631 66.826 35.5827 66.3625 35.5827C65.8991 35.5827 65.4538 35.7631 65.121 36.0856C64.8036 36.4232 64.6268 36.8692 64.6268 37.3326C64.6268 37.796 64.8036 38.242 65.121 38.5796C65.4538 38.9021 65.8991 39.0825 66.3625 39.0825C66.826 39.0825 67.2712 38.9021 67.604 38.5796C67.7625 38.4149 67.8866 38.2203 67.9691 38.0071C68.0517 37.794 68.0909 37.5665 68.0846 37.3381H68.0992Z" fill="#656565"/>
<path fill-rule="evenodd" clip-rule="evenodd" d="M70.6953 39.5732H70.0254V35.0913H70.6953V36.9773H73.4478V35.0913H74.1177V39.5732H73.4478V37.578H70.6953V39.5732Z" fill="#656565"/>
<path fill-rule="evenodd" clip-rule="evenodd" d="M75.1006 39.5734V38.9581C75.1587 38.9639 75.2172 38.9639 75.2753 38.9581C75.6649 38.9581 75.9307 38.7106 76.0763 38.23C76.215 37.6711 76.2895 37.0982 76.2984 36.5224L76.3348 35.0952H79.6844V39.5771H79.0072V35.6814H76.9683L76.9392 36.5443C76.9392 36.8756 76.9137 37.1195 76.9028 37.2724C76.88 37.7288 76.7892 38.1791 76.6334 38.6086C76.5312 38.8923 76.3553 39.1437 76.1237 39.3368C75.8896 39.5271 75.5904 39.6186 75.2899 39.5916C75.2265 39.5888 75.1633 39.5827 75.1006 39.5734Z" fill="#656565"/>
<path d="M82.5855 39.6825C82.1477 39.6944 81.7189 39.557 81.3695 39.2929C81.2087 39.1612 81.0806 38.9941 80.9953 38.8046C80.91 38.615 80.8698 38.4083 80.878 38.2006C80.8706 37.9901 80.9141 37.781 81.0047 37.5908C81.0953 37.4007 81.2305 37.2352 81.3986 37.1084C81.7806 36.8308 82.2448 36.6898 82.7166 36.7079C83.2839 36.7046 83.8414 36.8556 84.3295 37.1448V36.7043C84.3295 35.9567 83.838 35.5829 82.855 35.5829C82.3348 35.5851 81.8274 35.7436 81.3986 36.038V35.3863C81.8854 35.1035 82.4415 34.9622 83.0042 34.9785C83.5249 34.9521 84.039 35.105 84.4606 35.4118C84.6427 35.5578 84.7871 35.7455 84.8815 35.9591C84.9759 36.1726 85.0176 36.4057 85.003 36.6387V38.4883C84.9956 38.6333 85.0366 38.7768 85.1195 38.896C85.1556 38.9443 85.2031 38.9829 85.2577 39.0083C85.3124 39.0338 85.3725 39.0452 85.4327 39.0417C85.5219 39.0438 85.6104 39.0251 85.6912 38.9871V39.5077C85.5559 39.5836 85.4017 39.619 85.247 39.6096C85.0435 39.616 84.8441 39.5517 84.6826 39.4276C84.5249 39.2926 84.4247 39.1024 84.4023 38.896C84.1786 39.1559 83.8989 39.3617 83.5842 39.4979C83.2696 39.6341 82.9281 39.6972 82.5855 39.6825ZM82.7712 39.0817C83.0779 39.082 83.3801 39.0083 83.6523 38.8669C83.9139 38.7376 84.1448 38.5539 84.3295 38.3281V37.7091C83.8991 37.419 83.3922 37.2631 82.8732 37.2613C82.5336 37.2434 82.1965 37.3271 81.9047 37.5016C81.7913 37.5696 81.6979 37.6664 81.634 37.7821C81.57 37.8978 81.5378 38.0284 81.5406 38.1606C81.5349 38.2933 81.5633 38.4253 81.6233 38.5439C81.6832 38.6625 81.7726 38.7637 81.8829 38.8378C82.1461 39.0092 82.4577 39.091 82.7712 39.0708V39.0817Z" fill="#656565"/>
<path d="M87.3814 39.5732H86.7588V35.0913H87.4251V38.5902L90.294 35.0913H90.913V39.5732H90.2576V36.0853L87.3814 39.5732ZM88.8377 34.3304C88.4372 34.3496 88.045 34.211 87.7455 33.9445C87.6053 33.8142 87.4945 33.6556 87.4204 33.4792C87.3463 33.3028 87.3107 33.1126 87.3158 32.9214H87.9093C87.9047 33.0381 87.9247 33.1545 87.968 33.263C88.0113 33.3715 88.0768 33.4697 88.1605 33.5513C88.2509 33.6334 88.3566 33.6969 88.4715 33.7381C88.5865 33.7794 88.7084 33.7975 88.8304 33.7915C88.9501 33.797 89.0697 33.7786 89.1823 33.7373C89.2948 33.696 89.3979 33.6328 89.4858 33.5513C89.5696 33.4693 89.6361 33.3713 89.6811 33.2631C89.7262 33.1548 89.7489 33.0386 89.7479 32.9214H90.3304C90.3358 33.1118 90.3005 33.3012 90.2271 33.4769C90.1537 33.6527 90.0437 33.8108 89.9045 33.9408C89.62 34.2047 89.2438 34.347 88.8559 34.3377L88.8377 34.3304Z" fill="#656565"/>
<path fill-rule="evenodd" clip-rule="evenodd" d="M93.1699 39.5732H92.5V35.0913H93.1699V36.9773H95.926V35.0913H96.5923V39.5732H95.926V37.578H93.1699V39.5732Z" fill="#656565"/>
<path d="M101.285 38.8563V41.4267H100.619V35.0917H101.285V35.8198C101.486 35.5519 101.749 35.3369 102.052 35.1936C102.355 35.0502 102.688 34.9827 103.022 34.997C103.326 34.9879 103.628 35.0443 103.909 35.1624C104.189 35.2805 104.44 35.4576 104.646 35.6815C105.052 36.1413 105.276 36.7336 105.276 37.3471C105.276 37.9607 105.052 38.553 104.646 39.0128C104.441 39.2373 104.189 39.4147 103.909 39.5329C103.629 39.651 103.326 39.7071 103.022 39.6973C102.686 39.7098 102.352 39.6397 102.049 39.493C101.746 39.3464 101.484 39.1278 101.285 38.8563ZM101.285 36.5953V38.0698C101.42 38.3688 101.639 38.6218 101.915 38.798C102.196 38.9839 102.525 39.0827 102.862 39.082C103.091 39.0899 103.32 39.0492 103.533 38.9626C103.745 38.876 103.937 38.7455 104.096 38.5796C104.42 38.2437 104.596 37.7932 104.588 37.3271C104.593 37.0978 104.552 36.8699 104.467 36.6567C104.383 36.4434 104.257 36.2493 104.096 36.0856C103.937 35.9197 103.745 35.7892 103.533 35.7026C103.32 35.616 103.091 35.5753 102.862 35.5832C102.529 35.5835 102.203 35.6823 101.926 35.8672C101.647 36.043 101.424 36.2959 101.285 36.5953Z" fill="#656565"/>
<path d="M108.661 39.6825C108.01 39.7017 107.378 39.4651 106.899 39.0235C106.667 38.8102 106.483 38.5491 106.361 38.2581C106.239 37.9671 106.182 37.6531 106.193 37.3378C106.174 36.7174 106.401 36.1146 106.823 35.6594C107.032 35.4363 107.287 35.2605 107.571 35.1438C107.854 35.027 108.159 34.9719 108.465 34.9822C108.797 34.9759 109.126 35.0509 109.422 35.2006C109.684 35.3333 109.909 35.5283 110.077 35.7686C110.236 35.9977 110.358 36.2493 110.442 36.515C110.521 36.7722 110.561 37.0396 110.562 37.3087V37.4943H106.877C106.889 37.7172 106.946 37.9352 107.047 38.1345C107.147 38.3338 107.288 38.5101 107.46 38.6521C107.839 38.9451 108.31 39.0935 108.789 39.0708C109.299 39.0747 109.799 38.9292 110.227 38.6521V39.2456C109.768 39.5612 109.217 39.7149 108.661 39.6825ZM106.888 36.9482H109.885C109.865 36.6 109.727 36.2689 109.495 36.0089C109.364 35.8611 109.2 35.7457 109.017 35.6718C108.834 35.5979 108.636 35.5675 108.439 35.5829C108.239 35.5752 108.04 35.6072 107.852 35.6772C107.665 35.7472 107.493 35.8538 107.347 35.9907C107.079 36.2408 106.915 36.5827 106.888 36.9482Z" fill="#656565"/>
<path fill-rule="evenodd" clip-rule="evenodd" d="M113.872 39.6828C113.558 39.6925 113.245 39.6384 112.952 39.5239C112.659 39.4094 112.393 39.2368 112.168 39.0166C111.946 38.7961 111.771 38.5325 111.655 38.2419C111.538 37.9514 111.483 37.6401 111.491 37.3272C111.483 37.0164 111.539 36.7073 111.657 36.4196C111.775 36.1319 111.952 35.8718 112.176 35.6561C112.4 35.4336 112.666 35.2588 112.96 35.1424C113.253 35.026 113.567 34.9704 113.883 34.9789C114.356 34.9669 114.823 35.08 115.237 35.3066V35.9255C114.855 35.7019 114.421 35.5838 113.978 35.5833C113.74 35.5753 113.503 35.6158 113.282 35.7021C113.06 35.7885 112.858 35.919 112.689 36.0857C112.519 36.2459 112.386 36.4406 112.298 36.6566C112.21 36.8727 112.17 37.1051 112.179 37.3381C112.173 37.5708 112.215 37.8023 112.302 38.018C112.39 38.2336 112.522 38.4286 112.689 38.5906C113.037 38.9171 113.5 39.0937 113.978 39.0821C114.454 39.0864 114.921 38.9509 115.321 38.6925V39.3042C114.882 39.5609 114.381 39.6918 113.872 39.6828Z" fill="#656565"/>
<path fill-rule="evenodd" clip-rule="evenodd" d="M118.354 39.5732H117.687V35.6775H116.063V35.0913H119.977V35.6775H118.354V39.5732Z" fill="#656565"/>
<path d="M121.241 35.6778C121.711 35.2296 122.335 34.9795 122.985 34.9795C123.634 34.9795 124.259 35.2296 124.729 35.6778C125.163 36.1214 125.406 36.7174 125.406 37.3381C125.406 37.9587 125.163 38.5547 124.729 38.9983C124.256 39.4416 123.632 39.6884 122.985 39.6884C122.337 39.6884 121.713 39.4416 121.241 38.9983C120.807 38.5547 120.563 37.9587 120.563 37.3381C120.563 36.7174 120.807 36.1214 121.241 35.6778ZM124.721 37.3381C124.727 37.1071 124.686 36.8773 124.602 36.6622C124.518 36.4471 124.391 36.2511 124.23 36.0856C123.896 35.7637 123.45 35.5838 122.986 35.5838C122.523 35.5838 122.077 35.7637 121.743 36.0856C121.426 36.4232 121.249 36.8692 121.249 37.3326C121.249 37.796 121.426 38.242 121.743 38.5796C122.077 38.9015 122.523 39.0814 122.986 39.0814C123.45 39.0814 123.896 38.9015 124.23 38.5796C124.39 38.4156 124.515 38.2213 124.599 38.0081C124.683 37.7949 124.723 37.5671 124.718 37.3381H124.721Z" fill="#656565"/>
<path d="M127.314 38.8561V41.4265H126.647V35.0915H127.314V35.8197C127.514 35.5523 127.777 35.3376 128.079 35.1943C128.381 35.0509 128.713 34.9832 129.047 34.9968C129.351 34.987 129.653 35.0431 129.934 35.1613C130.214 35.2794 130.465 35.4568 130.671 35.6813C131.079 36.14 131.305 36.7328 131.305 37.347C131.305 37.9612 131.079 38.554 130.671 39.0127C130.466 39.2377 130.214 39.4155 129.934 39.5337C129.654 39.6519 129.351 39.7077 129.047 39.6971C128.711 39.7091 128.378 39.6386 128.076 39.492C127.774 39.3454 127.512 39.1271 127.314 38.8561ZM127.314 36.5952V38.0697C127.448 38.3686 127.667 38.6217 127.944 38.7979C128.224 38.9838 128.554 39.0826 128.89 39.0818C129.12 39.0897 129.348 39.049 129.561 38.9624C129.774 38.8758 129.966 38.7453 130.124 38.5794C130.448 38.2436 130.625 37.7931 130.616 37.327C130.621 37.0977 130.58 36.8697 130.496 36.6565C130.411 36.4433 130.285 36.2491 130.124 36.0854C129.966 35.9195 129.774 35.789 129.561 35.7024C129.348 35.6159 129.12 35.5752 128.89 35.583C128.557 35.5834 128.232 35.6822 127.955 35.867C127.675 36.0428 127.453 36.2957 127.314 36.5952Z" fill="#656565"/>
<path d="M133.87 39.6828C133.433 39.6941 133.004 39.5568 132.654 39.2932C132.494 39.161 132.367 38.9938 132.281 38.8044C132.196 38.615 132.156 38.4085 132.163 38.2009C132.156 37.9904 132.199 37.7813 132.29 37.5912C132.38 37.401 132.515 37.2355 132.684 37.1087C133.066 36.8311 133.53 36.6901 134.002 36.7082C134.569 36.7049 135.126 36.8559 135.614 37.1451V36.7046C135.614 35.957 135.123 35.5832 134.14 35.5832C133.62 35.5847 133.112 35.7433 132.684 36.0383V35.3866C133.169 35.1033 133.724 34.962 134.286 34.9788C134.806 34.9533 135.32 35.1061 135.742 35.4121C135.922 35.5595 136.066 35.7475 136.16 35.9606C136.254 36.1738 136.297 36.4063 136.284 36.639V38.4886C136.275 38.6338 136.316 38.7778 136.401 38.8963C136.437 38.9441 136.483 38.9824 136.537 39.0078C136.591 39.0332 136.651 39.0449 136.71 39.042C136.8 39.0441 136.888 39.0254 136.969 38.9874V39.508C136.834 39.5839 136.679 39.6193 136.525 39.61C136.322 39.6164 136.124 39.552 135.964 39.4279C135.804 39.2942 135.702 39.1036 135.68 38.8963C135.457 39.1554 135.179 39.3608 134.865 39.497C134.552 39.6332 134.212 39.6967 133.87 39.6828ZM134.056 39.082C134.363 39.0823 134.665 39.0086 134.937 38.8672C135.2 38.7399 135.431 38.5559 135.614 38.3284V37.7094C135.184 37.4193 134.677 37.2634 134.158 37.2616C133.819 37.2437 133.481 37.3274 133.19 37.5019C133.077 37.5707 132.984 37.6677 132.92 37.7832C132.857 37.8988 132.824 38.0289 132.826 38.1609C132.82 38.2936 132.848 38.4256 132.908 38.5442C132.968 38.6628 133.058 38.764 133.168 38.8381C133.432 39.0079 133.743 39.0895 134.056 39.0711V39.082Z" fill="#656565"/>
<path fill-rule="evenodd" clip-rule="evenodd" d="M138.724 39.5732H138.054V35.0913H138.724V36.9773H141.476V35.0913H142.146V39.5732H141.476V37.578H138.724V39.5732Z" fill="#656565"/>
</svg>
