<svg width="47" height="40" viewBox="0 0 47 40" fill="none" xmlns="http://www.w3.org/2000/svg">
<path d="M46.512 12.5089V9.66424C46.5257 8.32476 46.2955 6.99397 45.8327 5.73693C45.3832 4.56707 44.6544 3.52489 43.7098 2.70123C42.5466 1.77369 41.2013 1.10105 39.7613 0.726967C37.8753 0.20376 35.9226 -0.0394302 33.9659 0.00519236H0V5.90676H33.9659C37.2775 5.90676 38.9546 7.13802 38.9546 9.60055V12.5513C38.9546 15.0139 37.2775 16.2451 33.9659 16.2451H0V40H7.55741V22.1467H28.6162L37.9993 40H46.045L36.6407 22.0405C39.4722 22.0133 42.1881 20.9133 44.2405 18.9624C45.772 17.1675 46.5816 14.8673 46.512 12.5089Z" fill="#010101"/>
</svg>
