<svg width="103" height="46" viewBox="0 0 103 46" fill="none" xmlns="http://www.w3.org/2000/svg">
<path d="M7.50098 0.135785C8.85203 0.131266 10.2031 0.126748 11.5541 0.131266C11.5361 6.6109 11.5315 13.0905 11.5541 19.5747C10.2076 19.5747 8.85655 19.5747 7.5055 19.5702C7.50098 13.0905 7.5055 6.61542 7.50098 0.135785Z" fill="#656565"/>
<path d="M7.49609 21.6846C8.85167 21.6756 10.2118 21.6711 11.5718 21.6756C11.5493 28.1552 11.5673 34.6349 11.5538 41.1145C10.2027 41.1145 8.85167 41.11 7.49609 41.11C7.49609 34.6349 7.50061 28.1598 7.49609 21.6846Z" fill="#656565"/>
<path d="M41.458 0.13083C42.7729 0.126312 44.0923 0.126312 45.4072 0.13083C45.3801 4.73074 45.4027 9.32613 45.3846 13.926C45.4524 14.7665 45.2898 15.8735 46.076 16.4293C46.8396 16.5875 47.6213 16.6236 48.3985 16.6959C48.4076 17.6132 48.4031 18.5305 48.385 19.4477C46.5821 19.5517 44.5532 19.7911 42.9898 18.666C41.7698 17.8256 41.4309 16.2667 41.467 14.8704C41.458 9.95873 41.5077 5.04252 41.458 0.13083Z" fill="#656565"/>
<path d="M63.834 0C65.185 0 66.5316 0 67.8826 0C67.8781 6.57001 67.8781 13.1355 67.8826 19.7055C66.5316 19.7055 65.185 19.7055 63.834 19.71C63.8385 13.14 63.8385 6.57001 63.834 0Z" fill="#656565"/>
<path d="M14.0527 1.36438C15.3993 1.35986 16.7458 1.35986 18.0969 1.35986C18.0969 2.40817 18.0923 3.45648 18.0878 4.50479C16.7458 4.50479 15.4038 4.50479 14.0618 4.50479C14.0573 3.45648 14.0527 2.40817 14.0527 1.36438Z" fill="#656565"/>
<path d="M33.9072 1.36438C35.2583 1.35986 36.6048 1.35986 37.9559 1.35986C37.9559 2.40817 37.9514 3.45648 37.9468 4.50479C36.6048 4.50479 35.2628 4.50479 33.9208 4.50479C33.9163 3.45648 33.9117 2.41269 33.9072 1.36438Z" fill="#656565"/>
<path d="M39.3477 4.15234C39.9125 4.16138 40.4773 4.17494 41.0421 4.18397C41.0376 5.20065 41.0376 6.21733 41.0376 7.23401C40.6174 7.23853 39.7814 7.24757 39.3612 7.25208C39.3567 6.21733 39.3522 5.18258 39.3477 4.15234Z" fill="#656565"/>
<path d="M46.0303 4.15723C46.4641 4.16175 47.3316 4.1753 47.7609 4.17982C47.7247 5.20102 47.7021 6.22221 47.6976 7.24793C47.2819 7.24341 46.4595 7.24341 46.0438 7.24341C46.0393 6.21318 46.0348 5.18294 46.0303 4.15723Z" fill="#656565"/>
<path d="M1.34202 6.81876C2.85122 5.46771 5.05176 5.98282 6.7869 6.54313C6.79593 7.27514 6.81401 8.00263 6.8366 8.73012C5.94192 8.83856 4.44628 8.56293 4.3062 9.82813C4.15257 11.9519 4.12094 14.1027 4.33331 16.2219C4.82584 17.1663 6.00518 16.6331 6.84112 16.8229C6.81853 17.5323 6.79142 18.2372 6.76882 18.9466C5.03369 19.4572 2.86478 20.1305 1.33298 18.7794C-0.244003 17.3109 0.0406672 14.9703 0 13.0182C0.06326 10.9307 -0.307263 8.42737 1.34202 6.81876Z" fill="#656565"/>
<path d="M21.648 6.80066C23.1663 5.4722 25.3487 5.98279 27.0794 6.54762C27.0884 7.27511 27.1019 8.00712 27.12 8.73461C26.2253 8.82498 24.7116 8.58549 24.5987 9.85069C24.4495 11.9654 24.4089 14.1117 24.6303 16.2219C25.1183 17.1663 26.2886 16.6466 27.1245 16.8183C27.1019 17.5277 27.0884 18.2372 27.0703 18.9421C25.3397 19.4572 23.1843 20.1214 21.639 18.802C20.0665 17.3199 20.4099 14.9612 20.3467 13.0137C20.4325 10.9306 20.0078 8.41831 21.648 6.80066Z" fill="#656565"/>
<path d="M14.0524 6.31689C15.3763 6.31689 16.7003 6.31689 18.0242 6.31689C18.0242 10.7361 18.0242 15.1552 18.0287 19.5744C16.7003 19.5744 15.3718 19.5744 14.0479 19.5789C14.0614 15.1552 14.0569 10.7361 14.0524 6.31689Z" fill="#656565"/>
<path d="M27.816 6.32141C29.0631 6.31689 30.3102 6.31689 31.5619 6.31689C31.5483 10.0628 31.5709 13.8087 31.5619 17.5501C31.5483 19.3665 31.2591 21.4134 29.7906 22.6606C28.0645 24.1472 25.6109 24.0704 23.4827 23.8083C23.4827 22.9227 23.4782 22.037 23.4736 21.1469C24.9557 21.07 27.5765 21.4315 27.7527 19.3213C27.9018 14.9926 27.7392 10.6547 27.816 6.32141Z" fill="#656565"/>
<path d="M33.9117 6.31689C35.2357 6.31689 36.5641 6.31689 37.8926 6.31689C37.8926 10.7361 37.8881 15.1552 37.8926 19.5744C36.5641 19.5744 35.2357 19.5744 33.9072 19.5744C33.9208 15.1552 33.9163 10.7361 33.9117 6.31689Z" fill="#656565"/>
<path d="M52.0129 6.86349C53.861 5.84681 56.0977 5.8197 58.1356 6.10437C59.7713 6.29867 61.4296 7.46898 61.5561 9.22219C61.7956 12.6744 61.3573 16.1672 62.0351 19.5923C60.6344 19.5788 59.2336 19.5742 57.8328 19.5516C57.0737 16.1808 57.8148 12.697 57.3584 9.30352C56.2423 8.27329 54.7421 9.14085 54.0011 10.1711C52.6997 10.1937 51.4029 10.1937 50.1016 10.1575C50.463 8.93752 50.7748 7.50513 52.0129 6.86349Z" fill="#656565"/>
<path d="M50.2508 13.2754C51.7058 11.2466 54.3808 10.9077 56.6401 10.3926C56.6491 11.233 56.6536 12.069 56.6446 12.9049C55.5104 13.4742 53.337 13.9623 53.825 15.6838C53.9515 17.0349 55.7635 16.4339 56.6581 16.6237C56.6491 17.4687 56.6446 18.3182 56.6356 19.1676C54.914 19.6014 52.9845 19.859 51.3579 18.9598C49.3968 17.9024 49.1166 15.0286 50.2508 13.2754Z" fill="#656565"/>
<path d="M63.834 21.3594C65.185 21.3594 66.5361 21.3594 67.8871 21.3594C67.8646 27.9429 67.8871 34.5265 67.8736 41.1146C66.5316 41.1146 65.185 41.1101 63.8385 41.1146C63.8295 34.5265 63.843 27.9429 63.834 21.3594Z" fill="#656565"/>
<path d="M77.2002 21.3594C78.5512 21.3594 79.9023 21.3594 81.2579 21.3639C81.2534 27.9475 81.2579 34.531 81.2534 41.1101C79.9068 41.1101 78.5603 41.1146 77.2138 41.1146C77.2002 34.531 77.2273 27.9429 77.2002 21.3594Z" fill="#656565"/>
<path d="M90.1641 21.3639C91.5196 21.3594 92.8707 21.3594 94.2217 21.3594C94.2037 27.9429 94.1991 34.531 94.2082 41.1146C92.8616 41.1146 91.5151 41.1101 90.1686 41.1101C90.1641 34.531 90.1686 27.9475 90.1641 21.3639Z" fill="#656565"/>
<path d="M12.4127 21.6438C15.1239 21.6348 18.6935 21.6076 20.1169 24.4092C20.9935 26.6458 20.9257 29.9806 18.4043 31.1192C19.2629 31.8015 20.2976 32.5155 20.4016 33.7129C20.7405 36.162 20.379 38.6562 20.6862 41.1143C19.1725 41.1143 17.6543 41.1143 16.136 41.1053C15.8152 38.7827 16.1902 36.415 15.8152 34.106C15.4628 32.5607 13.6011 32.8318 12.4082 32.6872C12.4082 31.6569 12.4082 30.6312 12.4082 29.601C13.5469 29.4293 15.1645 29.7727 15.8017 28.5437C16.1902 27.4727 16.1857 25.9907 15.2233 25.218C14.3422 24.8339 13.3435 24.9378 12.4082 24.8339C12.4082 23.772 12.4082 22.7102 12.4127 21.6438Z" fill="#656565"/>
<path d="M83.7246 26.0047C83.7246 24.9564 83.7246 23.9126 83.7246 22.8643C85.0711 22.8643 86.4177 22.8643 87.7642 22.8643C87.7642 23.908 87.7642 24.9564 87.7687 26.0001C86.4177 26.0047 85.0711 26.0001 83.7246 26.0047Z" fill="#656565"/>
<path d="M28.8424 27.0752C30.5188 27.3282 32.507 27.518 33.5463 29.0543C34.6443 30.6855 34.2195 32.7596 34.3144 34.6077C32.4844 34.6031 30.6499 34.6031 28.8198 34.6031C28.8153 33.957 28.8108 33.3063 28.8018 32.6602C29.2084 32.6421 30.0127 32.6059 30.4149 32.5924C30.2703 31.4311 29.8681 30.4099 28.8244 29.7909C28.8289 28.8871 28.8289 27.9789 28.8424 27.0752Z" fill="#656565"/>
<path d="M22.8867 30.252C23.3792 27.8662 26.0361 27.2426 28.1056 27.0303C28.1011 27.9385 28.1056 28.8467 28.1146 29.755C27.1431 30.4102 26.7681 31.463 26.6506 32.5881C27.0211 32.6062 27.7622 32.6378 28.1327 32.6514C28.1282 33.3021 28.1237 33.9482 28.1237 34.5944C27.7848 34.6034 27.1025 34.6124 26.7636 34.617C26.7726 36.0629 26.7636 37.6308 28.092 38.5391C28.1101 39.4338 28.1192 40.3284 28.1146 41.2231C26.009 40.9791 23.3747 40.2516 22.9002 37.8387C22.5658 35.3399 22.5704 32.7508 22.8867 30.252Z" fill="#656565"/>
<path d="M36.5459 27.3057C37.8924 27.3057 39.239 27.3057 40.5855 27.3102C40.6036 33.3922 40.5765 39.4787 40.5991 45.5607H36.582C36.5188 39.4787 36.582 33.3922 36.5459 27.3057Z" fill="#656565"/>
<path d="M41.2948 27.9927C43.0209 27.4053 45.1763 26.7637 46.7397 28.0831C48.3167 29.5336 47.9597 31.8832 48.023 33.8081C47.9236 35.9273 48.3935 38.4352 46.8572 40.1567C45.348 41.6117 43.0796 41.0921 41.2993 40.5137C41.2903 39.7772 41.2858 39.0452 41.2858 38.3131C42.1172 38.1505 43.4682 38.53 43.7574 37.4365C43.9924 35.1773 43.9608 32.8773 43.771 30.618C43.161 29.8725 42.1127 30.1707 41.2812 30.0758C41.2812 29.3799 41.2858 28.6886 41.2948 27.9927Z" fill="#656565"/>
<path d="M68.7274 28.1144C70.4174 27.2875 72.8348 27.1068 74.2491 28.5437C75.5956 30.1252 75.2025 32.3574 75.2884 34.2732C75.1935 36.284 75.6725 38.7059 74.1 40.2829C72.5411 41.634 70.3315 41.0556 68.5964 40.3959C68.5828 39.691 68.5738 38.9816 68.5693 38.2767C69.3736 38.2451 70.2231 38.3716 70.9867 38.0417C71.2985 35.7915 71.2352 33.4825 71.059 31.2277C70.8286 30.0077 69.3148 30.455 68.4473 30.2833C68.5512 29.5604 68.619 28.8374 68.7274 28.1144Z" fill="#656565"/>
<path d="M49.8713 27.8164C51.254 27.8164 52.6412 27.8164 54.0239 27.8164C54.0194 30.4191 54.0013 33.0218 54.0058 35.6245C54.051 36.4062 53.9561 37.2873 54.4396 37.9651C55.1038 38.4079 56.0075 38.1549 56.7621 38.304C56.6718 39.0451 56.6085 39.7906 56.482 40.5272C54.8327 41.2456 52.7271 41.4399 51.2224 40.3012C50.1063 39.4065 49.912 37.8748 49.8758 36.5373C49.8442 33.6318 49.8894 30.7218 49.8713 27.8164Z" fill="#656565"/>
<path d="M57.332 27.8164C58.6831 27.8164 60.0341 27.8164 61.3897 27.8164C61.3852 32.2491 61.3897 36.6818 61.3852 41.1146C60.0387 41.1146 58.6876 41.1146 57.3411 41.1146C57.332 36.6818 57.3456 32.2491 57.332 27.8164Z" fill="#656565"/>
<path d="M83.7246 27.8164C85.0486 27.8164 86.3725 27.8164 87.6964 27.8164C87.6919 32.2491 87.6964 36.6818 87.6919 41.1146C86.3725 41.1146 85.0485 41.1146 83.7291 41.1146C83.7246 36.6818 83.7291 32.2491 83.7246 27.8164Z" fill="#656565"/>
<path d="M97.5153 27.821C99.0471 27.812 100.579 27.821 102.111 27.812C100.954 29.4071 99.8017 31.0021 98.6631 32.6107C98.0214 31.454 97.4114 30.2837 96.7607 29.136C97.0093 28.6977 97.2623 28.2594 97.5153 27.821Z" fill="#656565"/>
<path d="M96.3312 29.7275C98.491 33.5005 100.511 37.3504 102.68 41.1143C101.279 41.1143 99.8828 41.1143 98.4865 41.1143C97.506 39.2888 96.539 37.4543 95.6037 35.6062C95.3732 35.9587 94.9078 36.659 94.6774 37.007C94.7 35.5294 94.5734 34.0337 94.7994 32.5652C95.1609 31.5485 95.7844 30.6538 96.3312 29.7275Z" fill="#656565"/>
<path d="M30.4826 36.0986C31.802 36.1122 33.1214 36.1167 34.4409 36.1438C34.1562 37.3096 34.0568 38.6471 33.1576 39.5418C32.046 40.7302 30.3425 40.9019 28.8378 41.2091C28.8288 40.2919 28.8288 39.3791 28.8378 38.4664C29.5789 37.8247 30.1527 37.0295 30.4826 36.0986Z" fill="#656565"/>
</svg>
