<svg width="62" height="67" viewBox="0 0 62 67" fill="none" xmlns="http://www.w3.org/2000/svg">
<path d="M56.914 12.2901H46.632V9.97517H42.7351V0.00901768H27.059C25.7119 -0.0468518 24.3671 0.157387 23.1169 0.607744C21.8667 1.0581 20.7405 1.74394 19.8154 2.61827C18.1489 4.41022 17.2861 6.68858 17.3935 9.01387V12.2901H5.08593L0 55.0583L31 66.8293L62 55.0583L56.914 12.2901ZM31.066 65.8092H30.9561L1.18892 54.5286L5.98863 13.3103V13.1926H18.4282V9.01387C18.3075 6.87538 19.0934 4.77461 20.63 3.12834C21.4633 2.37309 22.4677 1.78473 23.5762 1.40248C24.6849 1.02022 25.8721 0.852834 27.059 0.911465H41.8323V10.8776H45.7294V13.1926H56.0994V13.3103L60.9872 54.3912L31.066 65.8092Z" fill="#656565"/>
<path fill-rule="evenodd" clip-rule="evenodd" d="M45.6197 17.9014H45.4875H41.7227V24.1987H45.4875H45.6197V24.3362V25.8271H55.7035L54.3825 14.8213H45.6197V17.764V17.9014Z" fill="#656565"/>
<path fill-rule="evenodd" clip-rule="evenodd" d="M7.61737 14.8213L6.31836 25.8271H18.4277V14.8213H7.61737Z" fill="#656565"/>
<path d="M29.5908 14.8213H25.0332V25.8271H29.5908V14.8213Z" fill="#656565"/>
<path fill-rule="evenodd" clip-rule="evenodd" d="M28.1377 6.0127C27.7046 6.01352 27.2765 6.09509 26.8809 6.25217C26.4852 6.40925 26.1309 6.63835 25.8406 6.92475C25.5503 7.21115 25.3304 7.54851 25.1953 7.91513C25.06 8.28177 25.0124 8.66956 25.0554 9.05358V13.1931H29.613V6.0127H28.1377ZM28.6221 12.2907H26.0682V9.05358C26.041 8.79114 26.0737 8.52651 26.1638 8.27551C26.254 8.02453 26.4001 7.79229 26.5932 7.5927C26.7865 7.39311 27.0228 7.23025 27.2881 7.11385C27.5535 6.99743 27.8425 6.92985 28.1377 6.91515H28.6221V12.2907Z" fill="#656565"/>
<path fill-rule="evenodd" clip-rule="evenodd" d="M38.2217 48.3684H40.9298V44.3467H40.8857L38.2217 48.3684Z" fill="#656565"/>
<path fill-rule="evenodd" clip-rule="evenodd" d="M27.3449 43.8365C27.162 43.8286 26.9793 43.8535 26.8073 43.9099C26.6355 43.9663 26.4782 44.0528 26.3447 44.1645C26.2112 44.2762 26.1042 44.4107 26.0301 44.5599C25.9561 44.7091 25.9165 44.87 25.9138 45.0332C25.6355 46.4282 25.6355 47.8561 25.9138 49.2511C25.9574 49.5644 26.128 49.8529 26.3937 50.0622C26.6592 50.2713 27.0015 50.3867 27.356 50.3867C27.7105 50.3867 28.0528 50.2713 28.3183 50.0622C28.584 49.8529 28.7545 49.5644 28.798 49.2511C29.0707 47.8556 29.0707 46.4286 28.798 45.0332C28.7955 44.8683 28.7552 44.7056 28.6799 44.5551C28.6046 44.4044 28.4955 44.269 28.3597 44.157C28.2238 44.0452 28.0637 43.9591 27.8892 43.9039C27.7149 43.8488 27.5296 43.8259 27.3449 43.8365Z" fill="#656565"/>
<path fill-rule="evenodd" clip-rule="evenodd" d="M55.8787 27.3184H45.6186V31.2419H41.8316V36.5781H29.5903V27.3184H25.0327V28.3581C25.0327 33.6157 19.5505 36.3819 14.0241 36.3819H13.5838V30.6534H13.9361C16.4901 30.6534 18.3395 29.4567 18.3395 27.8676V27.3184H6.14205L3.01562 53.4695L30.9993 64.083L58.983 53.4695L55.8787 27.3184ZM23.2714 50.2914V51.1546H18.0313C18.0378 50.4036 18.2986 49.6719 18.7798 49.0554C19.2191 48.5952 19.7222 48.1864 20.277 47.8391C20.8353 47.503 21.3519 47.115 21.8182 46.6815C22.1716 46.3031 22.3525 45.8197 22.3246 45.328C22.3341 45.1324 22.2978 44.9374 22.2183 44.755C22.1386 44.5725 22.0175 44.4069 21.8622 44.2685C21.7176 44.1407 21.5456 44.0401 21.3565 43.9726C21.1674 43.9053 20.965 43.8724 20.7613 43.8762C20.51 43.8634 20.26 43.9183 20.0441 44.0337C19.828 44.1492 19.656 44.3199 19.5505 44.5236C19.3056 44.9549 19.1845 45.4334 19.1982 45.9165H18.2294C18.1675 45.1786 18.3931 44.444 18.8679 43.837C19.0871 43.5607 19.3827 43.3397 19.7261 43.1953C20.0694 43.051 20.4487 42.9882 20.8275 43.0129C21.4885 42.9984 22.1295 43.217 22.6109 43.6211C22.8644 43.8493 23.0604 44.1232 23.1857 44.4243C23.311 44.7253 23.3627 45.0468 23.3374 45.3671C23.3801 45.9878 23.1689 46.6011 22.7429 47.0937C22.3448 47.5053 21.8941 47.8739 21.3999 48.1923C20.8862 48.5061 20.4017 48.82 19.9467 49.1339C19.51 49.4396 19.2189 49.881 19.1321 50.3699L23.2714 50.2914ZM29.6342 49.899C29.5239 50.3333 29.2391 50.7166 28.8337 50.9767C28.4281 51.237 27.9298 51.356 27.4325 51.3115C26.9361 51.3518 26.4401 51.231 26.0357 50.9716C25.6312 50.7121 25.3455 50.3312 25.2308 49.899C24.6992 48.0853 24.6992 46.1804 25.2308 44.3666C25.3458 43.9359 25.6325 43.5573 26.0375 43.301C26.4425 43.0446 26.9383 42.9284 27.4325 42.9737C27.9267 42.9284 28.4225 43.0446 28.8275 43.301C29.2327 43.5573 29.5193 43.9359 29.6342 44.3666C30.1525 46.1818 30.1525 48.0838 29.6342 49.899ZM34.8083 51.1742H33.7074V45.2886H31.6377V44.5039C32.1489 44.5125 32.6547 44.4116 33.113 44.2096C33.3488 44.0804 33.5459 43.9024 33.6877 43.6905C33.8296 43.4788 33.9119 43.2395 33.9275 42.9933H34.8083V51.1742ZM42.7563 49.2124H41.8316V51.1742H40.9069V49.2124H37.4284V48.2118L41.061 42.9344H41.8316V48.3491H42.7345L42.7563 49.2124Z" fill="#656565"/>
</svg>
